<svg width="2484" height="2475" xmlns="http://www.w3.org/2000/svg" xmlns:xlink="http://www.w3.org/1999/xlink" xml:space="preserve" overflow="hidden"><defs><clipPath id="clip0"><rect x="0" y="0" width="2484" height="2475"/></clipPath><clipPath id="clip1"><rect x="0" y="0" width="2484" height="2475"/></clipPath></defs><g clip-path="url(#clip0)"><g clip-path="url(#clip1)"><path d="M2257.7 2262 2476 2055.87 2418.79 2038.85 2367.99 2023.66 2335.04 2014 2114 2215.99Z" fill="#C5E3E3" fill-rule="evenodd" fill-opacity="1"/><path d="M2261.41 2266.4 2255 2474 2460.68 2474 2479 2062Z" fill="#C5E3E3" fill-rule="evenodd" fill-opacity="1"/><path d="M627.171 2335.56 629 2334.18 622.599 2331.89 394 2248 415.031 2474 446.12 2474 627.171 2335.56Z" fill="#F2494C" fill-rule="evenodd" fill-opacity="1"/><path d="M865.541 2421 866 2421 635.459 2336 635 2336Z" fill="#F9AA19" fill-rule="evenodd" fill-opacity="1"/><path d="M626.5 2327.18 632 2329 632 2325.82 626 2324Z" fill="#F2494C" fill-rule="evenodd" fill-opacity="1"/><path d="M631 2320 631 2317 629 2319.4Z" fill="#F2494C" fill-rule="evenodd" fill-opacity="1"/><path d="M393 2239 393 2241.74 621 2325 621 2321.8Z" fill="#F39896" fill-rule="evenodd" fill-opacity="1"/><path d="M622.688 2317 630 2311.04 612.176 2076 396 2234.07Z" fill="#F9C996" fill-rule="evenodd" fill-opacity="1"/><path d="M388.108 2244.05 388.108 2244.05 387.191 2235.32 387.191 2234.87C387.191 2234.87 387.191 2234.41 387.191 2234.41 387.191 2234.41 387.191 2234.41 387.191 2234.41 387.191 2234.41 387.191 2233.95 387.191 2233.95L387.649 2233.49 611 2070.55 597.241 1892 284 2112.77 299.593 2269.29 321.607 2277.55 322.066 2277.55 322.525 2278.01 322.525 2278.47C322.525 2278.47 322.525 2278.47 322.525 2278.93 322.525 2278.93 322.525 2279.39 322.525 2279.39L339.952 2457.94 381.229 2474 408.746 2474 387.649 2244.05 388.108 2244.05Z" fill="#F9AA19" fill-rule="evenodd" fill-opacity="1"/><path d="M278.425 2113.14 141 2064 157.491 2216.48 294 2267Z" fill="#C5E3E3" fill-rule="evenodd" fill-opacity="1"/><path d="M318.505 2285 176 2388.61 176.917 2395.03 335.001 2456Z" fill="#F9AA19" fill-rule="evenodd" fill-opacity="1"/><path d="M296.178 2274.35 158 2223 175.445 2383 315 2281.22Z" fill="#F39891" fill-rule="evenodd" fill-opacity="1"/><path d="M597 1884.88 593.794 1842.73 452.71 1796.45 378.045 1772.17 100 1681 140.31 2058.06 280.936 2108Z" fill="#61B3B2" fill-rule="evenodd" fill-opacity="1"/><path d="M630.011 2340 455 2474 798.151 2474 860 2424.73Z" fill="#F2494C" fill-rule="evenodd" fill-opacity="1"/><path d="M177 2401 181.141 2437.73 274.071 2474 367 2474 337.557 2462.52Z" fill="#F9C996" fill-rule="evenodd" fill-opacity="1"/><path d="M185.189 2474 259 2474 182 2444Z" fill="#E8E7E3" fill-rule="evenodd" fill-opacity="1"/><path d="M180 2474 176.336 2440.07 171.298 2397.43 170.382 2387.8 152.061 2219.06 135.114 2060.87 93.8932 1678 72.3664 1479 0 1523.94 0 2417.6 0 2474Z" fill="#F39891" fill-rule="evenodd" fill-opacity="1"/><path d="M0 2463 0 2474 1.0003 2474Z" fill="#F9AA19" fill-rule="evenodd" fill-opacity="1"/><path d="M1625.16 1372.23 1625.16 1372.23 1625.62 1372.23 1626.07 1372.23 1627.45 1372.23 1863.39 1435.07 1873.01 1437.82 2100.25 1262.61 2103 1125.02 1501 981 1509.7 1458 1625.16 1372.23Z" fill="#DD1013" fill-rule="evenodd" fill-opacity="1"/><path d="M1629 1378 1633.59 1799.16 1858.62 1866 1860 1439.34Z" fill="#61B3B2" fill-rule="evenodd" fill-opacity="1"/><path d="M1865.75 1440 1864 1868.62 1869.25 1870 1871 1441.38Z" fill="#66B2B0" fill-rule="evenodd" fill-opacity="1"/><path d="M1874 1867 2092.21 1685.68 2100 1269 1876.29 1441.62Z" fill="#D9D9D9" fill-rule="evenodd" fill-opacity="1"/><path d="M1391.19 1762.4 1397.14 1987 1629 1802.28C1629 1802.28 1628.54 1801.82 1628.54 1801.82 1628.54 1801.82 1628.54 1801.36 1628.54 1801.36L1628.54 1800.91 1623.97 1379.21 1508.27 1464.01 1507.81 1464.01 1507.35 1464.01 1506.89 1464.01 1506.44 1464.01 1505.98 1464.01 1505.52 1464.01 1505.06 1463.55C1505.06 1463.55 1504.61 1463.55 1504.61 1463.09 1504.61 1463.09 1504.61 1463.09 1504.61 1462.63 1504.61 1462.63 1504.61 1462.18 1504.15 1462.18 1504.15 1462.18 1504.15 1461.72 1504.15 1461.72 1504.15 1461.72 1504.15 1461.72 1504.15 1461.26L1495.46 975.853 1477.17 0 1345 0 1385.7 1552.93 1391.19 1762.4Z" fill="#C5E3E3" fill-rule="evenodd" fill-opacity="1"/><path d="M2107.91 2214 2329 2012.63 2189.55 1970.89 2102.4 1945.2 2007.45 1916.76 1870.3 1875.93 1859.75 1872.72 1629.94 1803.92 1629.48 1803.92 1629.02 1803.46 1628.56 1803 1396 1987.86 2107.91 2214Z" fill="#61B3B2" fill-rule="evenodd" fill-opacity="1"/><path d="M269.752 520 392 456.317 354.315 0 84.9999 0 133.256 489.304Z" fill="#61B3B2" fill-rule="evenodd" fill-opacity="1"/><path d="M415.43 444.37 396.62 215.535C396.62 215.535 396.62 215.077 396.62 215.077 396.62 215.077 396.62 215.077 396.62 214.618 396.62 214.618 396.62 214.16 396.62 214.16 396.62 214.16 396.62 213.701 397.079 213.701L397.538 213.243 397.996 212.784 487 168.76 474.613 0 359 0 396.62 454 415.43 444.37Z" fill="#DD1013" fill-rule="evenodd" fill-opacity="1"/><path d="M2107.76 2220.14 1630 2068 1632.29 2299.87 2152.28 2474 2249.58 2474 2256 2266.88Z" fill="#D9D9D9" fill-rule="evenodd" fill-opacity="1"/><path d="M1394.93 1995 1379.82 2006.91C1379.82 2006.91 1379.82 2007.37 1380.28 2007.37L1380.28 2007.83C1380.28 2007.83 1380.28 2008.29 1380.28 2008.29 1380.28 2008.29 1380.28 2008.75 1380.28 2008.75 1380.28 2008.75 1380.28 2008.75 1380.28 2009.2 1380.28 2009.2 1380.28 2009.66 1380.28 2009.66L1379.82 2010.12 1367 2021.57 1372.49 2220.42 1419.19 2236 1605.98 2080.68 1622 2067.39 1394.93 1995Z" fill="#0A4054" fill-rule="evenodd" fill-opacity="1"/><path d="M1612.76 2292.95 1627 2298 1624.24 2072 1610 2083.94Z" fill="#F9C996" fill-rule="evenodd" fill-opacity="1"/><path d="M1374.18 2005 1391 1991.43 1366 1983 1366.45 2002.66Z" fill="#22B0AE" fill-rule="evenodd" fill-opacity="1"/><path d="M2107 1939.74 2187.73 1964 2190 1858.26 2108.81 1834Z" fill="#61B3B2" fill-rule="evenodd" fill-opacity="1"/><path d="M2007.61 1911 2103.85 1828.96 2104.31 1828.96 2104.77 1828.96 2105.23 1828.96 2105.69 1828.96 2106.14 1828.96 2106.6 1828.96 2192.76 1854.17 2311 1751.04 2095.6 1691 1877 1872.96 2007.61 1911Z" fill="#D9D9D9" fill-rule="evenodd" fill-opacity="1"/><path d="M2014 1912.81 2101.16 1939 2103 1837Z" fill="#F4F5F3" fill-rule="evenodd" fill-opacity="1"/><path d="M1633 2307.75 2041.94 2445.46 2042.39 2445.46 2042.85 2445.46 2043.31 2445.46 2043.31 2445.92 2043.77 2446.38C2043.77 2446.38 2043.77 2446.84 2043.77 2446.84 2043.77 2446.84 2043.77 2447.29 2043.77 2447.29L2043.31 2473 2135 2473 1633.46 2305 1633 2307.75Z" fill="#9FD1D0" fill-rule="evenodd" fill-opacity="1"/><path d="M1365.01 1977.74 1391 1986 1385.53 1768 1360 1787.73Z" fill="#22B0AE" fill-rule="evenodd" fill-opacity="1"/><path d="M1385 1761.32 1379.51 1555.78 1353 1548 1359.4 1781Z" fill="#930B0D" fill-rule="evenodd" fill-opacity="1"/><path d="M1122.6 399.262 1145.53 969.964 1210.2 985.55 1210.66 985.55 1211.12 985.55 1211.58 986.008C1211.58 986.008 1211.58 986.008 1211.58 986.466 1211.58 986.466 1211.58 986.925 1211.58 986.925L1211.58 987.383 1218.46 1173.03 1341.39 1205.12 1341.85 1205.12 1342.31 1205.12 1342.76 1205.58 1342.76 1206.04 1342.76 1206.5 1351.94 1540.21 1379 1548 1340.01 0 1107 0 1118.93 299.332 1122.6 399.262Z" fill="#61B3B2" fill-rule="evenodd" fill-opacity="1"/><path d="M1627 2306 1627 2303.38 1613 2299 1613 2301.63Z" fill="#F2494C" fill-rule="evenodd" fill-opacity="1"/><path d="M1608 2295 1605.25 2088 1421.29 2241.3 1202 2423.51 1203.84 2474 1408.44 2474 1608 2302.34Z" fill="#F9C996" fill-rule="evenodd" fill-opacity="1"/><path d="M1147.78 2407.03 1056 2374 1061.02 2474 1198 2474 1196.17 2424Z" fill="#F9C996" fill-rule="evenodd" fill-opacity="1"/><path d="M1330.86 2257.64 1154 2403.37 1198.56 2419 1414 2239.71 1370.36 2225Z" fill="#F9AA19" fill-rule="evenodd" fill-opacity="1"/><path d="M270 546.344 266.797 545.426C266.797 546.803 265.424 547.263 264.508 547.721 263.136 547.721 261.763 546.803 261.763 545.426L259.932 527.525C259.932 527.525 259.932 527.066 259.932 527.066 259.932 527.066 259.932 526.607 259.932 526.607 259.932 526.607 259.932 526.148 259.932 526.148 259.932 526.148 259.932 526.148 259.932 525.688 259.932 525.688 259.932 525.688 260.39 525.23L260.848 524.771 129.966 494.016 80.5426 483 0 524.311 0 593.164 124.932 623 270 546.344Z" fill="#F9AA19" fill-rule="evenodd" fill-opacity="1"/><path d="M395.499 1546.34 395.499 1546.34 487.476 1574.79 498 1578 415.176 563.496 266 530 267.373 544.224C267.373 544.683 267.373 544.683 267.373 545.142L270.576 546.06 273.322 544.683C274.695 543.765 276.067 544.683 276.982 545.601 276.982 545.601 276.982 545.601 276.982 545.601 277.898 546.977 276.982 548.354 276.067 549.272 276.067 549.272 276.067 549.272 276.067 549.272L275.152 549.73 363.925 1536.7C364.383 1536.7 364.84 1536.7 364.84 1536.7L395.499 1546.34Z" fill="#3C7C7B" fill-rule="evenodd" fill-opacity="1"/><path d="M75.571 1471.74 75.571 1471.74 76.4872 1471.74C76.4872 1471.74 76.4872 1471.74 76.9451 1472.2L77.4034 1472.66C77.4034 1472.66 77.4034 1473.12 77.4034 1473.12L77.4034 1473.57 98.9294 1674.79 378.314 1766 409 1745.37 391.596 1550.12 362.742 1540.95C361.367 1540.49 360.452 1539.12 360.91 1537.74 361.367 1536.83 362.284 1535.91 363.199 1535.91L274.804 550 128.242 627.003 151.142 855.719C151.142 856.177 151.142 856.177 151.142 856.177 151.142 856.177 151.142 856.177 151.142 856.177L151.142 856.636C151.142 856.636 151.142 857.094 150.684 857.094 150.684 857.094 150.226 857.552 150.226 857.552 150.226 857.552 150.226 858.011 149.768 858.011L0 940.972 0 1254.94 22.4422 1455.24 75.571 1471.74Z" fill="#F9C996" fill-rule="evenodd" fill-opacity="1"/><path d="M499 1759.35 497.168 1738.25 483.881 1578.61 397.287 1552 414.697 1746.96C414.697 1746.96 414.697 1746.96 414.697 1747.42 414.697 1747.88 414.697 1747.88 414.697 1747.88 414.697 1747.88 414.697 1748.34 414.239 1748.34 414.239 1748.34 414.239 1748.8 414.239 1748.8L413.781 1749.26 413.323 1749.71 384 1768.98 451.809 1791 499 1759.35Z" fill="#61B3B2" fill-rule="evenodd" fill-opacity="1"/><path d="M518 1741 505.607 1581.38 502.951 1583.21 502.508 1583.21 502.066 1583.21 501.623 1583.21 501.18 1583.21 491 1580 503.393 1735.95 518 1741Z" fill="#0A4054" fill-rule="evenodd" fill-opacity="1"/><path d="M503 1742 504.406 1756 518 1746.67Z" fill="#22B0AE" fill-rule="evenodd" fill-opacity="1"/><path d="M122.587 627.343 0 598 0 814.863 145 852Z" fill="#F9C996" fill-rule="evenodd" fill-opacity="1"/><path d="M0 821 0 935 141 857.169Z" fill="#61B3B2" fill-rule="evenodd" fill-opacity="1"/><path d="M0 1304 0 1448.94 17.0002 1454Z" fill="#9FD1D0" fill-rule="evenodd" fill-opacity="1"/><path d="M601 1281.1 543.143 498 421 563.144 504.112 1577 509.622 1573.33 571.153 1532.5 554.163 1312.3C554.163 1312.3 554.163 1312.3 554.163 1311.84 554.163 1311.84 554.163 1311.38 554.163 1311.38 554.163 1311.38 554.163 1310.92 554.163 1310.92 554.163 1310.92 554.163 1310.92 554.622 1310.46L555.082 1310 601 1281.1Z" fill="#F9C996" fill-rule="evenodd" fill-opacity="1"/><path d="M1032.64 299.842C1031.72 299.842 1030.8 299.383 1030.34 298.466L642 509.431 841.904 553 1117 397.986 1113.33 302.135 1034.93 287 1035.39 297.09C1034.93 298.466 1034.01 299.383 1032.64 299.842Z" fill="#F9C996" fill-rule="evenodd" fill-opacity="1"/><path d="M640.955 509 641.871 509 1030 298.167C1029.54 297.708 1029.54 297.25 1029.54 296.792L1029.08 283.5 1019 58.0001 624 260.584 640.955 509Z" fill="#DD1013" fill-rule="evenodd" fill-opacity="1"/><path d="M876.198 1106 1105.59 960.631C1106.05 960.631 1106.05 960.172 1106.51 960.172L1107.43 960.172 1140 967.968 1117.52 403 845 556.165 876.198 1106Z" fill="#3C7C7B" fill-rule="evenodd" fill-opacity="1"/><path d="M544.08 491.392 545 490.932 422.675 464.258C422.216 465.637 421.296 466.097 420.376 466.557 418.997 466.557 417.617 465.637 417.617 464.258L416.237 450 395.543 460.578 270.46 525.886 270 525.886 417.157 559 544.08 491.392Z" fill="#3C7C7B" fill-rule="evenodd" fill-opacity="1"/><path d="M422.677 464.101 544.397 490.624 547.142 489.252 547.6 489.252 548.057 489.252 548.972 489.252 635 508 618.069 261.527 403 219 421.304 445.353 422.677 464.101C422.677 463.644 422.677 464.101 422.677 464.101Z" fill="#61B3B2" fill-rule="evenodd" fill-opacity="1"/><path d="M684 1227.34 635.752 513.331 552 495 609.352 1275Z" fill="#F9C996" fill-rule="evenodd" fill-opacity="1"/><path d="M871 1109.42 839.72 558.081 641 515 689.76 1224Z" fill="#DD1013" fill-rule="evenodd" fill-opacity="1"/><path d="M19.1678 1459.93 19.1678 1459.93 18.7115 1459.93 0 1454 0 1517 68.0004 1475Z" fill="#F2494C" fill-rule="evenodd" fill-opacity="1"/><path d="M1366 2008 1366 2011 1368 2009Z" fill="#0A4054" fill-rule="evenodd" fill-opacity="1"/><path d="M868 2425.46 871 2474 868 2425Z" fill="#F9C996" fill-rule="evenodd" fill-opacity="1"/><path d="M1629.41 2311.98 1611.1 2306 1417 2474 2008.91 2474 2035 2449.61Z" fill="#F39891" fill-rule="evenodd" fill-opacity="1"/><path d="M807 2474 866 2474 863.256 2429Z" fill="#9FD1D0" fill-rule="evenodd" fill-opacity="1"/><path d="M1332.17 2250 1367 2221.11 1361.5 2020.22 1361.5 2016.09 1361.04 2004.17 1360.58 1979.86 1355.08 1786.31 1348.21 1544.14 1339.04 1213 1301 1239.14Z" fill="#3C7C7B" fill-rule="evenodd" fill-opacity="1"/><path d="M875.192 1113.15 689.069 1230.97 608.385 1281.85 605.176 1284.14 563 1310.73 901.781 1407 1195.64 1208.96 1196.1 1208.96 1196.55 1208.96 1197.93 1208.96 1297.41 1235.09 1335 1209.42 1215.81 1178.25 1003.55 1123.24 1003.1 1123.24 1002.64 1122.78C1002.64 1122.32 1002.18 1122.32 1002.18 1122.32 1002.18 1122.32 1002.18 1121.86 1001.72 1121.86 1001.72 1121.86 1001.72 1121.4 1001.72 1121.4 1001.72 1121.4 1001.72 1120.95 1001.72 1120.95 1001.72 1120.95 1001.72 1120.49 1001.72 1120.49 1001.72 1120.49 1001.72 1120.49 1001.72 1120.03L1002.18 1119.57 1002.64 1119.11 1003.1 1118.65 1203.43 989.38 1142.92 974.71 1108.08 966 875.192 1113.15Z" fill="#930B0D" fill-rule="evenodd" fill-opacity="1"/><path d="M559 1316 575.969 1533.76 593.855 1767.56 599.359 1840.91 603.028 1886.29 617.245 2071.04 636.048 2312.63 637.424 2331.43 872.238 2417.16 872.697 2417.61 873.156 2417.61C873.156 2417.61 873.156 2417.61 873.156 2417.61L873.156 2418.07 873.156 2418.53 873.156 2418.99C873.156 2418.99 873.156 2418.99 873.156 2419.45L876.366 2474 958 2474 898.38 1412.73 559 1316Z" fill="#F39891" fill-rule="evenodd" fill-opacity="1"/><path d="M620.369 256 1013 54.7566 804.3 17.9999 491.48 172.838 491.021 172.838 408 214.189Z" fill="#F9C996" fill-rule="evenodd" fill-opacity="1"/><path d="M526.72 1744.3 588 1764 570.622 1539 513 1577.03Z" fill="#9FD1D0" fill-rule="evenodd" fill-opacity="1"/><path d="M524.505 1749C524.505 1750.38 523.123 1750.84 522.202 1751.3L521.741 1751.3 504.232 1763.28 460 1793.23 595 1837 589.932 1769.27 524.505 1749Z" fill="#F4F5F3" fill-rule="evenodd" fill-opacity="1"/><path d="M2017 2474 2038 2474 2038 2455Z" fill="#9FD1D0" fill-rule="evenodd" fill-opacity="1"/><path d="M1050.35 2369.44C1050.35 2369.44 1050.35 2368.98 1050.35 2368.98L1050.35 2368.98C1050.35 2368.98 1050.35 2368.98 1050.35 2368.52L1050.81 2368.07C1050.81 2368.07 1050.81 2368.07 1050.81 2367.61L1231 2221.89 1193.86 1217 905 1411.75 964.148 2473 1055.39 2473 1050.35 2369.44C1050.35 2369.9 1050.35 2369.44 1050.35 2369.44Z" fill="#61B3B2" fill-rule="evenodd" fill-opacity="1"/><path d="M1235.51 2226 1059 2368.85 1148.86 2401 1324 2256.32Z" fill="#930B0D" fill-rule="evenodd" fill-opacity="1"/><path d="M1294.96 1240.23 1200 1215 1236.98 2221.27 1326 2252Z" fill="#E8E7E3" fill-rule="evenodd" fill-opacity="1"/><path d="M1213 1173 1206.57 993 1010 1120.06Z" fill="#22B0AE" fill-rule="evenodd" fill-opacity="1"/><path d="M1360 1786.6 1360.46 1788 1386 1767.98 1385.54 1762.4 1385.54 1761 1360 1781.02Z" fill="#000000" fill-rule="evenodd" fill-opacity="1"/><path d="M635 2336 635 2336 634.067 2335 629.4 2333 628 2334.5 628.467 2334.5 628.934 2334 629.4 2334 629.867 2334 630.333 2334 630.8 2334 635 2336Z" fill="#000000" fill-rule="evenodd" fill-opacity="1"/><path d="M633.522 2335.65 633.522 2335.65C633.044 2335.2 633.044 2335.2 632.565 2335.2 632.565 2335.2 632.565 2334.75 632.087 2334.75 632.087 2334.75 632.087 2334.3 632.087 2334.3 632.087 2334.3 632.087 2334.3 632.087 2333.85L631.609 2329.8 626.348 2328 626.348 2329.8C626.348 2329.8 626.348 2330.25 626.348 2330.25 626.348 2330.7 626.348 2330.7 626.348 2331.15 626.348 2331.6 625.87 2331.6 625.87 2332.05 625.87 2332.05 625.87 2332.05 625.391 2332.5 625.391 2332.5 624.913 2332.95 624.913 2332.95L624.435 2332.95 623.957 2332.95 623 2332.95 629.217 2335.2 634 2337 633.522 2335.65Z" fill="#000000" fill-rule="evenodd" fill-opacity="1"/><path d="M2195.06 1858.91 2194.59 1859.37 2194.12 1859.37 2192.71 1859.37 2190.82 1858.91 2188 1964.63 2191.29 1965.54 2193.18 1966 2196 1858 2195.06 1858.91Z" fill="#000000" fill-rule="evenodd" fill-opacity="1"/><path d="M2424 1971 2424 1975C2425.33 1974 2425.33 1972 2424 1971Z" fill="#000000" fill-rule="evenodd" fill-opacity="1"/><path d="M2311.21 1750 2193 1853.92 2194.37 1854.38C2195.75 1854.84 2196.67 1856.23 2196.21 1857.61 2196.21 1858.08 2195.75 1858.54 2195.29 1859L2196.21 1858.08 2319 1750.92C2318.54 1751.39 2317.17 1751.85 2316.25 1751.85L2311.21 1750Z" fill="#000000" fill-rule="evenodd" fill-opacity="1"/><path d="M2107 1828 2107 1828 2107.46 1828C2107.46 1828 2107.46 1828 2107.92 1828.46L2108.37 1828.93C2108.37 1828.93 2108.37 1828.93 2108.37 1829.39 2108.37 1829.39 2108.37 1829.85 2108.83 1829.85 2108.83 1829.85 2108.83 1830.31 2108.83 1830.31 2108.83 1830.31 2108.83 1830.78 2108.83 1830.78L2108.83 1834.48 2190.84 1858.54 2192.67 1859 2194.05 1859 2194.51 1859 2194.96 1858.54C2195.42 1858.07 2195.88 1857.61 2195.88 1857.15 2196.34 1855.76 2195.42 1854.37 2194.05 1853.91L2192.67 1853.45 2107 1828Z" fill="#000000" fill-rule="evenodd" fill-opacity="1"/><path d="M1865 1440.37 1862.2 1439.46 1860.2 1439 1859 1866.17 1861.8 1867.08 1863.4 1868Z" fill="#000000" fill-rule="evenodd" fill-opacity="1"/><path d="M1606 2080.75 1606 2080.75 1606.9 2080.75 1607.35 2080.75 1607.8 2080.75C1607.8 2080.75 1608.25 2080.75 1608.25 2080.75L1608.7 2080.75 1609.15 2081.22 1609.6 2081.69C1609.6 2081.69 1609.6 2081.69 1609.6 2082.17L1610.05 2082.64C1610.05 2082.64 1610.05 2083.11 1610.05 2083.11 1610.05 2083.11 1610.05 2083.58 1610.05 2083.58L1610.05 2085 1624 2072.72 1624 2068.94 1621.3 2068 1606 2080.75Z" fill="#000000" fill-rule="evenodd" fill-opacity="1"/><path d="M2102.75 1836.88 2101 1938.63 2104.06 1939.54 2105.81 1940 2108 1834.13 2108 1830.46C2108 1830.46 2108 1830 2108 1830 2108 1830.92 2108 1831.83 2107.12 1832.29L2102.75 1836.88Z" fill="#000000" fill-rule="evenodd" fill-opacity="1"/><path d="M2014.43 1913 2103.49 1836.73 2108.08 1832.59C2109 1832.14 2109 1831.22 2109 1830.3 2109 1830.3 2109 1829.84 2109 1829.84 2109 1829.84 2109 1829.38 2108.54 1829.38 2108.54 1829.38 2108.54 1829.38 2108.54 1828.92L2108.08 1828.46C2108.08 1828.46 2108.08 1828.46 2107.62 1828L2107.16 1828 2106.7 1828 2106.25 1828 2105.79 1828 2105.33 1828C2105.33 1828 2104.87 1828 2104.87 1828.46L2104.41 1828.46 2008 1910.7 2009.38 1911.16 2014.43 1913Z" fill="#000000" fill-rule="evenodd" fill-opacity="1"/><path d="M1395.92 1993.91 1395.92 1993.91 1395 1994.83 1622.25 2067.09 1625 2068 1625 2066.17C1625 2066.17 1625 2065.71 1625 2065.71L1396.38 1993 1395.92 1993.46 1395.92 1993.91Z" fill="#000000" fill-rule="evenodd" fill-opacity="1"/><path d="M1862.62 1440C1861.24 1439.54 1860.32 1438.16 1860.78 1436.78 1860.78 1436.78 1860.78 1436.78 1860.78 1436.78 1861.24 1435.41 1862.62 1434.49 1864 1434.95L1627 1372 1627.46 1372 1627.92 1372.46 1628.38 1372.92C1628.38 1372.92 1628.38 1372.92 1628.38 1373.38 1628.38 1373.38 1628.38 1373.84 1628.38 1373.84 1628.38 1373.84 1628.38 1374.3 1628.38 1374.3 1628.38 1374.3 1628.38 1374.3 1628.38 1374.76L1628.38 1378.43 1859.86 1440 1862.62 1440Z" fill="#000000" fill-rule="evenodd" fill-opacity="1"/><path d="M1860.12 1436.35C1859.65 1437.77 1860.6 1439.18 1862.03 1439.65 1862.03 1439.65 1862.03 1439.65 1862.03 1439.65L1865.37 1440.59 1871.09 1442 1871.09 1439.65C1871.09 1439.65 1871.09 1439.18 1871.09 1439.18L1871.09 1438.71 1871.57 1438.24 1872.05 1437.77 1873 1436.82 1862.99 1434C1861.55 1434.47 1860.6 1434.94 1860.12 1436.35Z" fill="#000000" fill-rule="evenodd" fill-opacity="1"/><path d="M1500 980.485 2103.33 1124 2103.33 1121.71C2103.33 1120.34 2104.7 1118.97 2106.08 1118.97 2106.54 1118.97 2106.54 1118.97 2107 1118.97L1500 975 1500 980.485Z" fill="#000000" fill-rule="evenodd" fill-opacity="1"/><path d="M609 1275.71 551.642 495.458 549.366 495 548 495.458 605.358 1278Z" fill="#000000" fill-rule="evenodd" fill-opacity="1"/><path d="M1870.75 1441.83 1869 1869.54 1871.19 1870 1874.25 1867.25 1876 1441.38 1875.12 1442.29C1873.81 1443.21 1872.5 1443.21 1871.62 1441.83 1871.62 1441.83 1871.62 1441.83 1871.62 1441.83 1871.19 1441.38 1871.19 1440.46 1871.19 1440L1870.75 1441.83Z" fill="#000000" fill-rule="evenodd" fill-opacity="1"/><path d="M414.54 1746.16C415 1746.62 415 1747.08 415 1748 415 1748 415 1747.54 415 1747.54L397.52 1551.84 393.84 1550.46 392 1550 409.48 1746.16 410.86 1745.24C411.78 1744.78 413.62 1744.78 414.54 1746.16 414.54 1746.16 414.54 1746.16 414.54 1746.16Z" fill="#000000" fill-rule="evenodd" fill-opacity="1"/><path d="M384.924 1769 413.633 1749.41 414.089 1748.94 414.544 1748.48C414.544 1748.48 414.544 1748.01 414.544 1748.01 414.544 1748.01 414.544 1747.54 415 1747.54 415 1747.54 415 1747.08 415 1747.08 415 1746.61 415 1745.68 414.544 1745.21 413.633 1743.81 412.266 1743.81 410.899 1744.28 410.899 1744.28 410.899 1744.28 410.899 1744.28L409.532 1745.21 379 1766.2 380.367 1766.67 384.924 1769Z" fill="#000000" fill-rule="evenodd" fill-opacity="1"/><path d="M622.714 2322.47 621 2322 621.429 2325.27 625.286 2326.67C626.143 2327.13 627 2328.07 627 2329L627 2327.13 626.572 2323.87 622.714 2322.47Z" fill="#000000" fill-rule="evenodd" fill-opacity="1"/><path d="M624.412 2317.22 629.118 2319 631 2317.22 630.53 2312.78 630.53 2311 623 2316.78Z" fill="#000000" fill-rule="evenodd" fill-opacity="1"/><path d="M1624.5 2066.46 1624.5 2072.42 1627 2298.16 1631 2299.54 1633 2300 1630 2067.84 1624 2066C1624.5 2066.46 1624.5 2066.46 1624.5 2066.46Z" fill="#000000" fill-rule="evenodd" fill-opacity="1"/><path d="M1353.46 1547.38 1380 1555 1380 1553.21 1380 1549.62 1353 1542 1353.46 1543.79Z" fill="#000000" fill-rule="evenodd" fill-opacity="1"/><path d="M1625 1372 1625 1372 1509.38 1456.71 1509.38 1461.72C1509.38 1462.63 1508.92 1463.54 1508 1464L1508.46 1464 1624.08 1379.74 1624.08 1374.28C1624.08 1373.37 1624.54 1372.46 1625 1372Z" fill="#000000" fill-rule="evenodd" fill-opacity="1"/><path d="M1505 1465 1505 1465C1505 1465 1502.75 1465 1505 1465 1502.75 1462.75 1505 1465 1505 1465Z" fill="#000000" fill-rule="evenodd" fill-opacity="1"/><path d="M1629 1372 1630 1373C1629 1373 1629 1373 1629 1372Z" fill="#000000" fill-rule="evenodd" fill-opacity="1"/><path d="M283.111 2113.92 282.667 2113.92 282.222 2113.92 281.778 2113.92 281.334 2113.92 280 2113.46 294.667 2267.17 298.667 2268.54 300 2269 284.445 2113 283.111 2113.92Z" fill="#000000" fill-rule="evenodd" fill-opacity="1"/><path d="M318.542 2282.37 315.333 2281 176 2382.08 176.458 2386.63 176.458 2388 319 2285.1Z" fill="#000000" fill-rule="evenodd" fill-opacity="1"/><path d="M323.583 2280.38C323.125 2281.76 321.75 2282.68 320.375 2281.76 320.375 2281.76 320.375 2281.76 320.375 2281.76L319 2281.3 319.458 2284.52 335.958 2456.16 339.625 2457.54 341 2458 323.583 2279C323.583 2279 323.583 2279 323.583 2279 324.042 2279.46 323.583 2279.92 323.583 2280.38Z" fill="#000000" fill-rule="evenodd" fill-opacity="1"/><path d="M133 490 85.4362 0 80.0001 0 127.564 488.624 131.188 489.541Z" fill="#000000" fill-rule="evenodd" fill-opacity="1"/><path d="M597.542 1885 281 2108.95 282.376 2109.41C283.752 2109.87 284.67 2111.25 284.211 2112.62 284.211 2112.62 284.211 2112.62 284.211 2112.62 283.752 2113.08 283.752 2113.54 282.835 2114L284.211 2113.08 598 1891.42 597.542 1886.84 597.542 1885Z" fill="#000000" fill-rule="evenodd" fill-opacity="1"/><path d="M526.828 1745.86 526.828 1745.86C526.828 1745.86 526.828 1745.86 526.828 1745.86 526.828 1746.32 526.828 1746.79 526.828 1746.79 526.828 1746.79 526.828 1746.79 526.828 1747.25 526.828 1747.25 526.828 1747.71 526.371 1747.71 526.371 1747.71 526.371 1747.71 525.914 1748.18L525 1749.11 589 1770 589 1768.14 588.543 1763.96 527.285 1744 526.828 1745.86Z" fill="#000000" fill-rule="evenodd" fill-opacity="1"/><path d="M498.05 1737.8 498.05 1737.8C498.05 1737.34 498.5 1737.34 498.5 1736.88L498.95 1736.42 499.4 1735.96C499.85 1735.96 499.85 1735.5 500.3 1735.5L500.75 1735.5C500.75 1735.5 501.2 1735.5 501.2 1735.5L503 1735.96 490.4 1579.84 486.8 1578.46 485 1578 498.05 1737.8C498.05 1738.26 498.05 1737.8 498.05 1737.8Z" fill="#000000" fill-rule="evenodd" fill-opacity="1"/><path d="M505 1756.17 503.6 1741.83 499.867 1740.39C498.934 1739.91 498 1738.96 498 1738L499.867 1760 501.267 1759.04 505 1756.17Z" fill="#000000" fill-rule="evenodd" fill-opacity="1"/><path d="M526 1749C526 1749 528.251 1746.75 526 1749L526 1749Z" fill="#000000" fill-rule="evenodd" fill-opacity="1"/><path d="M499.826 1741.04 503.479 1742.42 518.087 1747 519 1746.54 518.544 1741.5 503.022 1736.46 501.196 1736C501.196 1736 500.739 1736 500.739 1736L500.283 1736C499.826 1736 499.37 1736 499.37 1736.46L498.913 1736.92 498.457 1737.37C498.457 1737.83 498 1737.83 498 1738.29 498 1738.75 498 1738.75 498 1739.21 498 1739.67 498.913 1740.58 499.826 1741.04Z" fill="#000000" fill-rule="evenodd" fill-opacity="1"/><path d="M2484 2055.92 2484 2055.92C2484 2055.92 2484 2056.37 2484 2056.37 2484 2056.37 2484 2056.83 2483.54 2056.83L2478.46 2061.41 2460 2473 2465.54 2473 2484 2055C2484 2055 2484 2055 2484 2055.46 2484 2055.92 2484 2055.92 2484 2055.92Z" fill="#000000" fill-rule="evenodd" fill-opacity="1"/><path d="M2258.83 2261.8 2258.83 2261.8 2259.29 2262.26C2259.75 2262.26 2259.75 2262.71 2259.75 2262.71 2259.75 2262.71 2259.75 2263.17 2260.21 2263.17 2260.21 2263.17 2260.21 2263.63 2260.21 2263.63 2260.21 2263.63 2260.21 2264.09 2260.21 2264.09L2260.21 2265 2477.96 2061.03 2483 2056.46C2482.54 2057.37 2481.17 2057.37 2480.25 2057.37L2475.67 2056 2257 2260.88 2258.83 2261.8Z" fill="#000000" fill-rule="evenodd" fill-opacity="1"/><path d="M2260.58 2265 2260.58 2265C2260.58 2265.46 2260.58 2265.46 2260.58 2265.91 2260.15 2267.29 2258.88 2268.2 2257.62 2267.74L2255.92 2267.29 2250 2474 2255.08 2474 2261 2266.37 2260.58 2265Z" fill="#000000" fill-rule="evenodd" fill-opacity="1"/><path d="M1365 1979.34 1365 1982.93 1390.09 1991 1391 1990.1C1391 1990.1 1391 1989.66 1391 1989.66L1391 1986.07 1365 1978 1365 1979.34Z" fill="#000000" fill-rule="evenodd" fill-opacity="1"/><path d="M1632.1 1799.16 1634 1799.62 1629.24 1377.42 1629.24 1373.75C1629.24 1373.75 1629.24 1373.75 1629.24 1373.29 1629.24 1373.29 1629.24 1372.84 1629.24 1372.84 1629.24 1372.84 1629.24 1372.38 1629.24 1372.38L1628.76 1371.92 1628.29 1371.46 1627.81 1371 1627.33 1371 1626.86 1371 1626.38 1371 1625.9 1371 1625.43 1371C1624.48 1371.46 1624 1372.38 1624 1373.29L1624 1378.8 1628.76 1801C1628.76 1800.54 1628.76 1800.54 1628.76 1800.08 1629.24 1799.16 1630.67 1798.71 1632.1 1799.16Z" fill="#000000" fill-rule="evenodd" fill-opacity="1"/><path d="M1627 2306 1631 2307.5 1633 2308 1633 2305 1629 2303.5 1627 2303Z" fill="#000000" fill-rule="evenodd" fill-opacity="1"/><path d="M1629.83 1803.67 1630.29 1803.67 1859.63 1872C1858.25 1871.54 1857.34 1870.18 1857.8 1868.81 1857.8 1868.81 1857.8 1868.81 1857.8 1868.81 1858.25 1867.45 1859.63 1866.53 1861 1866.99L1857.34 1866.08 1633.04 1799.57 1631.2 1799.12C1629.83 1798.66 1628.46 1799.57 1628 1800.94 1628 1801.4 1628 1801.4 1628 1801.85L1628 1802.31C1628 1802.31 1628 1802.76 1628 1802.76 1628 1802.76 1628 1803.22 1628.46 1803.22L1628.92 1803.67 1629.83 1803.67Z" fill="#000000" fill-rule="evenodd" fill-opacity="1"/><path d="M2106.63 2219 2106.17 2218.54 2106.17 2218.09C2106.17 2218.09 2106.17 2217.63 2105.71 2217.63 2105.71 2217.63 2105.71 2217.17 2105.71 2217.17 2105.71 2217.17 2105.71 2216.71 2105.71 2216.71 2105.71 2216.71 2105.71 2216.26 2105.71 2216.26 2105.71 2216.26 2105.71 2216.26 2105.71 2215.8 2105.71 2215.34 2105.71 2215.8 2105.71 2215.8 2105.71 2215.8 2105.71 2215.34 2106.17 2215.34L2106.63 2214.88 2108 2213.97 1397.46 1988 1397.46 1989.83C1397.46 1990.29 1397.46 1990.74 1397 1991.2 1397.46 1992.12 1397.46 1993.03 1397 1993.49L1625.14 2065.76 1630.64 2067.59 2108 2219C2107.08 2219 2106.63 2219 2106.63 2219Z" fill="#000000" fill-rule="evenodd" fill-opacity="1"/><path d="M1613 2293 1613 2298.96 1627.68 2303.54 1629.58 2304C1628.16 2303.54 1627.21 2302.17 1627.21 2300.79 1627.68 2299.42 1629.11 2298.5 1630.53 2298.5 1631 2298.5 1631 2298.5 1631 2298.5L1627.21 2297.13 1613 2293Z" fill="#000000" fill-rule="evenodd" fill-opacity="1"/><path d="M1869.56 1875.52 1869.12 1875.03C1869.12 1875.03 1868.68 1874.54 1868.68 1874.54 1868.68 1874.54 1868.68 1874.04 1868.68 1874.04 1868.68 1874.04 1868.68 1873.55 1868.68 1873.55 1868.68 1873.55 1868.68 1873.06 1868.68 1873.06 1868.68 1873.06 1868.68 1873.06 1868.68 1872.56L1868.68 1872.07 1869.12 1871.58 1870 1870.59 1867.8 1870.1 1862.96 1868.62 1861.2 1868.13C1859.88 1867.64 1858.55 1868.62 1858.11 1870.1 1857.67 1871.58 1858.55 1873.06 1859.88 1873.55 1859.88 1873.55 1859.88 1873.55 1859.88 1873.55L1870 1877 1869.56 1875.52Z" fill="#000000" fill-rule="evenodd" fill-opacity="1"/><path d="M1630.84 2298.17C1629.47 2297.71 1628.09 2298.17 1627.17 2299.55 1626.71 2300.93 1627.17 2302.32 1628.55 2303.24 1628.55 2303.24 1629.01 2303.24 1629.01 2303.24L1632.68 2304.62 2135.03 2474 2152 2474 1632.22 2298.63 1630.84 2298.17Z" fill="#000000" fill-rule="evenodd" fill-opacity="1"/><path d="M2005.79 1913.33C2006.25 1911.95 2007.62 1911.03 2009 1911.49 2009 1911.49 2009 1911.49 2009 1911.49L2007.62 1911.03 1876.88 1872 1872.75 1875.21C1871.83 1875.67 1870.92 1876.13 1870 1875.67L2007.17 1917C2006.25 1916.54 2005.33 1915.16 2005.79 1913.33 2005.79 1913.33 2005.79 1913.33 2005.79 1913.33Z" fill="#000000" fill-rule="evenodd" fill-opacity="1"/><path d="M1196.16 2420.8 1196.16 2420.8C1196.62 2420.35 1196.62 2419.89 1196.62 2419.89L1198 2418.98 1153.43 2403 1149.76 2406.2 1149.3 2406.2C1149.3 2406.2 1148.84 2406.2 1148.84 2406.65 1148.84 2406.65 1148.38 2406.65 1148.38 2406.65L1147.46 2406.65 1147 2406.65 1196.16 2424 1196.16 2422.17C1196.16 2422.17 1196.16 2421.72 1196.16 2421.72L1196.16 2420.8Z" fill="#000000" fill-rule="evenodd" fill-opacity="1"/><path d="M1200.94 2424.3C1199.63 2425.22 1198.31 2425.22 1197.44 2423.84 1197 2423.38 1197 2422.92 1197 2422L1197 2422 1197 2423.84 1198.75 2474 1204 2474 1202.25 2423.38 1200.94 2424.3Z" fill="#000000" fill-rule="evenodd" fill-opacity="1"/><path d="M1606 2080 1606 2080 1419 2235.86 1420.37 2236.32 1420.83 2236.32 1421.29 2236.78 1421.74 2237.24 1421.74 2237.7C1421.74 2237.7 1421.74 2238.16 1421.74 2238.16 1421.74 2238.16 1421.74 2238.62 1421.74 2238.62L1421.74 2239.08C1421.74 2239.08 1421.74 2239.54 1421.29 2239.54 1421.29 2239.54 1421.29 2240 1420.83 2240L1604.17 2086.9 1604.17 2081.38C1605.09 2080.46 1605.54 2080 1606 2080Z" fill="#000000" fill-rule="evenodd" fill-opacity="1"/><path d="M1610 2081 1610 2081C1611.33 2083.25 1611.33 2081 1610 2081 1611.33 2081 1610 2081 1610 2081Z" fill="#000000" fill-rule="evenodd" fill-opacity="1"/><path d="M177.8 2442.3 177.8 2442.3C177.35 2442.3 177.35 2442.3 176.9 2441.84 176.9 2441.84 176.45 2441.84 176.45 2441.38 176.45 2441.38 176 2440.92 176 2440.92 176 2440.92 176 2440.46 176 2440.46 176 2440.46 176 2440.46 176 2440L179.6 2474 185 2474 181.85 2444.14 177.8 2442.3Z" fill="#000000" fill-rule="evenodd" fill-opacity="1"/><path d="M280.611 2114 280.611 2114 281.071 2114 281.53 2114 281.99 2114 282.449 2114C282.909 2113.54 283.368 2113.07 283.828 2112.61 284.287 2111.22 283.828 2109.83 282.449 2109.37 282.449 2109.37 282.449 2109.37 282.449 2109.37L281.071 2108.91 140 2058 140 2059.85 140.459 2064.02 278.773 2113.54 280.611 2114Z" fill="#000000" fill-rule="evenodd" fill-opacity="1"/><path d="M1368.31 2009 1366 2010.85 1366.46 2015 1372 2010.38Z" fill="#000000" fill-rule="evenodd" fill-opacity="1"/><path d="M1418.17 2241.38 1413.59 2240 1198.29 2419.44 1196.92 2420.36C1196.92 2420.36 1196.46 2420.82 1196.46 2420.82L1196 2421.28 1196 2421.74C1196 2421.74 1196 2422.2 1196 2422.2 1196 2422.66 1196 2423.58 1196.46 2424.04 1197.37 2424.96 1199.21 2425.42 1200.12 2424.5L1201.04 2423.58 1420 2240.92C1420 2241.38 1419.08 2241.84 1418.17 2241.38Z" fill="#F9AA19" fill-rule="evenodd" fill-opacity="1"/><path d="M80.0799 483.06C78.6992 482.6 77.7789 481.22 77.7789 479.84 77.7789 478.92 78.6992 478 79.6198 478 79.6198 478 79.1593 478 79.1593 478L0 518.02 0 524 81.0005 483.06 80.0799 483.06Z" fill="#000000" fill-rule="evenodd" fill-opacity="1"/><path d="M276.524 545.562C276.066 544.174 274.235 543.711 272.862 544.174 272.862 544.174 272.862 544.174 272.862 544.174L270.115 545.562 125 622.373 125.916 622.836 126.374 622.836 126.831 623.298C126.831 623.298 126.831 623.298 127.289 623.761 127.289 623.761 127.747 624.224 127.747 624.224L127.747 624.687C127.747 624.687 127.747 625.15 127.747 625.15L127.747 627 274.693 549.726 275.608 549.264C276.982 548.338 277.44 546.95 276.524 545.562 276.524 545.562 276.524 545.562 276.524 545.562Z" fill="#000000" fill-rule="evenodd" fill-opacity="1"/><path d="M122.793 625.64C122.793 624.28 123.709 622.92 125.084 622.92 125.542 622.92 125.542 622.92 126.001 622.92L126.001 622.92 125.084 622.467 0 593 0 598.44 122.793 627 122.793 625.64Z" fill="#000000" fill-rule="evenodd" fill-opacity="1"/><path d="M2260.66 2264.17C2260.66 2264.17 2260.66 2263.71 2260.19 2263.71 2260.19 2263.25 2259.73 2263.25 2259.73 2263.25L2259.27 2262.78 2257.89 2262.32 2113.44 2216 2109.76 2219.24C2108.84 2220.17 2107.92 2220.17 2107 2219.71L2255.59 2267.42 2257.43 2267.88C2258.81 2268.34 2260.19 2267.42 2260.66 2266.03 2260.66 2265.56 2260.66 2265.56 2260.66 2265.1 2261.11 2264.64 2261.11 2264.64 2260.66 2264.17 2261.11 2264.17 2261.11 2264.17 2260.66 2264.17Z" fill="#000000" fill-rule="evenodd" fill-opacity="1"/><path d="M2106.46 2215.24 2106.46 2215.24C2106 2215.69 2106 2216.15 2106 2216.15 2106 2216.15 2106 2216.61 2106 2216.61 2106 2216.61 2106 2217.07 2106 2217.07 2106 2217.07 2106 2217.52 2106 2217.52 2106 2217.52 2106 2217.98 2106 2217.98 2106 2217.98 2106 2218.44 2106.46 2218.44L2106.46 2218.9 2106.92 2219.35C2106.92 2219.35 2107.37 2219.35 2107.37 2219.81 2108.29 2220.27 2109.21 2219.81 2110.12 2219.35L2113.79 2216.15 2335 2014.83 2333.63 2014.37 2329.05 2013 2108.29 2214.32 2106.46 2215.24Z" fill="#000000" fill-rule="evenodd" fill-opacity="1"/><path d="M1871.37 1870.12 1870.46 1871.04 1870 1871.49 1870 1871.95C1870 1871.95 1870 1872.41 1870 1872.41 1870 1872.41 1870 1872.87 1870 1872.87 1870 1872.87 1870 1873.33 1870 1873.33 1870 1873.33 1870 1873.78 1870 1873.78 1870 1873.78 1870 1874.24 1870.46 1874.24L1870.91 1874.7 1871.37 1874.7C1872.28 1875.16 1873.2 1875.16 1874.11 1874.24L1878.22 1871.04 2096 1689.21 2094.63 1688.75C2094.63 1688.75 2094.17 1688.75 2094.17 1688.29L2093.72 1687.83 2093.26 1687.37 2092.8 1686.92C2092.8 1686.92 2092.8 1686.46 2092.8 1686.46L2092.8 1687.37 2092.8 1686 1875.48 1867.37 1871.37 1870.12Z" fill="#000000" fill-rule="evenodd" fill-opacity="1"/><path d="M2094.92 1690.03C2094.46 1690.03 2094.46 1690.03 2094 1690.03L2094 1690.03 2095.38 1690.49 2310.75 1750.45 2315.79 1751.82C2316.71 1752.28 2317.63 1751.82 2318.54 1750.91 2318.54 1750.91 2319 1750.45 2319 1750.45 2319 1750.45 2319 1749.99 2319 1749.99 2319 1749.99 2319 1749.99 2319 1749.99 2319 1749.99 2319 1749.99 2319 1749.53 2319 1749.53 2319 1749.07 2319 1749.07 2319 1749.07 2319 1748.62 2319 1748.62 2319 1748.62 2319 1748.16 2319 1748.16L2318.54 1747.7 2318.08 1747.24 2317.63 1746.79 2317.17 1746.33 2097.67 1685 2097.67 1686.83C2097.67 1688.66 2096.29 1690.03 2094.92 1690.03 2094.92 1690.03 2094.92 1690.03 2094.92 1690.03Z" fill="#000000" fill-rule="evenodd" fill-opacity="1"/><path d="M145 854.693 145 852.385 0 815 0 820.539 140.884 857Z" fill="#000000" fill-rule="evenodd" fill-opacity="1"/><path d="M148.086 859.095C146.715 859.095 145.344 858.185 145.344 856.82L145.344 855 140.773 857.275 0 934.63 0 941 149 859.095C149 859.095 148.543 859.095 148.086 859.095Z" fill="#000000" fill-rule="evenodd" fill-opacity="1"/><path d="M150 858 150 858C150 858 150 857 151 857 151 857 150 857 150 858Z" fill="#000000" fill-rule="evenodd" fill-opacity="1"/><path d="M128.123 625.29C128.123 625.29 128.123 624.831 128.123 624.831L128.123 624.374C128.123 624.374 127.665 623.916 127.665 623.916 127.665 623.916 127.665 623.458 127.208 623.458L126.75 623 126.293 623C125.835 623 125.835 623 125.378 623 124.005 623 122.632 624.374 123.09 625.747L123.09 627.579 145.51 851.957 145.51 853.789 145.51 855.621C145.51 856.995 146.882 858.368 148.712 857.91 149.17 857.91 149.627 857.91 149.627 857.452 149.627 857.452 150.085 857.452 150.085 856.995 150.085 856.995 150.542 856.995 150.542 856.537 150.542 856.537 151 856.079 151 856.079L151 855.621C151 855.163 151 855.163 151 854.705L128.123 626.205 128.123 625.29Z" fill="#000000" fill-rule="evenodd" fill-opacity="1"/><path d="M503 1576.62 420.042 563 418.666 563.917 418.208 563.917 417.75 563.917 416.833 563.917 415 563.459 497.958 1577.08 500.708 1578 503 1576.62Z" fill="#000000" fill-rule="evenodd" fill-opacity="1"/><path d="M265.6 530.168 261.867 529.263 261.4 529.263C261.4 529.263 260.933 529.263 260.933 528.81 260.933 528.81 260.466 528.358 260.466 528.358L260 527.905C260 527.905 260 527.452 260 527.452 260 527.452 260 527 260 527L261.867 544.649C261.867 546.006 263.267 547.364 264.667 546.911 266.067 546.911 267 546.006 267 544.649 267 544.196 267 544.196 267 543.743L265.6 530.168Z" fill="#000000" fill-rule="evenodd" fill-opacity="1"/><path d="M551.289 490.359C552.205 491.717 551.289 493.076 550.374 493.981 550.374 493.981 550.374 493.981 550.374 493.981L549.458 494.434 552.205 494.887 636 513 636 511.189 635.542 507.566 549.458 489 549 489C549.916 489 550.831 489.453 551.289 490.359Z" fill="#000000" fill-rule="evenodd" fill-opacity="1"/><path d="M843.375 553.322C843.375 553.322 843.833 553.322 843.833 553.322L844.291 553.322C844.291 553.322 844.75 553.782 844.75 553.782 844.75 553.782 844.75 554.241 845.208 554.241 845.208 554.241 845.208 554.701 845.208 554.701 845.208 554.701 845.208 555.161 845.208 555.161L845.208 557 1117 403.437 1117 398.839 1117 397 842 552.402 842.917 552.402 843.375 553.322Z" fill="#000000" fill-rule="evenodd" fill-opacity="1"/><path d="M1035 286.935 1113 302 1113 299.718 1113 296.065 1035 281 1035 283.283Z" fill="#000000" fill-rule="evenodd" fill-opacity="1"/><path d="M396 461 416 450.139 415.556 445.889 415.556 444 397.333 453.917 397.778 458.167C397.778 459.112 397.778 459.584 396.889 460.056 396.444 460.528 396.444 460.528 396 461Z" fill="#000000" fill-rule="evenodd" fill-opacity="1"/><path d="M418 564C417.08 564 416.159 563.548 415.699 562.643 414.779 561.286 415.239 559.929 416.619 559.024 416.619 559.024 416.619 559.024 416.619 559.024L417.54 558.572 270.283 526 263.841 529.619C263.381 530.071 262.46 530.071 262 529.619L265.681 530.524 415.699 564 418 564Z" fill="#000000" fill-rule="evenodd" fill-opacity="1"/><path d="M542.62 493.755 542.62 493.755C542.62 493.296 542.62 493.296 542.62 492.836L542.62 492.377C542.62 492.377 542.62 491.918 543.08 491.918 543.08 491.918 543.08 491.459 543.54 491.459 543.54 491.459 544 491.459 544 491L417.473 558.491 416.553 558.95C415.172 559.409 414.712 561.246 415.172 562.623 415.172 562.623 415.172 562.623 415.172 562.623 415.633 563.541 416.553 564 417.473 564L417.933 564 418.393 564 418.853 564 420.234 563.082 542.62 497.887 542.62 493.755Z" fill="#000000" fill-rule="evenodd" fill-opacity="1"/><path d="M544.774 490.846C546.104 490.846 547.435 491.769 547.435 493.154 547.435 493.154 547.435 493.154 547.435 493.154L547.435 495 548.765 494.539 549.652 494.077C550.982 493.154 551.426 491.769 550.539 490.385 550.539 490.385 550.539 490.385 550.539 490.385 550.096 489.462 549.208 489 548.321 489L547.878 489 547.435 489 546.991 489 544.774 490.846 543.443 490.846C543.443 490.846 543 490.846 543 491.308 543.887 490.846 544.331 490.846 544.774 490.846Z" fill="#000000" fill-rule="evenodd" fill-opacity="1"/><path d="M871.899 1108.08 876 1105.79 845.013 556.833 845.013 555C845.013 555.458 845.013 555.458 845.013 555.917 844.557 557.292 843.19 558.208 841.823 558.208L840 557.75 870.987 1109 871.899 1108.08Z" fill="#000000" fill-rule="evenodd" fill-opacity="1"/><path d="M392.927 455.708C394.284 455.249 395.642 455.708 396.548 457.083 396.548 457.542 396.548 457.542 397 458L396.548 453.874 359.432 0 354 0 391.116 456.625 392.927 455.708Z" fill="#000000" fill-rule="evenodd" fill-opacity="1"/><path d="M397 460C397 461 396.5 461 396 461L396 461C396.5 461 396.5 461 397 460Z" fill="#000000" fill-rule="evenodd" fill-opacity="1"/><path d="M489.308 168.541 493 166.704 480.539 0 475 0 487.923 169Z" fill="#000000" fill-rule="evenodd" fill-opacity="1"/><path d="M1379.53 1554C1379.53 1552.62 1380.9 1551.25 1382.27 1551.25 1383.63 1551.25 1385 1552.62 1385 1554 1385 1554 1385 1554 1385 1554L1344.47 0 1339 0 1379.08 1550.33 1379.08 1554Z" fill="#000000" fill-rule="evenodd" fill-opacity="1"/><path d="M2105.65 1263.92C2105.65 1263.92 2105.65 1264.37 2105.65 1264.37L2105.18 1264.83C2105.18 1264.83 2105.18 1265.29 2104.71 1265.29L2100 1268.96 2092 1685.88 2092 1687.25 2092 1687.71C2092 1687.71 2092 1688.17 2092 1688.17L2092.47 1688.63 2092.94 1689.08 2093.41 1689.54C2093.41 1689.54 2093.88 1689.54 2093.88 1690 2094.35 1690 2094.35 1690 2094.82 1690 2096.24 1690 2097.65 1688.63 2097.65 1687.25 2097.65 1687.25 2097.65 1687.25 2097.65 1687.25L2097.65 1684.96 2105.65 1263C2106.12 1263.46 2106.12 1263.92 2105.65 1263.92Z" fill="#000000" fill-rule="evenodd" fill-opacity="1"/><path d="M1871.46 1437.25 1871.46 1437.25 1871 1438.17 1871 1438.62C1871 1438.62 1871 1439.08 1871 1439.08 1871 1439.54 1871 1440.45 1871.46 1440.91 1872.38 1442.28 1874.21 1442.28 1875.13 1441.36 1875.13 1441.36 1875.13 1441.36 1875.13 1441.36L1876.05 1440.45 2100.41 1268.31 2105 1264.65C2104.54 1265.11 2104.08 1265.57 2103.16 1265.11 2101.79 1265.11 2100.41 1263.74 2100.41 1262.37 2100.41 1262.37 2100.41 1262.37 2100.41 1262.37L2100.41 1261 1872.84 1435.43 1871.46 1437.25Z" fill="#000000" fill-rule="evenodd" fill-opacity="1"/><path d="M181.678 2439.28C181.678 2440.65 180.758 2442.01 179.379 2442.01 179.379 2442.01 179.379 2442.01 179.379 2442.01 178.92 2442.01 178.46 2442.01 178 2441.56L178.46 2441.56 182.597 2443.38 259.83 2473 275 2473 182.138 2437 181.678 2439.28Z" fill="#000000" fill-rule="evenodd" fill-opacity="1"/><path d="M71.9998 1476.39 67.8988 1475 0 1517.53 0 1524 71.9998 1478.7Z" fill="#000000" fill-rule="evenodd" fill-opacity="1"/><path d="M867 2425.92 863 2429.16 865.667 2474 871 2474 867.889 2425Z" fill="#000000" fill-rule="evenodd" fill-opacity="1"/><path d="M634.52 2335.84 629.92 2334 629.46 2334C629.92 2334 630.38 2334.46 630.84 2334.92 631.76 2336.3 631.3 2337.67 630.38 2338.59 630.38 2338.59 630.38 2338.59 630.38 2338.59L629 2339.51 859.94 2424 863.62 2420.79 865 2419.87 634.52 2335.84Z" fill="#000000" fill-rule="evenodd" fill-opacity="1"/><path d="M630.902 2339.57C632.279 2338.66 632.279 2336.83 631.361 2335.91 631.361 2335.91 631.361 2335.91 631.361 2335.91 630.902 2335.46 630.443 2335 629.984 2335L629.526 2335 629.067 2335 628.608 2335 628.149 2335.46 627.69 2335.46 446 2474 455.176 2474 630.443 2340.94 630.902 2339.57Z" fill="#000000" fill-rule="evenodd" fill-opacity="1"/><path d="M1377.14 2011.85 1373.43 2010.46 1372.04 2010 1366 2014.62 1366 2016 1366 2020.15 1366 2022 1379 2011.38C1378.54 2011.85 1378.07 2012.31 1377.14 2011.85Z" fill="#000000" fill-rule="evenodd" fill-opacity="1"/><path d="M865.2 2421 864 2421.91C864.8 2421 866.4 2421 867.2 2421.91 868 2422.82 868 2424.64 867.2 2425.55 867.2 2425.55 866.8 2426 866.8 2426L868 2425.09 868 2421.45 865.2 2421Z" fill="#000000" fill-rule="evenodd" fill-opacity="1"/><path d="M873 2418 872 2417 873 2418Z" fill="#000000" fill-rule="evenodd" fill-opacity="1"/><path d="M866.609 2426.04C867.982 2425.13 868.439 2423.76 867.524 2422.39 866.609 2421.02 865.237 2420.56 863.865 2421.48 863.865 2421.48 863.408 2421.48 863.408 2421.93L859.749 2425.13 798 2474 806.69 2474 862.493 2429.7 866.609 2426.04Z" fill="#000000" fill-rule="evenodd" fill-opacity="1"/><path d="M393 2241.63 392.538 2238.32 388.385 2236.89 387.923 2236.42C387.923 2236.42 387.462 2235.95 387.462 2235.95 387.462 2235.95 387.462 2235.47 387 2235.47 387 2235.47 387 2235 387 2235L387.923 2244C387.923 2244 387.923 2243.53 387.923 2243.53 387.923 2243.53 387.923 2243.05 387.923 2243.05 387.923 2243.05 387.923 2242.58 388.385 2242.58 388.385 2242.58 388.385 2242.11 388.385 2242.11L388.846 2241.63 389.308 2241.63 389.769 2241.63 390.231 2241.63 390.692 2241.63 391.154 2241.63 393 2241.63Z" fill="#000000" fill-rule="evenodd" fill-opacity="1"/><path d="M390.754 2232.17 395.344 2234 612 2075.96 611.541 2071.37 611.541 2070 388 2232.63C388.918 2232.17 389.836 2232.17 390.754 2232.17Z" fill="#000000" fill-rule="evenodd" fill-opacity="1"/><path d="M623.787 2332 624.706 2332 625.164 2332 625.623 2332C625.623 2332 626.082 2332 626.082 2331.54 626.082 2331.54 626.542 2331.54 626.542 2331.08 626.542 2331.08 627 2330.61 627 2330.15 627 2329.69 627 2329.69 627 2329.23 627 2329.23 627 2329.23 627 2328.77 627 2327.84 626.082 2326.92 625.164 2326.46L621.034 2325.07 393.377 2241.46 392 2241C392.918 2241.46 393.836 2242.39 393.836 2243.31L394.295 2247.47 623.787 2332Z" fill="#000000" fill-rule="evenodd" fill-opacity="1"/><path d="M388 2244C388 2244 388 2243 389 2243 388 2243 388 2243 388 2244L388 2244Z" fill="#000000" fill-rule="evenodd" fill-opacity="1"/><path d="M387 2236.27C387 2236.27 387 2236.72 387.458 2236.72L387.458 2237.18C387.458 2237.18 387.917 2237.63 387.917 2237.63L388.375 2238.08 392.499 2239.45 619.792 2321.55 621.625 2322C620.251 2321.55 619.334 2319.73 619.792 2318.37 620.251 2317.01 621.625 2316.1 623 2316.56 623 2316.56 623 2316.56 623 2316.56L621.625 2316.1 395.249 2234 390.666 2232.19C389.75 2231.73 388.833 2232.19 387.917 2232.64L387.458 2233.1C387.458 2233.1 387.458 2233.55 387 2233.55 387 2233.55 387 2234 387 2234L387 2234.46C387.458 2235.36 387 2235.82 387 2236.27Z" fill="#000000" fill-rule="evenodd" fill-opacity="1"/><path d="M1374 2004.78 1375.36 2005.22 1378.99 2006.56C1379.44 2006.56 1379.89 2007 1379.89 2007L1394.85 1995.44 1395.75 1994.56 1396.21 1994.11 1396.66 1993.67C1397.11 1992.78 1397.11 1991.89 1396.66 1991.44 1396.21 1992.33 1395.3 1992.78 1394.39 1992.78 1393.49 1992.78 1392.13 1992.33 1391.67 1991L1390.77 1991.89 1374 2004.78Z" fill="#000000" fill-rule="evenodd" fill-opacity="1"/><path d="M1376.73 2008.68C1376.27 2010.03 1374.87 2010.92 1373 2010.47L1373 2010.47 1376.73 2011.81C1377.67 2012.26 1378.6 2011.81 1379.53 2011.37L1380 2010.92C1380 2010.92 1380 2010.47 1380 2010.47 1380 2010.47 1380 2010.47 1380 2010.03 1380 2010.03 1380 2009.58 1380 2009.58 1380 2009.58 1380 2009.13 1380 2009.13L1380 2008.68C1380 2008.68 1380 2008.24 1379.53 2008.24L1379.07 2007.79C1378.6 2007.34 1378.6 2007.34 1378.13 2007.34L1374.4 2006C1376.27 2006 1376.73 2007.34 1376.73 2008.68Z" fill="#000000" fill-rule="evenodd" fill-opacity="1"/><path d="M901 1406.97 562.662 1311 559 1313.29 559 1315.57 898.711 1412 898.711 1410.17C898.711 1410.17 898.711 1410.17 898.711 1409.72 898.711 1409.72 898.711 1409.26 898.711 1409.26 898.711 1409.26 898.711 1408.8 898.711 1408.8 898.711 1408.8 898.711 1408.34 899.169 1408.34L899.627 1407.89 900.085 1407.89 901 1406.97Z" fill="#000000" fill-rule="evenodd" fill-opacity="1"/><path d="M1332 2255.2C1332 2255.2 1332 2255.65 1332 2255.65 1332 2255.65 1332 2255.65 1332 2256.1L1332 2256.1C1332 2256.1 1332 2256.55 1332 2256.55L1332 2257 1371 2225.05 1369.64 2224.6 1369.19 2224.15 1368.73 2224.15 1368.28 2223.7 1367.83 2223.25C1367.83 2223.25 1367.83 2222.8 1367.83 2222.8 1367.83 2222.8 1367.83 2222.35 1367.83 2222.35L1367.83 2221 1332.91 2249.35 1332.91 2254.75 1332 2255.2Z" fill="#000000" fill-rule="evenodd" fill-opacity="1"/><path d="M1298.45 1235.31 1298.45 1235.31 1298.91 1235.31C1298.91 1235.31 1299.36 1235.31 1299.36 1235.77 1299.36 1235.77 1299.82 1235.77 1299.82 1236.23L1300.27 1236.69 1300.27 1237.15C1300.27 1237.15 1300.27 1237.62 1300.27 1237.62L1300.27 1239 1338 1212.69 1338 1209.92 1334.36 1209 1298 1234.85 1298.45 1235.31Z" fill="#000000" fill-rule="evenodd" fill-opacity="1"/><path d="M1371.69 2222.39C1371.69 2223.77 1370.77 2225.16 1368.92 2225.16 1368.92 2225.16 1368.92 2225.16 1368.92 2225.16 1368.46 2225.16 1368.46 2225.16 1368 2225.16L1368 2225.16 1369.38 2225.62 1413.69 2240.42 1418.31 2241.81C1419.23 2242.27 1420.15 2241.81 1421.08 2241.35 1421.08 2241.35 1421.54 2240.88 1421.54 2240.88 1421.54 2240.88 1421.54 2240.42 1422 2240.42L1422 2239.96C1422 2239.96 1422 2239.5 1422 2239.5 1422 2239.5 1422 2239.03 1422 2239.03L1422 2238.57 1421.54 2238.11 1421.08 2237.65 1420.62 2237.18 1420.15 2237.18 1418.77 2236.72 1371.69 2221 1371.69 2222.39Z" fill="#000000" fill-rule="evenodd" fill-opacity="1"/><path d="M1025 53.0013 1025 53.0013C1023.67 50.7485 1023.67 53.0013 1025 53.0013Z" fill="#000000" fill-rule="evenodd" fill-opacity="1"/><path d="M806.748 14.8261C807.206 16.1957 806.748 17.5653 805.374 18.4784 805.374 18.4784 805.374 18.4784 805.374 18.4784L804.458 18.4784 1012.84 55 1020.17 51.348 1020.63 51.348 1021.08 51.348 1021.54 51.348 1022 51.348 804.458 13.0001 804 13.0001C805.832 13.4565 806.29 13.9132 806.748 14.8261Z" fill="#000000" fill-rule="evenodd" fill-opacity="1"/><path d="M618.169 259.175 618.169 259.175C618.169 258.719 618.169 258.719 618.169 258.262 618.169 258.262 618.169 258.262 618.169 257.806 618.169 257.806 618.169 257.35 618.627 257.35L618.627 256.893 619.085 256.437 620 255.981 408.493 214 403 216.738 403 218.563 618.169 261 618.169 259.175Z" fill="#000000" fill-rule="evenodd" fill-opacity="1"/><path d="M620 256.333 620 256.333C620 256.333 620.458 255.875 620.916 255.875 622.288 255.875 623.661 256.792 623.661 258.167 623.661 258.167 623.661 258.167 623.661 258.167L623.661 260 1018.63 57.875 1018.63 53.7499C1018.63 52.8331 1019.08 51.9167 1020 50.9999L1012.68 55.125 620.916 255.875 620 256.333Z" fill="#000000" fill-rule="evenodd" fill-opacity="1"/><path d="M524.167 1743.78C525.111 1743.78 526.056 1744.24 526.528 1745.16 527 1745.62 527 1746.08 527 1747 527 1747 527 1747 527 1746.54L527 1746.54 527 1744.7 512.834 1577 511.417 1577.92 510 1578.84 524.167 1743.78Z" fill="#000000" fill-rule="evenodd" fill-opacity="1"/><path d="M641.458 514.594 839.957 558.415 841.791 558.881C843.166 559.347 844.542 558.415 845 556.55 845 556.084 845 556.084 845 555.618 845 555.618 845 555.152 845 555.152 845 555.152 845 554.686 845 554.686 845 554.686 845 554.22 844.542 554.22 844.542 554.22 844.083 553.753 844.083 553.753L843.625 553.753C843.625 553.753 843.166 553.753 843.166 553.753L842.25 553.753 641.917 509 641 509 641 510.865 641.458 514.594Z" fill="#000000" fill-rule="evenodd" fill-opacity="1"/><path d="M684.009 1228 685.37 1227.08 689 1224.79 640.899 514.67 640.445 511C640.445 512.376 639.538 513.753 637.723 513.753 636.361 513.753 635 512.835 635 511.459 635 511.459 635 511.459 635 511.459L635 513.294 684.009 1228Z" fill="#000000" fill-rule="evenodd" fill-opacity="1"/><path d="M618 257.464C618 257.464 618 257.464 618 257.464 618 257.922 618 258.381 618 258.839L618 258.839 618 261.129 635.02 507.587 635.48 511.252C635.48 512.626 636.86 514 638.24 514 638.24 514 638.24 514 638.24 514 639.62 514 641 512.626 641 511.252L641 508.503 623.98 260.213 623.98 258.381C623.98 257.006 622.6 255.632 621.22 256.09 621.22 256.09 621.22 256.09 621.22 256.09 620.76 256.09 620.3 256.09 619.84 256.548L619.38 257.006C618.46 257.006 618.46 257.006 618 257.464Z" fill="#000000" fill-rule="evenodd" fill-opacity="1"/><path d="M1609.08 2305.67 1609.08 2305.67 1608.63 2305.21 1608.17 2305.21 1607.71 2304.75C1607.71 2304.75 1607.71 2304.29 1607.25 2304.29 1607.25 2304.29 1607.25 2303.83 1607.25 2303.83 1607.25 2303.83 1607.25 2303.38 1607.25 2303.38L1607.25 2302 1408 2474 1415.79 2474 1610 2306.59 1609.08 2305.67Z" fill="#000000" fill-rule="evenodd" fill-opacity="1"/><path d="M2038 2449.94 2035.24 2449 2009 2474 2016.83 2474 2037.54 2454.19Z" fill="#000000" fill-rule="evenodd" fill-opacity="1"/><path d="M1058.86 2369 1235 2226.13 1233.63 2225.67 1233.17 2225.22 1232.71 2225.22C1232.71 2225.22 1232.71 2225.22 1232.26 2224.76 1232.26 2224.76 1231.8 2224.3 1231.8 2224.3 1231.8 2224.3 1231.8 2224.3 1231.8 2223.84 1231.8 2223.84 1231.8 2223.38 1231.8 2223.38L1231.8 2222 1052 2368.08 1052.46 2368.08 1052.92 2367.62C1053.37 2367.62 1053.37 2367.16 1053.83 2367.16L1054.29 2367.16C1054.74 2367.16 1054.74 2367.16 1055.2 2367.16L1058.86 2369Z" fill="#000000" fill-rule="evenodd" fill-opacity="1"/><path d="M1194.08 1211.84C1194.08 1211.84 1194.08 1211.84 1194.08 1211.84L1194.08 1211.84 1194.54 1210.92 1194.54 1210.46 1195 1210 901.374 1407.87 900.458 1408.79 900 1408.79C900.458 1408.33 900.916 1408.33 901.832 1408.33 903.206 1408.33 904.581 1409.25 904.581 1410.62L904.581 1412 1194.08 1216.89 1194.08 1211.84C1194.08 1211.84 1194.08 1211.84 1194.08 1211.84Z" fill="#000000" fill-rule="evenodd" fill-opacity="1"/><path d="M904.493 1410.38C904.493 1409.01 903.12 1407.63 901.746 1408.09 901.288 1408.09 900.373 1408.55 899.916 1408.55L899.458 1409.01C899.458 1409.01 899.458 1409.47 899 1409.47 899 1409.47 899 1409.92 899 1409.92 899 1409.92 899 1410.38 899 1410.38 899 1410.38 899 1410.38 899 1410.84L899 1412.67 958.507 2474 964 2474 904.493 1412.22 904.493 1410.38Z" fill="#000000" fill-rule="evenodd" fill-opacity="1"/><path d="M1295.31 1238.18C1295.31 1236.81 1296.23 1235.44 1298.08 1235.44 1298.08 1235.44 1298.08 1235.44 1298.08 1235.44 1298.54 1235.44 1298.54 1235.44 1299 1235.44L1299 1235.44 1297.62 1234.99 1197.46 1209 1197 1209C1198.38 1209 1199.31 1210.37 1199.31 1211.28L1199.31 1214.93 1295.31 1240 1295.31 1238.18Z" fill="#000000" fill-rule="evenodd" fill-opacity="1"/><path d="M1231.91 2223C1231.91 2222.54 1231.91 2222.54 1231.91 2222.08 1232.38 2220.71 1233.76 2219.79 1235.15 2220.25 1235.15 2220.25 1235.15 2220.25 1235.15 2220.25L1237 2220.71 1199.55 1214.96 1199.55 1211.29C1199.55 1209.92 1198.62 1209 1197.24 1209L1196.31 1209 1195.85 1209 1195.39 1209 1194.92 1209.46 1194.46 1209.92 1194.46 1210.38 1194 1210.83C1194 1210.83 1194 1211.29 1194 1211.29 1194 1211.29 1194 1211.75 1194 1211.75L1194 1216.79 1231.45 2222.08 1231.91 2223Z" fill="#000000" fill-rule="evenodd" fill-opacity="1"/><path d="M1295 1238.29 1295 1240.13 1326.38 2251.87 1330.08 2253.25C1330.08 2253.25 1330.54 2253.25 1330.54 2253.71L1331 2254.17 1331 2254.62C1331 2254.62 1331 2255.08 1331 2255.08 1331 2255.08 1331 2255.54 1331 2255.54 1331 2255.54 1331 2256 1331 2256L1331 2250.5 1299.62 1239.67 1299.62 1238.29C1299.62 1238.29 1299.62 1237.83 1299.62 1237.83L1299.62 1237.38 1299.15 1236.92C1299.15 1236.92 1299.15 1236.46 1298.69 1236.46 1298.69 1236.46 1298.23 1236.46 1298.23 1236L1297.77 1236C1297.31 1236 1297.31 1236 1296.85 1236 1295.92 1236 1295 1237.38 1295 1238.29Z" fill="#000000" fill-rule="evenodd" fill-opacity="1"/><path d="M1331 2254C1332.33 2254 1332.33 2256.25 1331 2254L1331 2254Z" fill="#000000" fill-rule="evenodd" fill-opacity="1"/><path d="M1332 2256 1331 2257C1331 2257 1331 2257 1332 2256Z" fill="#000000" fill-rule="evenodd" fill-opacity="1"/><path d="M1331 2256.92 1331 2256.92C1330.08 2257.38 1329.17 2257.83 1328.25 2257.38L1323.66 2256 1148 2400.5 1149.38 2400.95C1150.75 2401.41 1151.67 2402.79 1151.21 2404.62 1151.21 2404.62 1151.21 2404.62 1151.21 2404.62 1151.21 2405.08 1150.75 2405.54 1150.29 2406L1150.75 2406 1154.42 2402.79 1331 2256.92Z" fill="#000000" fill-rule="evenodd" fill-opacity="1"/><path d="M1212.54 988.459 1212.54 988.459C1212.54 988.919 1212.54 989.378 1212.08 989.378 1212.08 989.378 1212.08 989.837 1211.62 989.837L1211.15 990.296 1207 993.052 1213.46 1172.62 1217.15 1173.54 1219 1174 1212.08 988C1212.54 988 1212.54 988.459 1212.54 988.459Z" fill="#000000" fill-rule="evenodd" fill-opacity="1"/><path d="M1002 1119.08C1002.46 1118.62 1003.38 1118.16 1004.29 1118.62L1010.25 1120 1206.42 993.137 1210.54 990.379 1211 989.919C1210.54 990.379 1209.63 990.838 1208.71 990.379L1202.75 989 1002 1119.08Z" fill="#000000" fill-rule="evenodd" fill-opacity="1"/><path d="M1366 2004.38 1366 2004.38 1366 2008.06 1368.26 2008.99 1371.87 2010.37 1373.22 2010.83C1374.57 2011.29 1375.93 2010.83 1376.83 2009.45 1377.28 2008.06 1376.83 2006.68 1375.48 2005.76 1375.48 2005.76 1375.03 2005.76 1375.03 2005.76L1373.67 2005.3 1366 2003 1366 2004.38Z" fill="#000000" fill-rule="evenodd" fill-opacity="1"/><path d="M1327.81 2257.81C1328.72 2258.27 1329.63 2257.81 1330.54 2257.36L1330.54 2257.36 1330.54 2256.91 1331 2256.45C1331 2256.45 1331 2256.45 1331 2256 1331 2256 1331 2255.55 1331 2255.55 1331 2255.55 1331 2255.09 1331 2255.09 1331 2255.09 1331 2254.64 1331 2254.64 1331 2254.64 1331 2254.19 1331 2254.19 1331 2254.19 1331 2253.74 1330.54 2253.74L1330.09 2253.28C1330.09 2253.28 1329.63 2253.28 1329.63 2252.83L1325.98 2251.47 1237.02 2221.57 1235.19 2221.12C1233.82 2220.66 1232.46 2221.57 1232 2222.93 1232 2222.93 1232 2222.93 1232 2222.93 1232 2223.38 1232 2223.38 1232 2223.84 1232 2223.84 1232 2224.29 1232 2224.29 1232 2224.29 1232 2224.29 1232 2224.74 1232 2224.74 1232.46 2225.2 1232.46 2225.2 1232.46 2225.2 1232.46 2225.2 1232.91 2225.65L1233.37 2225.65 1233.82 2226.1 1235.19 2226.55 1323.7 2256.45 1327.81 2257.81Z" fill="#000000" fill-rule="evenodd" fill-opacity="1"/><path d="M1148.56 2407 1149.02 2407C1149.02 2407 1149.47 2407 1149.47 2407 1149.47 2407 1149.93 2407 1149.93 2406.54 1150.38 2406.07 1150.84 2405.6 1150.84 2405.14 1151.29 2403.74 1150.84 2402.35 1149.02 2401.42 1149.02 2401.42 1149.02 2401.42 1149.02 2401.42L1147.65 2400.95 1058.46 2368.4 1053.91 2367C1053.45 2367 1053.45 2367 1053 2367 1054.37 2367 1055.28 2368.4 1055.73 2369.33L1056.19 2373.51 1147.2 2406.54 1147.65 2406.54 1148.56 2407Z" fill="#000000" fill-rule="evenodd" fill-opacity="1"/><path d="M20.2041 1455.54 22 1456 0 1255 0 1304.22 16.1635 1454.16Z" fill="#000000" fill-rule="evenodd" fill-opacity="1"/><path d="M634.835 2335.57C634.377 2335.57 633.918 2335.57 633 2335.11L633.459 2335.57 634.835 2335.57 865.658 2420.09 868.411 2421 868.411 2419.17C868.411 2417.8 869.329 2416.43 871.165 2416.43 871.165 2416.43 871.165 2416.43 871.165 2416.43 871.623 2416.43 872.083 2416.43 873 2416.89L872.541 2416.89 637.13 2331 637.13 2332.83C637.13 2334.2 636.212 2335.57 634.835 2335.57Z" fill="#000000" fill-rule="evenodd" fill-opacity="1"/><path d="M873 2418 873 2418C873 2418 874 2419 874 2419L873 2418Z" fill="#000000" fill-rule="evenodd" fill-opacity="1"/><path d="M1055.74 2369.31C1055.74 2367.92 1054.3 2367 1052.87 2367L1052.39 2367C1051.91 2367 1051.91 2367 1051.43 2367.46L1050.96 2367.92C1050.96 2367.92 1050.48 2368.38 1050.48 2368.38 1050.48 2368.38 1050.48 2368.38 1050.48 2368.85L1050 2369.31C1050 2369.31 1050 2369.31 1050 2369.77 1050 2369.77 1050 2370.23 1050 2370.23L1055.26 2475 1061 2475 1055.74 2374.38 1055.74 2369.31Z" fill="#000000" fill-rule="evenodd" fill-opacity="1"/><path d="M873.684 2419.28 873.684 2419.28C873.684 2418.82 873.684 2418.82 873.684 2418.37L873.684 2417.91C873.684 2417.91 873.21 2417.46 873.21 2417.46L872.737 2417.46C872.263 2417 871.789 2417 870.842 2417 869.421 2417 868 2418.37 868 2419.74 868 2419.74 868 2419.74 868 2419.74L868 2421.56 868 2425.21 871.316 2474 877 2474 873.684 2419.74C873.684 2419.74 873.684 2419.28 873.684 2419.28Z" fill="#000000" fill-rule="evenodd" fill-opacity="1"/><path d="M2042 2446 2042 2446 2043 2447 2042 2446Z" fill="#000000" fill-rule="evenodd" fill-opacity="1"/><path d="M2043 2448 2043 2448C2043 2448.46 2043 2448.46 2043 2448.91 2042.54 2450.28 2041.15 2451.19 2039.31 2450.74L2037.46 2450.28 2037.46 2454.84 2037 2474 2042.54 2474 2043 2448Z" fill="#000000" fill-rule="evenodd" fill-opacity="1"/><path d="M294.785 2270.32C295.245 2268.94 296.622 2268.02 298 2268.48 298 2268.48 298 2268.48 298 2268.48L293.867 2267.1 157 2216 157 2217.84 157.459 2222.44 296.163 2274C294.785 2273.54 294.326 2272.16 294.785 2270.32 294.785 2270.32 294.785 2270.32 294.785 2270.32Z" fill="#000000" fill-rule="evenodd" fill-opacity="1"/><path d="M295.168 2270.23C294.719 2271.57 295.168 2272.91 296.515 2273.35 296.515 2273.35 296.515 2273.35 296.515 2273.35L314.92 2280.05 318.062 2281.39 319.409 2281.83C320.756 2282.28 322.103 2281.83 323 2280.49 323 2280.49 323 2280.49 323 2280.49 323 2280.05 323 2279.6 323 2278.71 323 2278.71 323 2278.26 323 2278.26 323 2278.26 323 2277.82 322.551 2277.82L322.103 2277.37 321.654 2276.92 299.657 2268.45 298.31 2268C297.413 2268.45 295.617 2268.89 295.168 2270.23 295.168 2270.23 295.168 2270.23 295.168 2270.23Z" fill="#000000" fill-rule="evenodd" fill-opacity="1"/><path d="M1610.33 2292.25C1611.67 2292.25 1613 2293.62 1613 2295 1613 2295 1613 2295 1613 2295L1613 2293.17 1610.33 2084.13 1610.33 2082.75C1610.33 2082.75 1610.33 2082.29 1610.33 2082.29 1610.33 2082.29 1610.33 2081.83 1610.33 2081.83L1609.89 2081.38 1609.44 2080.92 1609 2080.46 1608.56 2080 1608.11 2080C1608.11 2080 1607.67 2080 1607.67 2080L1607.22 2080 1606.78 2080 1606.33 2080C1605.44 2080.46 1605 2081.38 1605 2082.29L1605 2087.79 1607.22 2294.08C1607.67 2293.62 1609 2292.25 1610.33 2292.25Z" fill="#000000" fill-rule="evenodd" fill-opacity="1"/><path d="M1611.33 2300.73 1613 2301.18 1613 2294.36C1613 2293 1611.75 2291.63 1610.08 2292.09 1608.83 2292.09 1608 2293 1608 2294.36L1608 2301.64 1608 2303C1608 2302.55 1608 2302.55 1608 2302.09 1608.42 2300.73 1609.67 2299.82 1611.33 2300.73 1611.33 2300.73 1611.33 2300.73 1611.33 2300.73Z" fill="#000000" fill-rule="evenodd" fill-opacity="1"/><path d="M519.182 1748.3 519.182 1746 518.273 1746.46 504.636 1755.65 501 1758.41C502.364 1757.49 503.727 1757.95 504.636 1759.32 505.545 1760.7 505.091 1762.08 503.727 1763L521 1751.05C520.091 1750.59 519.637 1749.68 519.182 1748.3Z" fill="#000000" fill-rule="evenodd" fill-opacity="1"/><path d="M524 1743 524.5 1748.08C524.5 1748.54 524.5 1748.54 524.5 1749L525 1749 526 1748.08 526.5 1747.62C526.5 1747.62 526.5 1747.15 527 1747.15L527 1746.23C527 1746.23 527 1745.77 527 1745.77 527 1745.31 527 1744.85 526.5 1743.92 526 1743.46 525 1743 524 1743Z" fill="#000000" fill-rule="evenodd" fill-opacity="1"/><path d="M503.601 1763.02C504.982 1762.11 505.441 1760.29 504.522 1759.38 503.601 1758.02 501.761 1757.56 500.841 1758.47L500.841 1758.47 499.462 1759.38 453 1790.73 454.38 1791.18 459.44 1793 503.601 1763.02Z" fill="#000000" fill-rule="evenodd" fill-opacity="1"/><path d="M1387.75 1765.21C1386.38 1765.21 1385 1763.84 1385 1762.46 1385 1762.46 1385 1762.46 1385 1762.46L1385 1767.97 1390.5 1986.03 1390.5 1989.7C1390.5 1989.7 1390.5 1990.16 1390.5 1990.16 1390.96 1991.08 1391.88 1992 1393.25 1992 1394.17 1992 1395.08 1991.54 1395.54 1990.62 1395.54 1990.16 1396 1989.7 1396 1989.25L1396 1986.95 1390.04 1762C1390.04 1763.84 1389.13 1765.21 1387.75 1765.21Z" fill="#000000" fill-rule="evenodd" fill-opacity="1"/><path d="M1385.5 1760.87 1385.5 1762.25C1385.5 1763.63 1386.88 1765 1388.25 1765 1388.25 1765 1388.25 1765 1388.25 1765 1389.63 1765 1391 1763.63 1391 1762.25L1385.5 1552.75C1385.5 1551.38 1384.13 1550 1382.75 1550 1381.38 1550 1380 1551.38 1380 1552.75 1380 1552.75 1380 1552.75 1380 1552.75L1380 1554.58 1385.5 1760.87Z" fill="#000000" fill-rule="evenodd" fill-opacity="1"/><path d="M2193.21 1968.77C2192.75 1970.15 2191.38 1971.08 2190 1970.62 2190 1970.62 2190 1970.62 2190 1970.62L2329.04 2012.62 2333.62 2014C2332.25 2013.54 2331.33 2012.15 2331.79 2010.77 2332.25 2009.39 2333.62 2008.46 2335 2008.92L2193.21 1966.46 2191.38 1966C2192.75 1966 2193.67 1967.38 2193.21 1968.77Z" fill="#000000" fill-rule="evenodd" fill-opacity="1"/><path d="M338.855 2457C340.247 2457.46 341.175 2458.83 340.711 2460.2 340.247 2461.57 338.855 2462.49 337.464 2462.03 337.464 2462.03 337 2462.03 337 2461.57L366.691 2473 382 2473 340.247 2457 338.855 2457Z" fill="#000000" fill-rule="evenodd" fill-opacity="1"/><path d="M177 2395 177 2396.83 177.459 2401.42 337.157 2462.83C338.533 2463.29 340.369 2462.83 340.828 2461.45 341.287 2460.08 340.828 2458.25 339.451 2457.79L335.321 2456.41 177 2395Z" fill="#000000" fill-rule="evenodd" fill-opacity="1"/><path d="M77.1175 479.757C76.6567 481.135 77.5779 482.514 79.42 482.973L80.3412 482.973 130.079 494C128.697 493.541 127.776 492.162 127.776 490.784 128.237 489.405 129.618 488.487 131 488.487 131 488.487 131 488.487 131 488.487L127.316 487.568 80.3412 477 79.42 477 78.9595 477C78.0383 477.919 77.5779 478.838 77.1175 479.757Z" fill="#000000" fill-rule="evenodd" fill-opacity="1"/><path d="M270 520.328 133.187 489.579 131.344 489.119C129.962 488.661 128.58 489.579 128.12 490.955 127.659 492.332 128.58 493.709 129.962 494.168 129.962 494.168 129.962 494.168 129.962 494.168L262.63 524 269.079 520.328 270 520.328Z" fill="#000000" fill-rule="evenodd" fill-opacity="1"/><path d="M2332.12 2009.99C2331.66 2011.39 2332.58 2012.79 2333.94 2013.26L2335.31 2013.73 2368.63 2024C2367.26 2023.53 2366.35 2022.13 2366.81 2020.73 2366.81 2020.73 2366.81 2020.73 2366.81 2020.73 2367.26 2019.33 2368.63 2018.4 2370 2018.86 2370 2018.86 2370 2018.86 2370 2018.86L2335.31 2008.12C2333.94 2007.65 2332.58 2008.59 2332.12 2009.99Z" fill="#000000" fill-rule="evenodd" fill-opacity="1"/><path d="M512.674 1574.33C513.593 1575.7 513.134 1577.08 511.756 1578L513.134 1577.08 571 1538.97 570.541 1534.38 570.541 1533 509 1573.87C510.378 1572.49 511.756 1572.95 512.674 1574.33Z" fill="#000000" fill-rule="evenodd" fill-opacity="1"/><path d="M505.881 1581.17 505.438 1576.59C505.438 1575.22 506.325 1573.85 507.656 1573.85 508.988 1573.85 510.319 1574.76 510.319 1576.14L510.319 1577.97 511.651 1577.05C512.982 1576.14 513.426 1574.76 512.538 1573.39 511.651 1572.02 510.319 1571.56 508.988 1572.48L503.663 1576.14 501 1577.97 502.331 1578.42C503.663 1578.88 504.55 1580.25 504.106 1581.63 504.106 1581.63 504.106 1581.63 504.106 1581.63 504.106 1582.09 503.663 1583 502.775 1583L505.881 1581.17Z" fill="#000000" fill-rule="evenodd" fill-opacity="1"/><path d="M260 527.836C260 527.836 260 528.291 260 527.836L260 527.836 260.478 528.747C260.478 528.747 260.957 529.203 260.957 529.203 260.957 529.203 261.435 529.203 261.435 529.659L261.913 529.659C262.391 530.114 263.348 530.114 263.826 529.659L270.522 526.013 271 526.013C269.565 526.924 268.131 526.013 267.174 524.646 266.217 523.279 267.174 521.912 268.609 521L261.913 524.646 260.957 524.646 260.478 525.102C260.478 525.102 260.478 525.102 260 525.557 260 525.557 260 525.557 260 526.013 260 526.013 260 526.469 260 526.469 260 526.469 260 526.924 260 526.924 260 526.924 260 527.38 260 527.38 260 527.38 260 527.38 260 527.38 260 527.38 260 527.38 260 527.836Z" fill="#000000" fill-rule="evenodd" fill-opacity="1"/><path d="M1510 1462.25 1510 1457.21 1500.81 980.666 1500.81 977C1500.81 978.375 1499.84 979.749 1497.9 979.749 1497.9 979.749 1497.9 979.749 1497.9 979.749 1496.45 979.749 1495 978.375 1495 977 1495 977 1495 977 1495 977L1504.19 1462.25C1504.19 1462.25 1504.19 1462.25 1504.19 1462.71 1504.19 1462.71 1504.19 1463.17 1504.19 1463.17 1504.19 1463.17 1504.19 1463.63 1504.68 1463.63 1504.68 1464.08 1505.16 1464.08 1505.16 1464.54L1505.65 1465 1506.13 1465 1506.61 1465 1507.1 1465 1507.58 1465 1508.07 1465C1509.03 1464.08 1509.52 1463.17 1510 1462.25Z" fill="#000000" fill-rule="evenodd" fill-opacity="1"/><path d="M1497.29 980C1498.65 980 1500 978.625 1500 977.249 1500 977.249 1500 977.249 1500 977.249L1500 974.956 1482.41 0 1477 0 1494.59 977.249C1494.59 978.625 1495.94 980 1497.29 980 1497.29 980 1497.29 980 1497.29 980Z" fill="#000000" fill-rule="evenodd" fill-opacity="1"/><path d="M1119.75 401.752C1118.38 401.752 1117 400.835 1117 399L1117 403.586 1139.49 968.624 1143.16 969.542 1145 970 1122.05 399C1121.59 400.376 1120.67 401.752 1119.75 401.752Z" fill="#000000" fill-rule="evenodd" fill-opacity="1"/><path d="M2103.67 1121.84 2103.67 1124.13 2101 1261.87 2101 1263.25C2101 1264.62 2101.89 1266 2103.67 1266 2103.67 1266 2103.67 1266 2103.67 1266 2104.11 1266 2105 1265.54 2105.44 1265.54 2105.44 1265.54 2105.89 1265.08 2105.89 1265.08L2106.33 1264.62C2106.33 1264.62 2106.33 1264.16 2106.33 1264.16 2106.33 1264.16 2106.33 1263.7 2106.33 1263.7L2109 1122.75C2109 1122.75 2109 1122.75 2109 1122.3 2109 1122.3 2109 1121.84 2109 1121.84 2109 1121.84 2109 1121.38 2109 1121.38 2109 1121.38 2109 1120.92 2108.56 1120.92 2108.56 1120.92 2108.56 1120.46 2108.11 1120.46L2107.67 1120 2107.22 1120C2106.78 1120 2106.78 1120 2106.33 1120 2105 1120 2103.67 1120.46 2103.67 1121.84Z" fill="#000000" fill-rule="evenodd" fill-opacity="1"/><path d="M176.407 2441.16C176.407 2441.62 176.857 2441.62 176.407 2441.16 176.857 2441.62 176.857 2442.08 176.857 2442.08 176.857 2442.08 177.308 2442.54 177.308 2442.54 177.758 2443 178.209 2443 178.659 2443 180.011 2443 181.363 2441.62 180.912 2440.24 180.912 2440.24 180.912 2440.24 180.912 2440.24L180.912 2438.4 176.857 2401.6 176.407 2397C176.407 2398.38 175.505 2399.76 174.154 2399.76 174.154 2399.76 174.154 2399.76 174.154 2399.76 172.802 2399.76 171.45 2398.84 171 2397.46L175.505 2440.7C175.505 2440.7 175.505 2440.7 175.505 2441.16 176.407 2440.7 176.407 2441.16 176.407 2441.16Z" fill="#000000" fill-rule="evenodd" fill-opacity="1"/><path d="M1145.22 972.745C1144.76 974.149 1143.38 975.085 1142 974.617L1202.79 989.596 1208.78 991C1209.7 991 1210.62 991 1211.08 990.532 1211.08 990.532 1211.54 990.532 1211.54 990.064 1211.54 990.064 1212 989.596 1212 989.596L1212 989.128C1212 989.128 1212 988.66 1212 988.66L1212 988.192 1212 987.724C1212 987.724 1212 987.255 1212 987.255L1211.54 986.788 1211.08 986.319C1211.08 986.319 1210.62 986.319 1210.62 985.851L1145.68 969.468 1143.84 969C1144.76 970.404 1145.22 971.341 1145.22 972.745Z" fill="#000000" fill-rule="evenodd" fill-opacity="1"/><path d="M1004.21 1118.19C1003.29 1117.73 1002.38 1118.19 1001.92 1118.66L1001.46 1119.12 1001 1119.58C1001 1119.58 1001 1119.58 1001 1120.05 1001 1120.05 1001 1120.51 1001 1120.51 1001 1120.51 1001 1120.98 1001 1120.98 1001 1120.98 1001 1121.44 1001 1121.44 1001 1121.44 1001 1121.91 1001.46 1121.91 1001.46 1121.91 1001.46 1122.37 1001.92 1122.37 1001.92 1122.37 1001.92 1122.83 1002.38 1122.83L1002.83 1123.3 1003.29 1123.3 1215.62 1179C1214.25 1178.54 1213.33 1177.14 1213.79 1175.75 1213.79 1175.75 1213.79 1175.75 1213.79 1175.75 1214.25 1174.36 1215.62 1173.43 1217 1173.89L1213.33 1172.97 1010.17 1119.58 1004.21 1118.19Z" fill="#000000" fill-rule="evenodd" fill-opacity="1"/><path d="M1213.12 1175.22C1212.66 1176.62 1213.58 1178.01 1214.96 1178.48 1214.96 1178.48 1214.96 1178.48 1214.96 1178.48L1334.64 1210.07 1338.32 1211 1338.32 1209.14C1338.32 1207.75 1339.24 1206.35 1341.08 1206.35 1341.08 1206.35 1341.08 1206.35 1341.08 1206.35 1341.54 1206.35 1341.54 1206.35 1342 1206.35L1218.64 1173.83 1216.8 1173.36C1214.96 1172.44 1213.58 1173.36 1213.12 1175.22 1213.12 1175.22 1213.12 1175.22 1213.12 1175.22Z" fill="#000000" fill-rule="evenodd" fill-opacity="1"/><path d="M492.669 169.332C493.128 170.708 492.669 172.083 491.293 173L491.293 173 804.535 18.5016 805.452 18.0429C806.828 17.5846 807.287 15.7508 806.828 14.3755 806.828 14.3755 806.828 14.3755 806.828 14.3755 806.37 13.4584 805.452 13.0001 804.535 13.0001L804.076 13.0001C804.076 13.0001 803.618 13.0001 803.618 13.0001L803.159 13.0001 492.669 166.582 489 168.415C490.376 167.499 492.211 167.957 492.669 169.332 492.669 169.332 492.669 169.332 492.669 169.332Z" fill="#000000" fill-rule="evenodd" fill-opacity="1"/><path d="M402.662 215.175 402.662 217 408.154 214.262 491.455 173.191C492.828 172.735 493.286 170.909 492.828 169.54 492.371 168.171 490.54 167.715 489.167 168.171 489.167 168.171 489.167 168.171 489.167 168.171L487.336 169.084 399 212.893C399.458 212.893 399.458 212.437 399.916 212.437 401.288 212.437 402.662 213.806 402.662 215.175Z" fill="#000000" fill-rule="evenodd" fill-opacity="1"/><path d="M398 213 398 213C397 213.667 397 213.667 397 214.334 397 214.334 397 215 397 215 398 213.667 398 213.667 398 213Z" fill="#000000" fill-rule="evenodd" fill-opacity="1"/><path d="M398.001 215C398.001 215 398.001 215.5 398.001 215 398.001 215.5 398.001 216 398.001 216 396.666 215.5 396.666 215 398.001 215L398.001 215Z" fill="#000000" fill-rule="evenodd" fill-opacity="1"/><path d="M1029.92 298.629C1030.38 299.543 1031.31 300 1032.23 300 1033.62 300 1035 298.629 1035 297.257L1034.54 287.2 1034.54 284C1034.54 285.371 1033.15 286.743 1031.77 286.743 1030.38 286.743 1029 285.371 1029 284L1029.46 297.257C1029.46 297.715 1029.92 298.172 1029.92 298.629Z" fill="#000000" fill-rule="evenodd" fill-opacity="1"/><path d="M1021.35 50.4589 1021.35 50.4589 1020.88 50.4589 1020.41 50.4589C1019.47 50.9183 1019 51.8363 1019 53.2138L1019 57.3462 1029.35 283.245C1029.35 284.623 1030.76 286 1032.18 286 1033.59 286 1035 284.623 1035 283.245L1035 280.95 1024.65 52.7548C1024.65 52.7548 1024.65 52.2957 1024.65 52.2957 1024.65 52.2957 1024.65 52.2957 1024.65 51.8363 1024.65 51.8363 1024.65 51.8363 1024.65 51.3773L1024.18 50.9183 1024.18 50.4589C1024.18 50.4589 1023.71 50.4589 1023.71 49.9998L1023.24 49.9998C1023.24 49.9998 1022.76 49.9998 1022.76 49.9998L1021.35 50.4589Z" fill="#000000" fill-rule="evenodd" fill-opacity="1"/><path d="M420.667 467C422.067 467 423 466.064 423 464.66 423 464.192 423 464.192 423 463.724L421.6 445C421.6 446.404 420.2 447.809 418.8 447.809 417.4 447.809 416.467 446.872 416 445.468L416.467 449.681 417.867 464.192C417.4 465.596 418.8 467 420.667 467 420.2 467 420.2 467 420.667 467Z" fill="#000000" fill-rule="evenodd" fill-opacity="1"/><path d="M418.619 448C419.994 448 421.369 446.629 420.911 445.258 420.911 445.258 420.911 445.258 420.911 445.258L402.582 219.031 402.582 217.203 402.582 215.375C402.582 214.004 401.208 212.633 399.833 213.09 399.833 213.09 399.833 213.09 399.833 213.09 399.375 213.09 398.917 213.09 398.917 213.547 398.458 214.004 398.458 214.461 398 214.918 398 215.375 398 215.375 398 215.832L416.329 443.887 416.329 445.715C416.329 446.629 417.245 448 418.619 448Z" fill="#000000" fill-rule="evenodd" fill-opacity="1"/><path d="M1627.32 2308.95C1627.78 2307.65 1629.16 2306.77 1631 2307.21L1627.32 2305.9 1613.06 2301.55 1611.22 2301.11C1609.84 2300.68 1608.46 2301.55 1608 2302.86 1608 2302.86 1608 2302.86 1608 2302.86 1608 2303.29 1608 2303.29 1608 2303.73 1608 2303.73 1608 2304.16 1608 2304.16 1608 2304.16 1608 2304.6 1608 2304.6 1608 2304.6 1608 2305.03 1608.46 2305.03L1608.92 2305.47 1609.38 2305.47 1609.84 2305.9 1611.22 2306.34 1629.62 2312C1627.78 2311.56 1626.86 2310.26 1627.32 2308.95Z" fill="#000000" fill-rule="evenodd" fill-opacity="1"/><path d="M1627.12 2308.75C1626.66 2310.13 1627.58 2311.51 1628.95 2312.43L2035.21 2449.5 2037.5 2450.42 2039.33 2450.88C2040.71 2451.34 2042.08 2450.42 2043 2449.04 2043 2448.58 2043 2448.58 2043 2448.12 2043 2448.12 2043 2447.66 2043 2447.66 2043 2447.66 2043 2447.2 2043 2447.2L2042.54 2446.74 2042.08 2446.28 2041.62 2446.28 2041.17 2445.82 1632.16 2307.83 1630.33 2307.37C1629.41 2306.45 1627.58 2307.37 1627.12 2308.75Z" fill="#000000" fill-rule="evenodd" fill-opacity="1"/><path d="M99.4599 1681.46 379.16 1772C377.78 1771.55 376.86 1770.18 377.32 1768.82 377.78 1767.45 379.16 1766.54 381 1767L379.62 1766.54 99 1676 99 1677.82 99.4599 1681.46Z" fill="#000000" fill-rule="evenodd" fill-opacity="1"/><path d="M2100.8 1941.4C2101.26 1940.05 2102.63 1939.14 2104 1939.59 2104 1939.59 2104 1939.59 2104 1939.59L2100.8 1938.69 2013.89 1913.47 2009.32 1912.12C2007.95 1911.67 2006.58 1912.57 2006.12 1913.92 2006.12 1913.92 2006.12 1913.92 2006.12 1913.92 2005.66 1915.27 2006.58 1916.62 2007.95 1917.07 2007.95 1917.07 2007.95 1917.07 2007.95 1917.07L2102.63 1945C2101.26 1944.55 2100.34 1943.2 2100.8 1941.4 2100.8 1941.4 2100.8 1941.4 2100.8 1941.4Z" fill="#000000" fill-rule="evenodd" fill-opacity="1"/><path d="M2104.31 1940.12C2102.95 1939.66 2101.58 1940.58 2101.12 1941.96 2100.66 1943.33 2101.58 1944.71 2102.95 1945.17L2189.69 1970.88C2191.06 1971.34 2192.43 1970.42 2192.88 1969.04 2193.34 1967.67 2192.43 1966.29 2191.06 1965.83L2187.86 1964.91 2106.6 1940.58 2104.31 1940.12Z" fill="#000000" fill-rule="evenodd" fill-opacity="1"/><path d="M2366.12 2020.93C2365.66 2022.28 2366.59 2023.64 2367.98 2024.09 2367.98 2024.09 2367.98 2024.09 2367.98 2024.09L2419.6 2039C2418.21 2038.55 2417.28 2037.19 2417.74 2035.84 2418.21 2034.48 2419.6 2033.58 2421 2034.03L2369.38 2019.12C2367.98 2018.67 2366.59 2019.57 2366.12 2020.93 2366.12 2020.93 2366.12 2020.93 2366.12 2020.93Z" fill="#000000" fill-rule="evenodd" fill-opacity="1"/><path d="M2417.12 2035.87C2416.66 2037.27 2417.58 2038.67 2418.95 2039.14L2476.21 2056.42 2480.79 2057.82C2481.71 2058.28 2482.63 2057.82 2483.54 2056.88 2483.54 2056.88 2484 2056.42 2484 2056.42 2484 2056.42 2484 2055.95 2484 2055.95 2484 2055.95 2484 2055.95 2484 2055.48 2484 2055.02 2484 2055.02 2484 2055.02 2484 2055.02 2484 2054.55 2484 2054.55L2484 2054.08 2483.54 2053.61 2483.08 2053.15 2482.63 2052.68 2482.17 2052.68 2420.33 2034C2419.41 2034 2418.04 2034.47 2417.12 2035.87 2417.12 2035.87 2417.12 2035.87 2417.12 2035.87Z" fill="#000000" fill-rule="evenodd" fill-opacity="1"/><path d="M486.618 1579C485.236 1578.55 484.314 1577.19 484.775 1575.84 485.236 1574.48 486.618 1573.58 488 1574.03L488 1574.03 395.382 1546C396.765 1546.45 397.686 1547.81 397.225 1549.16 397.225 1549.16 397.225 1549.16 397.225 1549.16 396.765 1550.52 395.382 1551.42 394 1550.97 394 1550.97 394 1550.97 394 1550.97L397.686 1552.33 484.775 1578.55 486.618 1579Z" fill="#000000" fill-rule="evenodd" fill-opacity="1"/><path d="M484.122 1576.49C483.652 1577.82 484.593 1579.14 486.004 1579.58 486.004 1579.58 486.004 1579.58 486.004 1579.58L489.767 1580.91 500.585 1584 501.055 1584 501.526 1584 501.996 1584 502.467 1584C502.937 1583.56 503.407 1583.12 503.878 1582.68 504.348 1581.35 503.407 1580.02 501.996 1579.58 501.996 1579.58 501.996 1579.58 501.996 1579.58L500.585 1579.14 497.763 1578.26 486.944 1575.17C485.533 1574.72 484.593 1575.17 484.122 1576.49Z" fill="#000000" fill-rule="evenodd" fill-opacity="1"/><path d="M1116.6 399.241C1116.6 400.62 1117.95 402 1119.3 402 1120.65 402 1122 400.62 1122 399.241 1122 399.241 1122 399.241 1122 399.241L1118.4 299C1118.4 300.38 1117.05 301.759 1115.7 301.759 1114.35 301.759 1113 300.38 1113 299L1113 301.299 1116.6 397.402 1116.6 399.241Z" fill="#000000" fill-rule="evenodd" fill-opacity="1"/><path d="M1116.16 303C1117.58 303 1119 301.623 1119 300.245 1119 300.245 1119 300.245 1119 300.245L1106.68 0 1101 0 1113.32 297.032 1113.32 300.245C1112.84 301.623 1114.26 303 1116.16 303 1115.68 303 1116.16 303 1116.16 303Z" fill="#000000" fill-rule="evenodd" fill-opacity="1"/><path d="M174.804 2399C176.072 2399 177.34 2397.67 176.917 2396.33 176.917 2396.33 176.917 2396.33 176.917 2396.33L176.917 2394.56 176.072 2388.33 176.072 2387C176.495 2388.33 175.227 2389.67 173.959 2390.11 172.69 2390.56 171.422 2389.22 171 2387.89 171 2387.89 171 2387.44 171 2387.44L171.845 2396.33C172.268 2397.67 173.113 2399 174.804 2399 174.804 2399 174.804 2399 174.804 2399Z" fill="#000000" fill-rule="evenodd" fill-opacity="1"/><path d="M393.018 2243.29C393.018 2242.38 392.105 2241.46 391.193 2241L390.737 2241 390.281 2241 389.825 2241 389.369 2241 388.913 2241 388.456 2241.46C388.456 2241.46 388.456 2241.92 388.456 2241.92 388.456 2241.92 388.456 2242.38 388 2242.38 388 2242.38 388 2242.83 388 2242.83 388 2242.83 388 2243.29 388 2243.29L408.983 2473 414 2473 393.018 2246.96 393.018 2243.29Z" fill="#000000" fill-rule="evenodd" fill-opacity="1"/><path d="M685.332 1230.64C684.415 1229.27 684.873 1227.91 686.249 1227L684.873 1227.91 609.21 1275.18 606 1277.45C607.376 1277 608.752 1277.91 609.21 1279.27 609.668 1280.18 609.21 1281.55 608.293 1282L689 1231.55C688.083 1232 686.249 1231.55 685.332 1230.64Z" fill="#000000" fill-rule="evenodd" fill-opacity="1"/><path d="M605.498 1284.55 605.498 1284.55C605 1285 605 1285 605 1285L608.486 1282.73C609.98 1281.82 610.478 1280.45 609.482 1279.09 609.482 1279.09 609.482 1279.09 609.482 1279.09 608.486 1278.18 606.992 1277.72 605.996 1278.18L606.494 1282.73C606.494 1282.73 606.494 1282.73 606.494 1283.18 606.494 1283.64 606.494 1283.64 606.494 1283.64" fill="#000000" fill-rule="evenodd" fill-opacity="1"/><path d="M554 1312C554 1312 554 1311 555 1311L555 1311C554 1311 554 1312 554 1312Z" fill="#000000" fill-rule="evenodd" fill-opacity="1"/><path d="M604.655 1284.62C605.116 1284.62 605.116 1284.16 604.655 1284.62 604.655 1284.62 604.194 1285.07 603.273 1285.07 601.892 1285.07 600.511 1284.16 600.511 1282.81 600.511 1282.81 600.511 1282.81 600.511 1282.81L600.511 1281 554.461 1309.93 554 1310.38C554.461 1309.93 554.921 1309.93 555.382 1309.93 556.763 1309.93 558.145 1310.84 558.145 1312.19 558.145 1312.19 558.145 1312.19 558.145 1312.19L558.145 1314 561.829 1311.74 604.655 1284.62Z" fill="#000000" fill-rule="evenodd" fill-opacity="1"/><path d="M614.706 2073.21C613.353 2073.21 612 2072.29 612 2070.92 612 2070.92 612 2070.92 612 2070.92L612.451 2075.5 630.039 2310.63 630.039 2312C630.039 2310.63 630.941 2309.25 632.294 2309.25 633.647 2309.25 635 2310.17 635 2311.54L616.51 2070C617.411 2071.83 616.51 2073.21 614.706 2073.21 614.706 2073.21 614.706 2073.21 614.706 2073.21Z" fill="#000000" fill-rule="evenodd" fill-opacity="1"/><path d="M1367.5 2222.7C1367.5 2222.7 1367.5 2223.16 1367.5 2223.16 1367.5 2223.16 1367.5 2223.62 1367.5 2223.62L1367.96 2224.08 1368.42 2224.54 1368.88 2224.54 1369.33 2225C1369.79 2225 1369.79 2225 1370.25 2225 1371.63 2225 1373 2223.62 1373 2222.24 1373 2222.24 1373 2222.24 1373 2222.24L1373 2220.4 1367.5 2021.38 1367.5 2020C1367.5 2021.38 1366.13 2022.76 1364.75 2022.76 1363.38 2022.76 1362 2021.38 1362 2020 1362 2020 1362 2020 1362 2020L1367.5 2221.32 1367.5 2222.7Z" fill="#000000" fill-rule="evenodd" fill-opacity="1"/><path d="M1364 2023C1365.5 2023 1367 2021.6 1367 2020.2L1367 2016C1367 2017.4 1366 2018.8 1364.5 2019.27 1363 2019.27 1361.5 2018.33 1361 2016.93 1361 2016.47 1361 2016.47 1361 2016L1361 2020.2C1361 2021.6 1362.5 2023 1364 2023 1364 2023 1364 2023 1364 2023Z" fill="#000000" fill-rule="evenodd" fill-opacity="1"/><path d="M1364 2019C1365.5 2019 1367 2017.59 1367 2016.19 1367 2016.19 1367 2016.19 1367 2016.19L1367 2016.19 1367 2014.78 1367 2010.56 1367 2007.75 1367 2004C1367 2005.41 1366 2006.81 1364 2006.81 1364 2006.81 1364 2006.81 1364 2006.81 1362.5 2006.81 1361 2005.88 1361 2004 1361 2004 1361 2004 1361 2004L1361.5 2016.19C1361 2017.59 1362.5 2019 1364 2019Z" fill="#000000" fill-rule="evenodd" fill-opacity="1"/><path d="M450.793 1792.84C451.252 1791.49 452.626 1790.58 454 1791.04L452.626 1790.58 384.824 1768.92 379.784 1767.12C378.41 1766.67 377.035 1767.57 376.119 1768.92 375.661 1770.28 376.577 1771.63 377.952 1772.08L452.626 1796C451.252 1796 450.335 1794.65 450.793 1792.84Z" fill="#000000" fill-rule="evenodd" fill-opacity="1"/><path d="M454.348 1791.12C452.965 1790.66 451.581 1791.58 451.12 1792.96 450.659 1794.33 451.581 1795.71 452.965 1796.63L595 1843 595 1841.16 594.539 1837.03 459.421 1793.41 454.348 1791.12Z" fill="#000000" fill-rule="evenodd" fill-opacity="1"/><path d="M17.7333 1456.92C18.1999 1455.6 19.5999 1454.72 21 1455.16 21 1455.16 21 1455.16 21 1455.16L16.8002 1453.84 0 1449 0 1454.28 19.1334 1460C17.7333 1459.56 16.8002 1458.24 17.7333 1456.92 17.2668 1456.92 17.2668 1456.92 17.7333 1456.92Z" fill="#000000" fill-rule="evenodd" fill-opacity="1"/><path d="M74.6203 1471.88C75.0802 1471.88 75.5404 1471.88 76.0003 1472.35L75.5404 1472.35 22.1797 1455.59 20.3394 1455.12C18.9597 1454.66 17.5796 1455.59 17.1193 1456.98 17.1193 1456.98 17.1193 1456.98 17.1193 1456.98 16.6594 1458.38 17.5796 1459.78 18.9597 1460.24 18.9597 1460.24 18.9597 1460.24 18.9597 1460.24L68.6401 1475.6 72.7803 1477 72.7803 1475.14C71.8601 1473.74 72.7803 1472.35 74.6203 1471.88Z" fill="#000000" fill-rule="evenodd" fill-opacity="1"/><path d="M78.0007 1474C78.0007 1474 78.0007 1472.67 78.0007 1474 76.6661 1472.67 76.6661 1472.67 78.0007 1474L78.0007 1474Z" fill="#000000" fill-rule="evenodd" fill-opacity="1"/><path d="M173.611 2389.91C174.99 2389.91 176.37 2388.54 175.91 2387.16 175.91 2387.16 175.91 2387.16 175.91 2387.16L175.45 2382.58 157.978 2222.58 157.518 2218C157.518 2219.38 156.598 2220.75 155.219 2221.21 153.839 2221.67 152.46 2220.29 152 2218.92L170.392 2387.62C170.852 2388.99 172.232 2390.37 173.611 2389.91Z" fill="#000000" fill-rule="evenodd" fill-opacity="1"/><path d="M875.672 1109.32C876.59 1110.7 876.131 1112.08 874.754 1113 874.754 1113 874.754 1113 874.754 1113L1107 965.514 1106.08 965.054C1104.71 964.595 1103.79 963.216 1104.25 961.838 1104.25 960.919 1104.71 960.459 1105.62 960L876.131 1105.65 872 1107.95C872.918 1107.49 874.295 1107.95 875.672 1109.32 875.213 1109.32 875.213 1109.32 875.672 1109.32Z" fill="#000000" fill-rule="evenodd" fill-opacity="1"/><path d="M875.727 1109.39C874.812 1108.02 873.44 1107.56 872.068 1108.48 872.068 1108.48 872.068 1108.48 872.068 1108.48L870.696 1109.39 690.049 1223.67 686.391 1225.95C685.018 1226.87 684.561 1228.24 685.476 1229.61 686.391 1230.98 687.763 1231.44 689.135 1230.52L874.812 1113.05C876.184 1112.13 876.184 1110.76 875.727 1109.39Z" fill="#000000" fill-rule="evenodd" fill-opacity="1"/><path d="M600.702 1889.2C599.351 1889.2 598 1888.29 598 1886.91L598.45 1891.48 611.959 2069.25 611.959 2070.63C611.959 2072 613.31 2073.37 614.661 2072.91 614.661 2072.91 614.661 2072.91 614.661 2072.91 616.011 2072.91 617.362 2071.54 616.912 2070.17 616.912 2070.17 616.912 2070.17 616.912 2070.17L602.953 1886C603.404 1887.83 602.053 1889.2 600.702 1889.2 600.702 1889.2 600.702 1889.2 600.702 1889.2Z" fill="#000000" fill-rule="evenodd" fill-opacity="1"/><path d="M155.653 2221C157.062 2221 158 2219.63 158 2218.26L158 2216.43 141.102 2064.12 140.633 2060C141.102 2061.37 139.694 2062.74 138.286 2063.2 136.878 2063.66 135.469 2062.29 135 2060.91 135 2060.91 135 2060.46 135 2060.46L152.368 2218.26C152.837 2220.09 154.245 2221 155.653 2221Z" fill="#000000" fill-rule="evenodd" fill-opacity="1"/><path d="M1363.23 2007C1364.62 2007 1366 2005.63 1366 2004.25 1366 2004.25 1366 2004.25 1366 2004.25L1366 2004.25 1366 2002.42 1365.54 1983.66 1365.54 1980C1365.54 1981.37 1364.15 1982.75 1362.77 1982.75 1361.38 1982.75 1360 1981.37 1360 1980 1360 1980 1360 1980 1360 1980L1360.46 2004.71C1360.46 2005.63 1361.85 2007 1363.23 2007 1363.23 2007 1363.23 2007 1363.23 2007Z" fill="#000000" fill-rule="evenodd" fill-opacity="1"/><path d="M1363.25 1982C1364.63 1982 1366 1980.63 1366 1979.26 1366 1979.26 1366 1979.26 1366 1979.26L1366 1977.43 1360.5 1788.37 1360.5 1787C1360.5 1788.37 1359.13 1789.74 1357.75 1789.74 1356.38 1789.74 1355 1788.37 1355 1787 1355 1787 1355 1787 1355 1787L1360.5 1979.26C1360.5 1981.09 1361.42 1982 1363.25 1982Z" fill="#000000" fill-rule="evenodd" fill-opacity="1"/><path d="M1357.23 1789C1358.62 1789 1360 1787.62 1360 1786.25L1360 1781.2 1353.54 1547.67 1353.54 1544C1353.54 1545.38 1352.15 1546.75 1350.77 1546.75 1349.38 1546.75 1348 1545.38 1348 1544L1354.92 1786.25C1354.46 1787.62 1355.85 1789 1357.23 1789Z" fill="#000000" fill-rule="evenodd" fill-opacity="1"/><path d="M1338 1209.29 1338 1211.12 1338 1213.87 1347.38 1544.25C1347.38 1545.63 1348.78 1547 1350.19 1547 1351.59 1547 1353 1545.63 1353 1544.25L1353 1542.42 1343.63 1208.83C1343.63 1208.83 1343.63 1208.37 1343.63 1208.37L1343.63 1207.92 1343.16 1207.46 1342.69 1207 1342.22 1207 1341.75 1207C1341.28 1207 1341.28 1207 1340.81 1207 1339.87 1207 1338.47 1207.92 1338 1209.29Z" fill="#000000" fill-rule="evenodd" fill-opacity="1"/><path d="M138.61 2063C139.99 2063 141.37 2061.62 140.91 2060.25L140.91 2058.41 99.9786 1681.13 99.5188 1677C99.5188 1678.38 98.5989 1679.75 97.2191 1680.21 95.8394 1680.67 94.4596 1679.3 93.9998 1677.92L135.391 2061.16C135.851 2062.08 137.231 2063 138.61 2063Z" fill="#000000" fill-rule="evenodd" fill-opacity="1"/><path d="M96.638 1680C98.0019 1680 99.3657 1678.63 98.9109 1677.25L98.9109 1675.42 77.0896 1474.29C77.0896 1473.83 77.0896 1473.83 76.6351 1473.37L76.6351 1472.92C76.6351 1472.92 76.1806 1472.46 76.1806 1472.46L75.7261 1472.46C75.2712 1472.46 74.8167 1472 74.3622 1472 72.9983 1472 71.6344 1473.37 72.0889 1474.75L72.0889 1476.58 72.5434 1478.87 93.4557 1677.25C94.3651 1679.08 95.2741 1680 96.638 1680Z" fill="#000000" fill-rule="evenodd" fill-opacity="1"/><path d="M596.638 1843.74C595.319 1843.74 594 1842.83 594 1841.46 594 1841.46 594 1841.46 594 1841.46L594 1843.28 597.078 1885.26 597.078 1886.63C597.078 1888 598.397 1889.37 599.716 1888.91 601.035 1888.91 602.353 1887.54 601.914 1886.17L598.397 1841C599.276 1842.37 597.957 1843.74 596.638 1843.74Z" fill="#000000" fill-rule="evenodd" fill-opacity="1"/><path d="M591.75 1769.77C590.375 1769.77 589 1768.84 589 1767.46 589 1767.46 589 1767.46 589 1767.46L589 1769.31 594.041 1837.08 594.5 1841.23C594.5 1842.62 595.416 1844 597.25 1844 598.625 1844 600 1843.08 600 1841.23 600 1841.23 600 1840.77 600 1840.77L594.5 1767C594.041 1768.38 593.125 1769.77 591.75 1769.77Z" fill="#000000" fill-rule="evenodd" fill-opacity="1"/><path d="M573.696 1535.76C572.348 1535.76 571 1534.84 571 1533.46 571 1533.46 571 1533.46 571 1533.46L571.449 1538.05 588.521 1763.48 588.97 1767.61C588.97 1768.99 590.318 1770.37 591.666 1769.91 591.666 1769.91 591.666 1769.91 591.666 1769.91 593.013 1769.91 594.361 1768.53 593.912 1767.16 593.912 1767.16 593.912 1767.16 593.912 1767.16L576.391 1533C575.942 1534.38 575.043 1535.76 573.696 1535.76Z" fill="#000000" fill-rule="evenodd" fill-opacity="1"/><path d="M558.939 1312.38C558.939 1311.01 557.592 1309.63 556.245 1310.09 556.245 1310.09 556.245 1310.09 556.245 1310.09 555.796 1310.09 555.347 1310.55 554.898 1310.55 554.898 1310.55 554.449 1310.55 554.449 1311.01 554.449 1311.47 554.449 1311.01 554.449 1311.01 554.449 1311.01 554.449 1311.47 554 1311.47L554 1311.92C554 1311.92 554 1312.38 554 1312.38 554 1312.38 554 1312.38 554 1312.84L570.613 1532.87 570.613 1534.25C570.613 1535.62 571.96 1537 573.307 1537 573.307 1537 573.307 1537 573.307 1537 574.653 1537 576 1535.62 576 1534.25L559.388 1316.05 559.388 1313.76 558.939 1312.38Z" fill="#000000" fill-rule="evenodd" fill-opacity="1"/><path d="M605.544 1282.71C605.544 1282.71 605.544 1282.25 606 1282.25 606 1282.25 606 1281.79 606 1281.79 606 1281.79 606 1281.79 606 1281.34L605.544 1276.75 548.022 495.213 548.022 493.38C548.022 492.006 546.652 490.632 545.283 491.09 545.283 491.09 545.283 491.09 545.283 491.09 544.826 491.09 544.37 491.548 543.913 491.548 543.913 491.548 543.457 491.548 543.457 492.006 543.457 492.006 543 492.464 543 492.464L543 492.922C543 493.38 543 493.38 543 493.838L543.457 497.962 600.522 1280.42 600.522 1282.25C600.522 1283.63 601.892 1285 603.261 1285 603.261 1285 603.261 1285 603.261 1285 603.718 1285 604.174 1284.54 604.63 1284.54L605.087 1284.08C605.544 1283.17 605.544 1283.17 605.544 1282.71Z" fill="#000000" fill-rule="evenodd" fill-opacity="1"/><path d="M397.881 1548.81C398.34 1547.44 397.422 1546.07 396.046 1545.61 396.046 1545.61 396.046 1545.61 396.046 1545.61L365.302 1536C364.843 1536 364.384 1536 364.384 1536 363.008 1536 361.631 1537.37 362.09 1538.75 362.09 1539.66 363.008 1540.58 363.925 1541.03L392.833 1550.18 394.669 1550.64C396.046 1551.56 397.422 1550.64 397.881 1548.81 397.881 1549.27 397.881 1549.27 397.881 1548.81Z" fill="#000000" fill-rule="evenodd" fill-opacity="1"/><path d="M267.171 524.453C267.629 525.828 269.457 526.286 270.829 525.828 270.829 525.828 270.829 525.828 270.829 525.828L395.172 460.754C395.629 460.754 395.629 460.296 396.086 460.296 396.543 459.838 397 458.922 397 458.463 397 458.005 397 458.005 396.543 457.547 395.629 456.172 394.257 455.714 392.886 456.172L391.514 457.089 269.457 520.787 268.543 521.246C267.171 521.246 266.714 523.079 267.171 524.453 267.171 524.453 267.171 524.453 267.171 524.453Z" fill="#000000" fill-rule="evenodd" fill-opacity="1"/><path d="M633.219 2310C631.938 2310 630.657 2311.37 631.084 2312.74 631.084 2312.74 631.084 2312.74 631.084 2312.74L631.511 2317.75 631.511 2320.04 635.354 2321.4C636.635 2321.86 637.49 2323.23 637.062 2325.05 636.635 2326.42 634.927 2327.33 633.646 2326.88L631.938 2326.42 632.365 2329.61 632.792 2333.72C632.792 2333.72 632.792 2333.72 632.792 2334.18 632.792 2334.18 632.792 2334.63 632.792 2334.63 632.792 2334.63 632.792 2335.09 633.219 2335.09 633.219 2335.09 633.646 2335.54 633.646 2335.54L634.073 2335.54C634.5 2336 634.927 2336 635.781 2336 637.062 2336 638.344 2334.63 637.917 2333.26 637.917 2333.26 637.917 2333.26 637.917 2333.26L637.917 2331.44 636.635 2312.74C635.354 2311.37 634.5 2310 633.219 2310Z" fill="#000000" fill-rule="evenodd" fill-opacity="1"/><path d="M1107.33 960 1106.41 960C1105.95 960 1105.95 960 1105.49 960.465 1105.04 960.93 1104.58 961.395 1104.12 962.325 1103.66 963.72 1104.58 965.115 1105.95 965.58L1106.87 966.045 1141.68 974.879C1143.05 975.344 1144.42 974.414 1144.88 973.019 1145.34 971.624 1144.42 970.229 1143.05 969.764L1139.39 968.835 1107.33 960Z" fill="#000000" fill-rule="evenodd" fill-opacity="1"/><path d="M624.653 2317.17C623.342 2316.71 622.032 2317.17 621.158 2318.55 621.158 2318.55 621.158 2318.55 621.158 2318.55 620.721 2319.92 621.158 2321.3 622.905 2322.21L626.838 2323.59 631.643 2325.42 633.391 2325.88C634.702 2326.34 636.013 2325.42 636.886 2324.05 637.323 2322.67 636.449 2321.3 635.139 2320.38L631.207 2319.01 629.022 2318.09 624.653 2317.17Z" fill="#000000" fill-rule="evenodd" fill-opacity="1"/><path d="M523.563 1743.65 510.892 1578.23 510.892 1576.39C510.892 1575.01 509.581 1573.63 508.27 1574.09 506.96 1574.09 505.649 1575.47 506.086 1576.85L506.522 1581.44 518.757 1741.35 519.194 1746.41 519.194 1748.7C519.194 1750.08 520.068 1751 521.378 1751L521.815 1751C523.126 1751 524 1750.08 524 1748.7 524 1748.24 524 1748.24 524 1747.78L523.563 1743.65Z" fill="#000000" fill-rule="evenodd" fill-opacity="1"/><path d="M2195.18 1858.95 2319.5 1749.5 2319.5 2007.5 2191.5 1966.57Z" stroke="#000000" stroke-width="4.579" stroke-linecap="round" stroke-linejoin="round" stroke-miterlimit="10" stroke-opacity="1" fill="#9FD1D0" fill-rule="evenodd" fill-opacity="1"/></g></g></svg>