<svg width="1352" height="2411" xmlns="http://www.w3.org/2000/svg" xmlns:xlink="http://www.w3.org/1999/xlink" xml:space="preserve" overflow="hidden"><g transform="translate(-3061 -64)"><g><path d="M3820.66 1486 3826.13 1483.26 3962.41 1419.29 3962.87 1419.29 3964.24 1419.29 4044 1458.59 3997.51 1168 3647 1320.6 3663.41 1403.76 3820.66 1486Z" fill="#DD1013" fill-rule="evenodd" fill-opacity="1"/><path d="M4005 1679.69 3961.8 1423 3829 1485.12 3876.3 1745Z" fill="#66B2B0" fill-rule="evenodd" fill-opacity="1"/><path d="M3873 1746.63 3825.22 1487 3822 1488.37 3869.78 1748Z" fill="#66B2B0" fill-rule="evenodd" fill-opacity="1"/><path d="M3819.45 1488.3 3664 1408 3714.29 1660.31 3867 1747Z" fill="#E7E6E6" fill-rule="evenodd" fill-opacity="1"/><path d="M4047.72 1461.2 4047.72 1461.2C4047.72 1461.65 4047.72 1461.65 4047.72 1461.65 4047.72 1461.65 4047.72 1461.65 4047.72 1461.65L4047.27 1462.11 4046.81 1462.11 4046.35 1462.11 4045.9 1462.11 4045.44 1462.11 3966.05 1422.85 4008.94 1679.89C4008.94 1679.89 4008.94 1680.34 4008.94 1680.34 4008.94 1680.34 4008.94 1680.34 4008.94 1680.8 4008.94 1680.8 4008.94 1680.8 4008.94 1681.26L4170 1768 4148.1 1631.49 4128.48 1503.66 3920.43 134.002 3831 113 3999.36 1165.81 4047.72 1461.2Z" fill="#C5E3E3" fill-rule="evenodd" fill-opacity="1"/><path d="M4008.34 1682.2C4008.34 1682.2 4008.34 1682.2 4008.34 1682.2L4008.34 1682.2 3875.44 1748.74 3869.5 1751.93 3790.5 1791.58 3735.7 1818.93 3685.92 1843.99 3606 1884.56 3762.18 1983 4170 1768.8 4008.34 1682.2C4008.79 1681.75 4008.34 1682.2 4008.34 1682.2Z" fill="#66B2B0" fill-rule="evenodd" fill-opacity="1"/><path d="M3762.89 1986.38 3678 2031.16 3708.58 2176 4060 1983.18 4036.27 1842Z" fill="#E7E6E6" fill-rule="evenodd" fill-opacity="1"/><path d="M4182.07 1780.77 4182.07 1780.77C4182.07 1780.77 4182.07 1780.77 4182.07 1780.77 4181.61 1780.31 4181.61 1780.31 4181.61 1780.31L4181.61 1779.86 4181.61 1779.4 4171.11 1773 4041 1841.56 4051.96 1847.96 4182.52 1922 4209 1907.37 4190.74 1785.8 4182.07 1780.77Z" fill="#0A4054" fill-rule="evenodd" fill-opacity="1"/><path d="M4063.53 1981 4072 1976.89 4049.88 1849.48 4040 1844Z" fill="#F9AA19" fill-rule="evenodd" fill-opacity="1"/><path d="M4185.56 1776 4190 1773.29 4188.22 1762 4174 1769.68Z" fill="#61B3B2" fill-rule="evenodd" fill-opacity="1"/><path d="M3675.09 2031.46 3521 1931 3586.65 2224.15 3738 2331 3706.09 2178.95Z" fill="#66B2B0" fill-rule="evenodd" fill-opacity="1"/><path d="M3548 1874 3554.74 1907 3579 1894.17Z" fill="#F2494C" fill-rule="evenodd" fill-opacity="1"/><path d="M3602.28 1882.42 3684 1841.38 3670.76 1775.71 3584.93 1724.18 3416.01 932.484 3332 896 3527.4 1779.36 3530.14 1791.67 3546.58 1869.2 3583.1 1892 3602.28 1882.42Z" fill="#F9C996" fill-rule="evenodd" fill-opacity="1"/><path d="M3720.39 1753 3674 1776.11 3687.06 1840 3733 1816.44Z" fill="#61B3B2" fill-rule="evenodd" fill-opacity="1"/><path d="M3721.56 1748.62 3722.47 1748.62 3722.93 1748.62 3790.58 1788 3866 1750 3713.33 1663 3589 1722.98 3672.19 1772.89 3721.56 1748.62Z" fill="#E7E6E6" fill-rule="evenodd" fill-opacity="1"/><path d="M3736.31 1815 3786 1790.15 3724 1754Z" fill="#F4F5F3" fill-rule="evenodd" fill-opacity="1"/><path d="M3759 1984.62 3602.67 1886 3583.98 1895.59 3554.82 1910.2 3522 1927.09 3676.51 2028Z" fill="#0A4054" fill-rule="evenodd" fill-opacity="1"/><path d="M3827.25 2117.97 3827.25 2117.97 3827.25 2117.06C3827.25 2117.06 3827.25 2117.06 3827.25 2116.6L3827.7 2116.6 4061 1988.83 4060.54 1987 3709 2179.58 3740.96 2332 3855.55 2266.74 3826.33 2118.89 3827.25 2117.97Z" fill="#C5E3E3" fill-rule="evenodd" fill-opacity="1"/><path d="M4170.27 1643.11 4153 1634 4173 1767 4188 1758.8Z" fill="#66B2B0" fill-rule="evenodd" fill-opacity="1"/><path d="M4148.53 1496 4133 1503.79 4152.19 1629.83 4170 1639Z" fill="#F2494C" fill-rule="evenodd" fill-opacity="1"/><path d="M4132.06 1500 4147.58 1492.7 4117.01 1289.27C4117.01 1289.27 4117.01 1289.27 4117.01 1289.27 4117.01 1289.27 4117.01 1289.27 4117.01 1288.81L4117.46 1288.81 4188.64 1255.97 4172.67 1142.39C4172.67 1142.39 4172.67 1142.39 4172.67 1141.93L4173.13 1141.93 4211 1125.06 4162.18 776.114 4153.96 714.993 4069.1 91.0001 3924 134.333 4132.06 1500Z" fill="#66B2B0" fill-rule="evenodd" fill-opacity="1"/><path d="M4064 1985 4064.42 1987 4072 1982 4071.58 1980Z" fill="#F2494C" fill-rule="evenodd" fill-opacity="1"/><path d="M4054 1852 4074.55 1977.78 4075.46 1982.35 4354 2147 4335.28 2011.62 4182.31 1924.72Z" fill="#F9C996" fill-rule="evenodd" fill-opacity="1"/><path d="M4339 2011.23 4357.64 2147 4409 2116.37 4409 1971 4366.27 1995.23Z" fill="#F9C996" fill-rule="evenodd" fill-opacity="1"/><path d="M4187 1923.69 4337 2009 4362 1994.4 4239.27 1925.51 4212 1910Z" fill="#F9AA19" fill-rule="evenodd" fill-opacity="1"/><path d="M3585.72 1721 3711 1660.73 3659.79 1405.48 3642.87 1320.09 3555.54 879 3417 931.054Z" fill="#F39891" fill-rule="evenodd" fill-opacity="1"/><path d="M4207.73 703.727C4206.81 703.727 4205.9 703.273 4205.9 702.364 4205.9 702.364 4205.9 702.364 4205.9 702.364L4204.99 696 4159 713.727 4167.2 772.364 4350.71 836 4409 811.909 4409 768.727 4209.09 702.364C4208.64 703.273 4208.18 703.727 4207.73 703.727Z" fill="#F9AA19" fill-rule="evenodd" fill-opacity="1"/><path d="M4207.71 693.449 4207.71 693.449 4208.63 701.641C4208.63 702.096 4208.63 702.096 4208.63 702.551L4409 769 4409 622.904 4189 556 4207.71 693.449Z" fill="#DD1013" fill-rule="evenodd" fill-opacity="1"/><path d="M4234.26 1112.6 4234.26 1112.6 4234.72 1112.6 4235.17 1112.6 4235.63 1112.6 4391 1176 4350.33 839.398 4168 776 4215.98 1121.27 4234.26 1112.6Z" fill="#3C7C7B" fill-rule="evenodd" fill-opacity="1"/><path d="M4393.65 1177.62 4409 1184 4409 816 4353 839.256Z" fill="#DD1013" fill-rule="evenodd" fill-opacity="1"/><path d="M4064 88.7482 3976.45 69.0001 3836 110.333 3922.18 131Z" fill="#F4F5F3" fill-rule="evenodd" fill-opacity="1"/><path d="M3553 877.258 3468.84 842 3333 892.369 3415.79 929Z" fill="#66B2B0" fill-rule="evenodd" fill-opacity="1"/><path d="M4191 1779 4191 1777 4189 1778Z" fill="#0A4054" fill-rule="evenodd" fill-opacity="1"/><path d="M4357.01 2151.22 4357.01 2151.22 4356.1 2151.22 4075.17 1985 4064.68 1990.48 3833 2117.88 4235.24 2380 4409 2273.15 4409 2120.62 4357.01 2151.22Z" fill="#F39891" fill-rule="evenodd" fill-opacity="1"/><path d="M4173.56 1641.65 4191.38 1759.87 4193.67 1774.93 4195.04 1782.24 4195.04 1784.52 4213.78 1907.31 4238 1921 4147.05 1303.87 4121 1292 4151.62 1493.75Z" fill="#468C8A" fill-rule="evenodd" fill-opacity="1"/><path d="M4315.04 1199.06 4315.04 1199.06C4315.04 1199.52 4315.04 1199.52 4315.04 1199.52 4315.04 1199.52 4315.04 1199.52 4314.58 1199.98L4191.88 1256.57 4123 1288.52 4148.54 1299.93 4206.02 1273 4206.47 1273 4207.39 1273 4407.18 1362 4409 1361.09 4409 1187.65 4391.21 1180.35 4234.3 1116 4214.23 1125.13 4179.1 1140.65 4314.58 1197.24 4315.04 1197.24 4315.04 1197.7C4315.04 1197.7 4315.04 1198.15 4315.04 1198.15" fill="#F2494C" fill-rule="evenodd" fill-opacity="1"/><path d="M4192 553.222 4409 619 4409 535.407 4314.89 508Z" fill="#F9AA19" fill-rule="evenodd" fill-opacity="1"/><path d="M3831 2121 3859.29 2266.86 3862.48 2282.41 4144.89 2474 4248 2474 4233.4 2382.55Z" fill="#C5E3E3" fill-rule="evenodd" fill-opacity="1"/><path d="M4251.14 2474 4409 2474 4409 2459.86 4409 2277 4237 2382.8Z" fill="#F2494C" fill-rule="evenodd" fill-opacity="1"/><path d="M4209 1278 4295.56 1892.5 4409 1955 4409 1391.14 4405.81 1365.13Z" fill="#66B2B0" fill-rule="evenodd" fill-opacity="1"/><path d="M4244 1924.08 4365.36 1992 4409 1967.09 4409 1958.94 4294.45 1896Z" fill="#F2494C" fill-rule="evenodd" fill-opacity="1"/><path d="M4292 1892.73 4204.79 1278 4150 1303.54 4240.86 1921Z" fill="#E7E6E6" fill-rule="evenodd" fill-opacity="1"/><path d="M4310 1199.14 4177 1143 4192.49 1253Z" fill="#61B3B2" fill-rule="evenodd" fill-opacity="1"/><path d="M4170 1642.55 4169.55 1638.97 4152 1630 4152.45 1630.9 4152.9 1634.03 4170 1643Z" fill="#000000" fill-rule="evenodd" fill-opacity="1"/><path d="M3522.63 1778 3063 2001.18C3063.46 2000.72 3064.37 2000.72 3064.83 2001.18L3067.11 2003 3524 1781.64 3523.54 1779.37 3522.63 1778Z" fill="#FFFFFF" fill-rule="evenodd" fill-opacity="1"/><path d="M3063.46 2001.34 3063.46 2001.34C3063 2001.34 3063 2001.34 3063.46 2001.34 3063 2001.8 3063 2001.8 3063 2002.26 3063 2002.26 3063 2002.26 3063 2002.71L3063 2003.17C3063 2003.17 3063 2003.63 3063 2003.63 3063 2003.63 3063 2003.63 3063 2003.63L3063 2004.08 3697.52 2474 3703 2474 3067.57 2003.17 3065.28 2001.34C3064.83 2000.89 3063.91 2000.89 3063.46 2001.34Z" fill="#FFFFFF" fill-rule="evenodd" fill-opacity="1"/><path d="M3687 1840.63 3673.31 1776 3671.89 1776.46 3671.42 1776.46 3670.94 1776.46 3670.47 1776.46 3670 1776 3683.69 1842 3685.11 1841.54 3687 1840.63Z" fill="#000000" fill-rule="evenodd" fill-opacity="1"/><path d="M3582.08 1893.11 3583 1892.67 3546 1870 3546.46 1870.89 3547.39 1874.44 3579.3 1894Z" fill="#000000" fill-rule="evenodd" fill-opacity="1"/><path d="M3671.09 1776C3670.63 1776 3670.63 1775.55 3670.18 1775.09 3669.72 1774.19 3670.18 1773.28 3671.09 1772.83 3671.09 1772.83 3671.09 1772.83 3671.09 1772.83L3672 1772.38 3589.1 1723 3586.37 1724.36 3585.46 1724.36 3585 1724.36 3671.09 1776Z" fill="#000000" fill-rule="evenodd" fill-opacity="1"/><path d="M3720.08 1750.35 3720.08 1750.35C3720.08 1749.9 3720.08 1749.9 3720.08 1749.9 3720.08 1749.9 3720.08 1749.9 3720.08 1749.45L3720.08 1749 3720.54 1749 3721 1749 3671.01 1773.39 3670.1 1773.84C3669.18 1774.29 3668.72 1775.19 3669.18 1776.1 3669.18 1776.1 3669.18 1776.1 3669.18 1776.1 3669.18 1776.55 3669.64 1776.55 3670.1 1777L3670.56 1777 3671.01 1777 3671.47 1777 3672.85 1776.55 3720.54 1753.52 3720.08 1750.35Z" fill="#000000" fill-rule="evenodd" fill-opacity="1"/><path d="M3873.75 1745.54 3876 1744.63 3829.15 1485 3827.8 1485.91 3826 1486.83 3872.85 1746Z" fill="#000000" fill-rule="evenodd" fill-opacity="1"/><path d="M4040 1842.44 4040.46 1844.67 4050.68 1850 4050.68 1849.11C4050.68 1849.11 4050.68 1849.11 4050.68 1848.67 4050.68 1848.67 4050.68 1848.22 4050.68 1848.22L4051.14 1848.22 4051.61 1848.22 4052.07 1848.22 4052.54 1848.22 4053 1848.22 4042.32 1842 4040 1842.44Z" fill="#000000" fill-rule="evenodd" fill-opacity="1"/><path d="M3724.25 1753.23 3720.94 1751.39C3720.47 1750.92 3720 1750.46 3720 1750L3720.47 1752.31 3733.69 1817 3735.11 1816.54 3737 1815.61 3724.25 1753.23Z" fill="#000000" fill-rule="evenodd" fill-opacity="1"/><path d="M3724.12 1753.56 3786.34 1790 3789.08 1788.63 3790 1788.18 3722.29 1749 3721.83 1749 3720.91 1749 3720.46 1749 3720 1749 3720 1749.46C3720 1749.46 3720 1749.46 3720 1749.91 3720 1749.91 3720 1750.37 3720 1750.37 3720 1750.82 3720.46 1751.28 3720.91 1751.73L3724.12 1753.56Z" fill="#000000" fill-rule="evenodd" fill-opacity="1"/><path d="M4172 1772.46 4171.09 1772 4170.63 1772 4040 1841.62C4040 1841.62 4040 1841.62 4040 1841.62L4040.46 1843 4042.28 1842.08 4172 1772.46Z" fill="#000000" fill-rule="evenodd" fill-opacity="1"/><path d="M4235.9 2383.45 4235.9 2383.45 4234.95 2383.45 4234.47 2383.45 4234 2383 4248.68 2474 4252 2474 4237.32 2383 4235.9 2383.45Z" fill="#000000" fill-rule="evenodd" fill-opacity="1"/><path d="M3828.27 1483.74C3828.73 1484.64 3828.27 1485.55 3827.36 1486L3828.73 1485.55 3961.55 1423.62 3961.09 1421.36C3961.09 1421.36 3961.09 1420.9 3961.09 1420.9 3961.09 1420.9 3961.09 1420.9 3961.09 1420.45L3961.09 1420 3961.55 1420 3962 1420 3826 1483.29C3826 1482.84 3827.36 1482.84 3828.27 1483.74 3827.82 1483.29 3828.27 1483.29 3828.27 1483.74Z" fill="#000000" fill-rule="evenodd" fill-opacity="1"/><path d="M3821.3 1486.58 3821.3 1486.58 3821.74 1487.06 3821.74 1487.55 3822.17 1489 3825.22 1487.55 3826.96 1486.58C3827.83 1486.1 3828.26 1485.13 3827.83 1484.16 3827.39 1483.19 3826.52 1482.71 3825.65 1483.19L3820 1485.61 3820.87 1486.1C3820.44 1486.1 3821.3 1486.1 3821.3 1486.58Z" fill="#000000" fill-rule="evenodd" fill-opacity="1"/><path d="M3646.46 1321 3997 1167.21 3996.54 1165.38 3996.54 1164 3646 1317.79 3646.46 1319.62Z" fill="#000000" fill-rule="evenodd" fill-opacity="1"/><path d="M3868.63 1749 3870 1748.54 3822.64 1488.37 3822.19 1487C3822.19 1487.46 3822.19 1487.91 3822.19 1488.37 3821.73 1489.29 3820.82 1489.29 3819.91 1489.29 3819.91 1489.29 3819.91 1489.29 3819.91 1489.29L3819 1488.83 3866.36 1748.09 3868.63 1749Z" fill="#000000" fill-rule="evenodd" fill-opacity="1"/><path d="M3554 1906.63 3546.96 1874.12 3546.08 1870C3546.08 1870.92 3545.64 1871.83 3544.76 1871.83 3544.76 1871.83 3544.76 1871.83 3544.76 1871.83 3543.88 1871.83 3543 1871.37 3543 1870.46 3543 1870.46 3543 1870.46 3543 1870.46L3550.92 1908 3552.24 1907.54 3554 1906.63Z" fill="#000000" fill-rule="evenodd" fill-opacity="1"/><path d="M4040.12 1844.66 4039.66 1842.37 4039.2 1841C4039.2 1841 4039.2 1841 4039.2 1841L4036 1842.83 4059.8 1984 4060.71 1983.54 4063 1982.17 4040.12 1844.66Z" fill="#000000" fill-rule="evenodd" fill-opacity="1"/><path d="M4132.46 1504 4148 1496.21 4148 1494.38 4147.54 1493 4132 1500.79 4132.46 1502.62Z" fill="#000000" fill-rule="evenodd" fill-opacity="1"/><path d="M3964.92 1420.79 3965.37 1423.93 4045 1462C4044.54 1462 4044.08 1461.55 4044.08 1460.66L4043.63 1457.52 3964 1419C3964.46 1419.45 3964.46 1419.9 3964.92 1420.79Z" fill="#000000" fill-rule="evenodd" fill-opacity="1"/><path d="M3583.29 2223.72C3583.75 2222.8 3584.65 2222.8 3585.55 2223.26 3585.55 2223.26 3585.55 2223.26 3585.55 2223.26L3586 2223.72 3521.06 1930.74 3517.45 1928.46 3517 1928C3517 1928 3517 1928 3517 1928 3517 1928 3517 1928 3517 1928L3583.29 2225.54C3583.29 2225.54 3583.29 2225.54 3583.29 2226 3582.84 2225.09 3582.84 2224.17 3583.29 2223.72Z" fill="#000000" fill-rule="evenodd" fill-opacity="1"/><path d="M3675.17 2030.63 3675.17 2030.63C3675.17 2030.63 3675.17 2030.18 3675.17 2030.63L3675.17 2030.18 3675.17 2029.72 3675.17 2029.26 3675.63 2029.26C3675.63 2029.26 3675.63 2029.26 3676.09 2029.26 3676.54 2029.26 3676.09 2029.26 3676.09 2029.26L3677 2028.81 3521.57 1928 3518.83 1929.37C3518.37 1929.82 3517.46 1929.82 3517 1929.37L3520.66 1931.65 3675.17 2032 3675.17 2030.63Z" fill="#000000" fill-rule="evenodd" fill-opacity="1"/><path d="M3705.7 2178.09 3705.7 2178.09 3705.7 2177.63 3706.16 2177.17 3708 2176.26 3677.22 2031.46 3676.3 2031.91C3675.38 2032.37 3674.46 2031.91 3674 2031.46 3674 2031.46 3674 2031 3674 2031L3674 2031.46 3705.24 2179C3705.24 2179 3705.24 2179 3705.24 2178.54L3705.7 2178.09Z" fill="#000000" fill-rule="evenodd" fill-opacity="1"/><path d="M3708.31 2179.91C3707.38 2180.37 3706.46 2179.91 3706 2179.46 3706 2179.46 3706 2179 3706 2179L3706 2179 3738.31 2330.18 3741.08 2332 3742 2331.54 3709.69 2179.46 3708.31 2179.91Z" fill="#000000" fill-rule="evenodd" fill-opacity="1"/><path d="M4188 1762.67 4187.56 1760.38 4187.56 1759 4173 1766.79 4173.44 1769.08C4173.44 1769.08 4173.44 1769.08 4173.44 1769.54L4173.88 1770 4188 1762.67Z" fill="#000000" fill-rule="evenodd" fill-opacity="1"/><path d="M3962.46 1419.46 3962.46 1419.46C3962 1419.91 3962 1419.91 3962 1419.91 3962 1419.91 3962 1419.91 3962 1420.37 3962 1420.37 3962 1420.82 3962 1420.82L3962.46 1423.1 4005.77 1679.09 4006.7 1678.63C4007.62 1678.18 4008.54 1678.63 4009 1679.54 4009 1679.54 4009 1679.54 4009 1679.54 4009 1679.54 4009 1680 4009 1680L3965.69 1423.56 3965.23 1420.37C3965.23 1419.91 3964.76 1419.46 3964.3 1419L3963.38 1419 3962.92 1419 3962.46 1419.46Z" fill="#000000" fill-rule="evenodd" fill-opacity="1"/><path d="M4062.71 1985.5 4061 1987 4061 1989 4062.29 1988 4064 1987 4063.57 1985Z" fill="#000000" fill-rule="evenodd" fill-opacity="1"/><path d="M4006.25 1679.17 4005.34 1679.63 3875.83 1744.89 3874 1745.81C3874.92 1745.35 3875.83 1745.81 3876.29 1746.72 3876.75 1747.63 3876.29 1748.54 3875.37 1749L4008.08 1682.37C4008.08 1682.37 4008.08 1682.37 4008.54 1682.37 4008.54 1682.37 4008.54 1682.37 4009 1682.37 4009 1682.37 4009 1682.37 4009 1681.91 4009 1681.91 4009 1681.91 4009 1681.45 4009 1681.45 4009 1681 4009 1681 4009 1681 4009 1680.54 4009 1680.54 4008.08 1679.17 4007.17 1678.71 4006.25 1679.17 4006.25 1679.17 4006.25 1679.17 4006.25 1679.17Z" fill="#000000" fill-rule="evenodd" fill-opacity="1"/><path d="M4039.48 1840.49 4170 1771.65C4170 1770.74 4170 1770.28 4169.54 1769.37L4169.54 1768 3762 1982.27 3762.91 1982.72 3763.37 1983.18C3763.37 1983.18 3763.37 1983.18 3763.37 1983.63 3763.37 1983.63 3763.37 1983.63 3763.37 1984.09 3763.37 1984.09 3763.37 1984.09 3763.37 1984.54L3763.37 1985C3763.37 1985 3763.37 1985 3763.37 1985 3763.37 1985 3763.37 1985 3762.91 1985L4036.28 1840.94 4039.48 1840.49Z" fill="#000000" fill-rule="evenodd" fill-opacity="1"/><path d="M4063.39 1981.21 4061 1982.47C4061.96 1982.05 4062.91 1982.05 4063.39 1982.9 4063.87 1983.74 4063.87 1984.58 4062.91 1985 4062.91 1985 4062.43 1985 4062.43 1985L4063.39 1984.58 4072 1980.37 4071.52 1978.26 4071.52 1977 4063.39 1981.21Z" fill="#000000" fill-rule="evenodd" fill-opacity="1"/><path d="M3870.38 1747.5 3869 1747.92 3869.92 1748.33 3870.38 1748.33C3870.38 1748.33 3870.38 1748.33 3870.38 1748.33 3870.38 1748.33 3870.38 1748.33 3870.38 1748.75 3870.38 1748.75 3870.38 1748.75 3870.38 1749.17 3870.38 1749.17 3870.38 1749.17 3870.38 1749.58 3870.38 1749.58 3870.38 1749.58 3870.38 1750L3869.92 1750 3875.9 1747.08C3876.82 1746.66 3877.28 1745.83 3876.82 1745 3876.36 1744.16 3875.44 1743.75 3874.52 1744.16L3873.14 1744.58 3870.38 1747.5Z" fill="#000000" fill-rule="evenodd" fill-opacity="1"/><path d="M4064 1982.76C4063.54 1981.84 4062.63 1981.84 4061.72 1982.3L4060.8 1982.76 3709.28 2175.59 3707.46 2176.5 3707 2176.96 3707 2177.42 3707 2177.87 3707 2178.33C3707 2178.33 3707 2178.33 3707 2178.79 3707 2178.79 3707 2179.24 3707 2179.24 3707.46 2180.16 3708.37 2180.16 3709.28 2179.7L3710.2 2179.24 4061.72 1986.41 4064 1985.04C4064 1984.58 4064 1983.67 4064 1982.76Z" fill="#000000" fill-rule="evenodd" fill-opacity="1"/><path d="M3867.64 1751.38 3864.91 1750 3789.91 1788.31 3789 1788.77C3789.91 1788.31 3790.82 1788.77 3791.27 1789.69 3791.73 1790.62 3791.27 1791.54 3790.36 1792 3790.36 1792 3790.36 1792 3790.36 1792L3869 1751.85C3868.55 1751.85 3868.09 1751.85 3867.64 1751.38Z" fill="#000000" fill-rule="evenodd" fill-opacity="1"/><path d="M3145 1978.91 3145 1978.91 3833.06 2474 3839 2474 3149.11 1978 3146.83 1979.37C3145.91 1979.37 3145.46 1979.37 3145 1978.91Z" fill="#000000" fill-rule="evenodd" fill-opacity="1"/><path d="M3525.54 1790 3145.46 1975.37 3145 1975.37C3145 1975.37 3145 1975.37 3145 1975.83 3145 1975.83 3145 1975.83 3145 1976.29 3145 1976.29 3145 1976.29 3145 1976.74 3145 1976.74 3145 1977.2 3145 1977.2L3145 1977.66C3145.46 1978.11 3146.37 1978.11 3146.83 1977.66L3149.11 1976.29 3526 1792.28 3525.54 1790Z" fill="#000000" fill-rule="evenodd" fill-opacity="1"/><path d="M4361.92 1994 4337 2008.7 4337.91 2009.16 4338.36 2009.16 4338.36 2009.62 4338.36 2010.08 4338.36 2011 4366 1994.92 4365.55 1994.92 4365.09 1994.92 4364.64 1994.92 4361.92 1994Z" fill="#000000" fill-rule="evenodd" fill-opacity="1"/><path d="M4338.29 2010C4338.29 2010.91 4337.82 2011.83 4336.88 2011.83 4336.41 2011.83 4335.94 2011.83 4335.94 2011.83L4335 2011.37 4354.25 2146.63 4356.59 2148 4358 2147.09 4338.76 2011.37 4338.29 2010Z" fill="#000000" fill-rule="evenodd" fill-opacity="1"/><path d="M4181.63 1924.63 4181.63 1924.63C4181.63 1924.63 4181.63 1924.63 4181.63 1924.63L4181.63 1923.72 4181.63 1923.26 4182.09 1923.26 4183 1922.81 4052.46 1848 4052 1848C4052.46 1848 4052.91 1848.91 4052.91 1849.37L4053.37 1853.02 4181.63 1926 4181.63 1924.63Z" fill="#000000" fill-rule="evenodd" fill-opacity="1"/><path d="M4187 1778.86 4191 1781 4190.56 1778.86 4189.22 1778Z" fill="#000000" fill-rule="evenodd" fill-opacity="1"/><path d="M4183.83 1924.91C4183.38 1925.37 4182.46 1925.37 4182 1924.91L4182 1924.91 4335.59 2011.36 4336.5 2011.81C4337.42 2012.27 4338.34 2011.81 4338.8 2011.36 4338.8 2010.9 4339.25 2010.45 4338.8 2010.45L4338.8 2009.99 4338.8 2009.54 4338.34 2009.54 4337.42 2009.08 4186.13 1924 4183.83 1924.91Z" fill="#000000" fill-rule="evenodd" fill-opacity="1"/><path d="M4183 1924C4183 1924 4183 1924 4183 1924L4183 1924C4181.67 1921.75 4181.67 1924 4183 1924Z" fill="#000000" fill-rule="evenodd" fill-opacity="1"/><path d="M3676.75 2031.81 3677.67 2031.35 3763 1986.38C3762.54 1986.84 3761.62 1986.84 3761.17 1986.38L3758.87 1985 3675.84 2028.6 3674.92 2029.06C3674.92 2029.06 3674.92 2029.06 3674.46 2029.06L3674 2029.06 3674 2029.52 3674 2029.97 3674 2030.43C3674 2030.43 3674 2030.89 3674 2030.89 3674 2030.89 3674 2031.35 3674 2031.35 3674.92 2031.81 3675.84 2032.27 3676.75 2031.81Z" fill="#000000" fill-rule="evenodd" fill-opacity="1"/><path d="M3762.54 1986.54C3762.54 1986.54 3762.54 1986.54 3762.54 1986.54 3763 1986.08 3763 1986.08 3762.54 1986.54L3762.54 1986.54 3763 1985.63C3763 1985.63 3763 1985.63 3763 1985.17 3763 1985.17 3763 1985.17 3763 1984.71 3763 1984.71 3763 1984.71 3763 1984.25 3763 1984.25 3763 1984.25 3763 1983.8L3762.54 1983.34 3761.63 1982.88 3605.65 1884 3602.91 1885.37 3602 1885.83 3758.44 1984.71 3760.72 1986.08C3761.63 1987.46 3762.09 1987 3762.54 1986.54Z" fill="#000000" fill-rule="evenodd" fill-opacity="1"/><path d="M3867.72 1751.66C3868.18 1752.11 3869.09 1752.11 3869.54 1751.66L3870 1751.66C3870 1751.66 3870 1751.66 3870 1751.2 3870 1751.2 3870 1751.2 3870 1750.75 3870 1750.75 3870 1750.75 3870 1750.29 3870 1750.29 3870 1750.29 3870 1749.84 3870 1749.84 3870 1749.84 3870 1749.38 3870 1749.38 3870 1749.38 3870 1749.38L3869.54 1749.38 3868.63 1748.92 3866.36 1747.56 3714.36 1661 3714.36 1661.91 3714.36 1662.37C3714.36 1662.37 3714.36 1662.37 3714.36 1662.82L3714.36 1663.28C3714.36 1663.28 3714.36 1663.28 3714.36 1663.73L3713.91 1663.73 3713 1664.19 3864.99 1750.75 3867.72 1751.66Z" fill="#000000" fill-rule="evenodd" fill-opacity="1"/><path d="M3585 1725 3585 1725 3587.74 1723.64 3712.09 1664.18 3713 1663.72C3713 1663.72 3712.54 1663.72 3712.54 1663.72 3711.63 1663.72 3710.71 1663.27 3710.71 1662.36 3710.71 1662.36 3710.71 1662.36 3710.71 1662.36L3710.26 1661 3585.46 1720.92 3585.91 1723.18C3585.91 1724.09 3585.46 1724.55 3585 1725Z" fill="#000000" fill-rule="evenodd" fill-opacity="1"/><path d="M4349.09 837.624 4349.09 837.624C4349.09 837.165 4349.09 837.165 4349.09 837.165 4349.09 837.165 4349.09 837.165 4349.09 837.165L4349.54 836.706 4350 836.247 4166 772 4166 772.918 4166.91 775.212 4349.09 839 4349.09 838.082" fill="#000000" fill-rule="evenodd" fill-opacity="1"/><path d="M4158.46 714 4205 696.196 4204.54 694.37 4204.54 693 4158 710.805 4158.46 712.631Z" fill="#000000" fill-rule="evenodd" fill-opacity="1"/><path d="M4349.46 839.371 4390.33 1176.63 4393.08 1177.54 4394 1178 4352.67 838.914 4351.3 839.371C4350.38 839.828 4349.46 839.371 4349 838.457 4349 838.457 4349 838 4349 838L4349.46 839.371Z" fill="#000000" fill-rule="evenodd" fill-opacity="1"/><path d="M3920.64 133.059 3920.64 133.059C3920.64 132.589 3920.64 132.589 3920.64 132.589 3920.64 132.589 3920.64 132.589 3920.64 132.118 3920.64 132.118 3920.64 132.118 3920.64 131.647 3920.64 131.647 3920.64 131.647 3920.64 131.177 3920.64 131.177 3920.64 131.177 3921.09 131.177L3921.54 131.177 3922 131.177 3835.55 110 3831 111.412 3831 112.353 3920.18 134 3920.64 133.059Z" fill="#000000" fill-rule="evenodd" fill-opacity="1"/><path d="M3829 109.24C3829.92 109.24 3830.83 109.7 3830.83 110.62 3830.83 110.62 3830.83 110.62 3830.83 110.62L3831.29 112 3835.87 110.62 3977 69.2201 3976.54 69.2201C3975.63 69.2201 3975.17 68.3001 3975.17 67.3801 3975.17 66.92 3975.63 66.4602 3976.54 66L3829 109.24Z" fill="#000000" fill-rule="evenodd" fill-opacity="1"/><path d="M3975 67.3801C3975 68.3001 3975.46 69.2201 3976.37 69.2201L3976.83 69.2201 4064.68 89.0004 4071.09 87.1605 4072 87.1605 3977.29 66 3976.37 66C3975.92 66 3975.46 66.4602 3975 67.3801Z" fill="#000000" fill-rule="evenodd" fill-opacity="1"/><path d="M3922 131.235 3922 131.235C3923.38 131.235 3924.29 131.696 3924.29 132.618 3924.29 132.618 3924.29 132.618 3924.29 132.618L3924.75 134 4070.54 90.2255 4069.62 88.843C4069.62 87.9215 4070.08 87 4071 87L4064.58 88.843 3922.46 131.235 3922 131.235Z" fill="#000000" fill-rule="evenodd" fill-opacity="1"/><path d="M4131.17 1501.72C4132.09 1501.72 4133 1502.17 4133 1503.09 4133 1503.09 4133 1503.09 4133 1503.09L4132.54 1500.8 3924.66 133.739 3924.2 132.37C3924.2 131.457 3923.28 131 3922.37 131 3922.37 131 3922.37 131 3922.37 131L3921.91 131 3921.46 131C3921.46 131 3921.46 131 3921 131 3921 131 3921 131 3921 131.457 3921 131.457 3921 131.457 3921 131.913 3921 131.913 3921 131.913 3921 132.37 3921 132.37 3921 132.37 3921 132.826L3921 133.283 3921 134.196 4129.8 1504C4129.35 1503.09 4129.8 1502.17 4131.17 1501.72 4130.72 1501.72 4131.17 1501.72 4131.17 1501.72Z" fill="#000000" fill-rule="evenodd" fill-opacity="1"/><path d="M3713.08 1662.82C3713.08 1662.82 3713.54 1662.82 3713.54 1662.82L3714 1662.82C3714 1662.82 3714 1662.82 3714 1662.36L3714 1661.91C3714 1661.91 3714 1661.91 3714 1661.45L3714 1661 3714 1660.08 3663.66 1407.74 3660.46 1405.91 3660 1405.91 3660 1405.46 3660 1405 3710.8 1660.54 3711.25 1661.91C3711.71 1662.82 3712.17 1663.28 3713.08 1662.82Z" fill="#000000" fill-rule="evenodd" fill-opacity="1"/><path d="M3584.99 1725 3585.9 1725C3586.82 1724.54 3587.28 1724.09 3586.82 1723.17L3586.36 1720.89 3417.21 931 3415.83 931.456 3415.38 931.456 3414.92 931.456 3414 931 3583.61 1723.63C3583.61 1723.63 3583.61 1723.63 3583.61 1724.09L3584.99 1725Z" fill="#000000" fill-rule="evenodd" fill-opacity="1"/><path d="M3663.66 1408.1 3818.8 1488.36 3819.71 1488.81C3820.63 1489.27 3821.54 1488.81 3822 1488.36 3822 1488.36 3822 1488.36 3822 1488.36 3822 1487.9 3822 1487.44 3822 1486.99L3822 1486.53 3822 1486.08 3821.54 1486.08 3820.63 1485.62 3662.75 1404 3662.75 1404.91C3662.75 1405.82 3662.29 1406.74 3661.37 1406.74 3661.37 1406.74 3661.37 1406.74 3661.37 1406.74 3660.92 1406.74 3660.46 1406.74 3660 1406.74L3663.66 1408.1Z" fill="#000000" fill-rule="evenodd" fill-opacity="1"/><path d="M3470.36 839.916C3470.82 840.831 3470.36 841.747 3469.45 842.205L3469 842.205 3552.55 877 3556.64 875.626 3557.55 875.626 3558 875.626 3470.36 839 3469.91 839C3469.91 839 3470.36 839.458 3470.36 839.916Z" fill="#000000" fill-rule="evenodd" fill-opacity="1"/><path d="M3416.46 928.813C3417.37 929.268 3417.83 930.179 3417.37 931.089 3417.37 931.089 3417.37 931.089 3417.37 931.089 3417.37 931.545 3416.91 932 3416.46 932L3417.83 931.545 3556.09 879.642 3555.63 877.821C3555.63 876.91 3556.09 876 3557 876L3552.89 877.366 3416 929.268 3416.46 929.268Z" fill="#000000" fill-rule="evenodd" fill-opacity="1"/><path d="M3415 932 3415 932 3415.91 932C3416.36 932 3416.82 931.546 3416.82 931.091 3417.28 930.182 3416.82 929.273 3415.91 928.818 3415.91 928.818 3415.91 928.818 3415.91 928.818L3415.45 928.364 3333.28 892 3331 892.909 3331.46 894.727 3414.54 931.546 3415 932Z" fill="#000000" fill-rule="evenodd" fill-opacity="1"/><path d="M4186.6 1779.5 4186.6 1779.5 4184.8 1780.5C4184.35 1781 4183.45 1781 4183 1780.5L4192 1786 4192 1785 4191.55 1782.5 4191.55 1781.5 4187.5 1779 4186.6 1779.5Z" fill="#000000" fill-rule="evenodd" fill-opacity="1"/><path d="M4170.88 1771.84 4170.88 1771.84 4171.76 1772.32 4181.91 1778C4181.91 1778 4182.35 1777.53 4182.35 1777.53L4184.12 1776.58 4185 1776.11 4173.53 1769.47 4173.09 1769C4173.09 1769.95 4172.65 1770.42 4171.76 1770.42 4171.32 1770.42 4170.44 1770.42 4170 1769.95 4170 1770.42 4170 1771.37 4170.88 1771.84Z" fill="#000000" fill-rule="evenodd" fill-opacity="1"/><path d="M4182 1778.29 4182 1778.29 4182 1779.2C4182 1779.2 4182 1779.2 4182 1779.66 4182 1779.66 4182 1779.66 4182 1779.66L4182.44 1779.66C4182.89 1780.11 4183.78 1780.11 4184.22 1779.66L4186 1778.74C4185.11 1779.2 4184.22 1778.74 4183.78 1778.29 4183.33 1777.37 4183.78 1776.46 4184.67 1776L4182.89 1776.91C4182.89 1776.91 4182.44 1777.37 4182.44 1777.37 4182 1777.37 4182 1778.29 4182 1778.29Z" fill="#000000" fill-rule="evenodd" fill-opacity="1"/><path d="M4408.5 1362.2 4408.5 1362.2 4409 1362.6 4409 1363 4409 1361 4407 1361.8 4408.5 1362.2Z" fill="#000000" fill-rule="evenodd" fill-opacity="1"/><path d="M4238.1 1923.74 4237.65 1920.57 4213.35 1907 4213.35 1907.9C4213.35 1907.9 4213.35 1907.9 4213.35 1908.36 4213.35 1908.36 4213.35 1908.36 4213.35 1908.81 4213.35 1908.81 4213.35 1908.81 4213.35 1909.26 4213.35 1909.26 4213.35 1909.26 4213.35 1909.71L4212.9 1910.17 4212 1910.62 4239 1926C4239 1926 4239 1926 4239 1925.55L4238.1 1923.74Z" fill="#000000" fill-rule="evenodd" fill-opacity="1"/><path d="M4121 1291.81 4146.65 1304 4146.65 1303.06C4146.65 1303.06 4146.65 1302.59 4146.65 1302.59 4146.65 1302.59 4146.65 1302.59 4146.65 1302.12L4146.65 1301.66 4147.1 1301.66 4147.55 1301.66 4148 1301.19 4123.25 1289 4121 1289.94 4121 1291.81Z" fill="#000000" fill-rule="evenodd" fill-opacity="1"/><path d="M4209.81 1908.32 4209.81 1907 4183.37 1921.04 4182.46 1921.48 4182 1921.48C4182 1921.48 4182 1921.48 4182 1921.92L4182 1922.35 4182 1922.79C4182 1922.79 4182 1922.79 4182 1923.23 4182 1923.67 4182 1923.23 4182 1923.23L4182.46 1923.67C4182.91 1924.11 4183.82 1924.11 4184.28 1923.67L4187.01 1922.35 4212.09 1909.19 4213 1908.76C4213 1908.76 4212.54 1908.76 4212.54 1908.76 4211.18 1909.63 4210.26 1909.19 4209.81 1908.32 4209.81 1908.32 4209.81 1908.32 4209.81 1908.32Z" fill="#000000" fill-rule="evenodd" fill-opacity="1"/><path d="M4187 550.657 4187.91 550.657 4192.47 552 4315 508.133 4314.54 508.133C4313.63 507.686 4313.18 506.79 4313.18 506.343 4313.18 505.895 4313.63 505.448 4314.54 505L4187 550.657Z" fill="#000000" fill-rule="evenodd" fill-opacity="1"/><path d="M4188 551 4188 551C4188.46 551 4188.91 551.91 4189.37 552.366L4189.83 555.096 4410 622 4410 618.359 4193.02 552.366 4188 551Z" fill="#000000" fill-rule="evenodd" fill-opacity="1"/><path d="M4350 838.428C4350 838.428 4350 838.891 4350 838.891 4350.45 839.818 4351.36 840.282 4352.27 839.818L4353.64 839.355 4410 815.709 4410 812 4351.82 836.573 4350.91 837.037 4350.45 837.5C4350.45 837.5 4350.45 837.5 4350.45 837.5 4350.45 837.5 4350.45 837.5 4350.45 837.964L4350.45 838.428" fill="#000000" fill-rule="evenodd" fill-opacity="1"/><path d="M4356 2147.82 4356.92 2148.27C4357.84 2148.73 4357.84 2149.64 4357.38 2150.55 4357.38 2150.55 4357.38 2150.55 4357.38 2150.55 4357.38 2151 4356.92 2151 4356.46 2151L4409 2120.09 4409 2116 4356.92 2146.45 4356 2147.82Z" fill="#000000" fill-rule="evenodd" fill-opacity="1"/><path d="M4075.37 1982 4075.37 1982.92C4075.37 1982.92 4075.37 1983.38 4075.37 1983.38L4075.37 1983.83 4075.37 1984.29 4075.37 1984.75 4074.91 1985.21 4074 1985.67 4354.53 2153 4354.99 2153 4355.44 2153 4355.9 2153C4356.36 2153 4356.36 2152.54 4356.81 2152.54 4357.27 2151.62 4356.81 2150.71 4356.36 2150.25 4356.36 2150.25 4356.36 2150.25 4356.36 2150.25L4355.44 2149.79 4353.62 2147.5 4075.37 1982Z" fill="#000000" fill-rule="evenodd" fill-opacity="1"/><path d="M3831.46 2121.65 4233.63 2382.54 4234.09 2383C4233.18 2382.54 4233.18 2381.63 4233.18 2380.72 4233.18 2380.26 4233.63 2380.26 4234.09 2379.81L4235 2379.35 3832.37 2118 3831 2118.91 3831.46 2121.65Z" fill="#000000" fill-rule="evenodd" fill-opacity="1"/><path d="M4234.91 2379.82C4234 2380.27 4234 2381.18 4234 2382.09 4234 2382.55 4234.46 2382.55 4234.91 2383L4235.37 2383 4235.82 2383 4236.28 2383 4237.19 2382.55 4409 2277.09 4409 2273 4235.82 2379.36 4234.91 2379.82Z" fill="#000000" fill-rule="evenodd" fill-opacity="1"/><path d="M4295.38 1893.92 4295.38 1893.92C4295.38 1893.92 4295.38 1894.38 4295.38 1894.38L4295.38 1894.83C4295.38 1894.83 4295.38 1894.83 4294.92 1894.83L4294 1895.29 4410 1959 4410 1955.79 4295.83 1893 4295.38 1893.92Z" fill="#000000" fill-rule="evenodd" fill-opacity="1"/><path d="M4208.46 1274.36 4208.46 1274.36C4208.46 1274.82 4208.46 1274.82 4208.46 1274.82 4208.46 1274.82 4208.46 1274.82 4208.46 1274.82L4208.91 1277.55 4405.72 1364 4405.72 1363.09C4405.72 1362.18 4406.18 1361.27 4407.09 1361.27 4407.54 1361.27 4408 1361.27 4408 1361.27L4407.54 1360.82 4208 1273 4208.46 1274.36Z" fill="#000000" fill-rule="evenodd" fill-opacity="1"/><path d="M4409.57 1363.65 4409.57 1363.65 4409.57 1363.2 4409.14 1363.2C4408.71 1363.2 4408.29 1362.75 4408.29 1363.2 4407.43 1363.2 4407 1364.1 4407 1365L4407 1365.9 4410 1392 4409.57 1363.65C4410 1364.1 4409.57 1363.65 4409.57 1363.65Z" fill="#000000" fill-rule="evenodd" fill-opacity="1"/><path d="M4148 1301.23 4148.45 1301.23C4149.36 1301.23 4150.27 1301.69 4150.27 1302.61 4150.27 1302.61 4150.27 1302.61 4150.27 1302.61L4150.27 1304 4205.09 1278.15 4204.64 1275.85C4204.64 1274.92 4205.09 1274 4206 1274L4205.55 1274 4148.45 1300.77 4148 1301.23Z" fill="#000000" fill-rule="evenodd" fill-opacity="1"/><path d="M4205 1275.37 4205.46 1277.66 4292.78 1893.54 4293.7 1893.09C4294.62 1892.63 4295.54 1893.09 4296 1893.54 4296 1893.54 4296 1893.54 4296 1893.54 4296 1893.54 4296 1894 4296 1894L4296 1893.09 4208.68 1277.66 4208.22 1274.91C4208.22 1274.91 4208.22 1274.91 4208.22 1274.46L4208.22 1274 4207.76 1274 4206.84 1274C4205.92 1274 4205 1274.46 4205 1275.37Z" fill="#000000" fill-rule="evenodd" fill-opacity="1"/><path d="M4237.72 1924 4237.72 1924C4237.72 1924 4237.72 1924 4237.72 1924 4237.72 1923.54 4237.72 1923.54 4237.72 1923.54 4237.72 1923.54 4237.72 1923.54 4237.72 1923.09L4237.72 1922.63C4237.72 1922.63 4237.72 1922.63 4237.72 1922.63L4240 1921.26 4149.19 1302.74 4149.19 1301.37C4149.19 1300.46 4148.28 1300 4147.37 1300 4147.37 1300 4147.37 1300 4147.37 1300L4146.91 1300 4146.46 1300 4146 1300 4146 1300.46C4146 1300.46 4146 1300.46 4146 1300.91 4146 1300.91 4146 1301.37 4146 1301.37L4146 1302.28 4236.81 1919.89 4237.72 1924Z" fill="#000000" fill-rule="evenodd" fill-opacity="1"/><path d="M4239 1925.38 4239 1925.38 4361.82 1994.62 4364.55 1996C4364.09 1996 4364.09 1995.54 4363.64 1995.54 4363.18 1994.62 4363.64 1993.71 4364.09 1993.25L4365 1992.79 4243.09 1924 4240.36 1925.38C4239.91 1925.38 4239.46 1925.38 4239 1925.38Z" fill="#000000" fill-rule="evenodd" fill-opacity="1"/><path d="M4189.21 1255 4190.14 1254.54 4192 1253.63 4176.19 1143.83 4173.4 1142.91 4172.93 1142.91 4172.47 1142.91C4172.47 1142.91 4172.47 1142.46 4172 1142.46 4172 1142.46 4172 1142 4172 1142L4189.21 1255Z" fill="#000000" fill-rule="evenodd" fill-opacity="1"/><path d="M4174 1142.81 4174 1142.81 4176.74 1143.72 4309.98 1199 4313.63 1197.19C4314.09 1196.73 4314.54 1196.73 4315 1197.19L4179.02 1141 4175.37 1142.36C4174.91 1142.81 4174.46 1142.81 4174 1142.81Z" fill="#000000" fill-rule="evenodd" fill-opacity="1"/><path d="M4184.86 1777.08 4184.86 1777.08C4184 1777.51 4184 1778.39 4184 1779.27 4184.43 1780.15 4185.29 1780.15 4186.14 1779.71L4186.57 1779.27 4188.71 1778.39 4190 1777.51 4189.57 1775.32 4189.57 1774 4185.29 1776.2 4184.86 1777.08Z" fill="#000000" fill-rule="evenodd" fill-opacity="1"/><path d="M4293.7 1892 4292.78 1892.47 4241.3 1921.44 4239 1922.85C4239 1922.85 4239 1922.85 4239 1922.85L4239 1923.31 4239 1923.78C4239 1923.78 4239 1923.78 4239 1924.25 4239 1924.25 4239 1924.25 4239 1924.71 4239 1924.71 4239 1924.71 4239 1925.18 4239 1925.18 4239 1925.65 4239 1925.65 4239.46 1926.12 4240.38 1926.12 4240.84 1925.65L4243.6 1924.25 4294.62 1895.74 4295.54 1895.27C4295.54 1895.27 4296 1895.27 4296 1895.27L4296 1894.8C4296 1894.8 4296 1894.34 4296 1894.34 4296 1894.34 4296 1893.87 4296 1893.87 4294.62 1892 4294.16 1892 4293.7 1892Z" fill="#000000" fill-rule="evenodd" fill-opacity="1"/><path d="M4364.76 1993.24C4363.84 1993.7 4363.84 1994.62 4364.3 1995.54 4364.3 1996 4364.76 1996 4365.23 1996L4365.69 1996 4366.15 1996 4366.61 1996 4410 1971.14 4410 1967 4365.69 1992.32 4364.76 1993.24Z" fill="#000000" fill-rule="evenodd" fill-opacity="1"/><path d="M3862.74 2283.36C3862.74 2284.27 3862.28 2285.18 3861.37 2285.18 3861.37 2285.18 3861.37 2285.18 3861.37 2285.18 3860.91 2285.18 3860.46 2285.18 3860 2284.73L4139.06 2473 4145 2473 3862.28 2282 3862.74 2283.36Z" fill="#000000" fill-rule="evenodd" fill-opacity="1"/><path d="M3856.09 2267 3741.91 2332.34 3741 2332.8 3741.91 2333.26C3742.82 2333.72 3742.82 2334.63 3742.36 2335.54 3742.36 2336 3741.91 2336 3741.46 2336L3741.91 2336 3857 2270.2 3856.55 2267.91 3856.09 2267Z" fill="#000000" fill-rule="evenodd" fill-opacity="1"/><path d="M3742 2332.81 3741.08 2332.35 3738.33 2330.52 3586.1 2223.76 3585.64 2223.3C3584.72 2222.84 3583.8 2222.84 3583.34 2223.76 3583.34 2223.76 3583.34 2223.76 3583.34 2223.76 3582.89 2224.21 3582.89 2224.67 3583.34 2225.58L3583.34 2226.04 3583.8 2226.49 3739.71 2336 3740.17 2336 3741.08 2336C3741.54 2335.09 3742 2334.18 3742 2332.81 3741.54 2332.81 3741.54 2332.81 3741.08 2332.35L3742 2332.81Z" fill="#000000" fill-rule="evenodd" fill-opacity="1"/><path d="M3524.18 1777.18C3525.09 1777.18 3526 1777.63 3526 1778.54 3526 1778.54 3526 1778.54 3526 1778.54L3331.1 894.738 3330.64 892.913 3329.28 893.369C3328.37 893.825 3327.46 893.369 3327 892.456 3327 892.456 3327 892.456 3327 892.456 3327 892.456 3327 892 3327 892L3522.36 1777.63 3522.81 1779C3522.81 1778.09 3523.27 1777.18 3524.18 1777.18Z" fill="#000000" fill-rule="evenodd" fill-opacity="1"/><path d="M3862 2283.15 3862 2282.69 3859 2267C3859 2267.92 3858.57 2268.85 3857.71 2268.85 3856.86 2268.85 3856.43 2268.38 3856 2267.46L3856.43 2269.77 3859 2283.62C3859 2283.62 3859 2284.08 3859.43 2284.08 3859.43 2284.08 3859.43 2284.54 3859.86 2284.54 3860.29 2285 3860.71 2285 3861.14 2285 3861.57 2284.54 3862 2284.08 3862 2283.15Z" fill="#000000" fill-rule="evenodd" fill-opacity="1"/><path d="M3829.26 2119.91C3828.36 2120.37 3827.45 2119.91 3827 2119.46 3827 2119.46 3827 2119 3827 2119L3827 2119 3855.93 2266.54 3856.38 2267.91C3856.84 2268.82 3857.74 2269.28 3858.64 2268.82 3859.55 2268.37 3860 2267.91 3860 2267L3831.97 2121.73 3831.52 2119 3829.26 2119.91Z" fill="#000000" fill-rule="evenodd" fill-opacity="1"/><path d="M4052.81 1847 4052.81 1847 4051.91 1847 4051.45 1847 4051 1847 4051 1847.46C4051 1847.46 4051 1847.91 4051 1847.91 4051 1847.91 4051 1847.91 4051 1848.37L4051 1849.28 4071.83 1976.63 4071.83 1978C4071.83 1977.09 4072.28 1976.17 4073.19 1976.17 4073.19 1976.17 4073.19 1976.17 4073.19 1976.17 4074.09 1976.17 4075 1976.63 4075 1977.54 4075 1977.54 4075 1977.54 4075 1977.54L4054.17 1852.02 4053.72 1848.37C4054.17 1847.46 4053.72 1847.46 4052.81 1847Z" fill="#000000" fill-rule="evenodd" fill-opacity="1"/><path d="M4073.33 1976C4072.44 1976 4072 1977 4072 1978 4072 1978 4072 1978 4072 1978L4072.44 1980.5 4072.89 1982.5 4073.78 1982C4074.67 1981.5 4075.56 1982 4076 1982.5 4076 1982.5 4076 1982.5 4076 1982.5 4076 1982.5 4076 1983 4076 1983L4076 1982 4075.11 1977C4075.11 1976.5 4074.22 1976 4073.33 1976Z" fill="#000000" fill-rule="evenodd" fill-opacity="1"/><path d="M4169.38 1769.89C4169.38 1770.35 4169.38 1770.35 4169.83 1770.35 4170.28 1770.81 4170.74 1771.27 4171.64 1770.81 4172.55 1770.81 4173 1770.35 4173 1769.43L4173 1769.43C4173 1769.43 4173 1769.43 4173 1768.98L4172.55 1766.68 4152.62 1633.21 4152.17 1630C4152.17 1630.92 4151.72 1631.84 4150.81 1631.84 4150.81 1631.84 4150.81 1631.84 4150.81 1631.84 4149.91 1631.84 4149 1631.38 4149 1630.46L4169.83 1768.06 4169.38 1769.89Z" fill="#000000" fill-rule="evenodd" fill-opacity="1"/><path d="M4150.59 1633C4151.53 1633 4152 1632.09 4152 1631.17 4152 1631.17 4152 1631.17 4152 1631.17L4152 1630.26 4132.29 1504.74 4132.29 1503.37C4132.29 1502.46 4131.35 1502 4130.41 1502 4130.41 1502 4130.41 1502 4130.41 1502 4129.47 1502 4129 1502.91 4129 1503.83L4149.18 1631.63C4149.18 1632.09 4150.12 1632.54 4150.59 1633Z" fill="#000000" fill-rule="evenodd" fill-opacity="1"/><path d="M3603.76 1883.73C3604.22 1884.64 3603.76 1885.55 3602.84 1886 3602.84 1886 3602.84 1886 3602.84 1886L3605.59 1884.64 3686 1844.18C3685.08 1844.64 3684.16 1844.18 3683.7 1843.27 3683.24 1842.36 3683.7 1841.45 3684.62 1841L3683.24 1841.45 3601 1882.36C3602.38 1882.36 3603.3 1882.82 3603.76 1883.73 3603.76 1883.73 3603.76 1883.73 3603.76 1883.73Z" fill="#000000" fill-rule="evenodd" fill-opacity="1"/><path d="M3603.82 1884.06C3603.38 1883.17 3602.49 1882.73 3601.6 1883.17 3601.6 1883.17 3601.6 1883.17 3601.6 1883.17L3582.89 1892.46 3582 1892.9C3582.89 1892.46 3583.78 1892.9 3584.23 1893.79 3584.23 1893.79 3584.23 1893.79 3584.23 1893.79 3584.67 1894.67 3584.23 1895.56 3583.34 1896 3583.34 1896 3583.34 1896 3583.34 1896L3602.04 1886.71 3602.93 1886.27C3603.82 1885.83 3604.27 1884.94 3603.82 1884.06 3603.82 1884.06 3603.82 1884.06 3603.82 1884.06Z" fill="#000000" fill-rule="evenodd" fill-opacity="1"/><path d="M4043.85 1461.63C4043.85 1462.09 4044.3 1462.54 4044.75 1463L4045.2 1463 4045.65 1463 4046.1 1463 4046.55 1463 4047 1462.54 4047 1462.09C4047 1462.09 4047 1462.09 4047 1461.63L4047 1461.17 4000.15 1165C4000.15 1165.91 3999.7 1166.83 3998.8 1166.83 3997.9 1166.83 3997 1166.37 3997 1165.46 3997 1165.46 3997 1165.46 3997 1165.46L3997.45 1167.74 4043.85 1458.43 4043.85 1461.63Z" fill="#000000" fill-rule="evenodd" fill-opacity="1"/><path d="M3998.63 1167C3999.54 1167 4000 1166.09 4000 1165.18L3831.65 113.106 3831.65 111.737 3831.19 110.369C3831.19 109.456 3830.28 109 3829.37 109 3829.37 109 3829.37 109 3829.37 109L3828.91 109 3828.46 109C3828.46 109 3828.46 109 3828 109 3828 109 3828 109 3828 109.456L3828 109.912C3828 109.912 3828 109.912 3828 110.369L3996.81 1163.81 3997.26 1165.18C3997.26 1165.18 3997.72 1166.09 3998.63 1167 3998.63 1166.54 3998.63 1167 3998.63 1167Z" fill="#000000" fill-rule="evenodd" fill-opacity="1"/><path d="M4213.18 1122.54 4215 1121.63 4167.19 775.742 4167.19 773C4167.19 773.914 4166.73 774.828 4165.82 774.828 4165.82 774.828 4165.82 774.828 4165.82 774.828 4164.91 774.828 4164 774.371 4164 773.457L4212.27 1123 4213.18 1122.54Z" fill="#000000" fill-rule="evenodd" fill-opacity="1"/><path d="M3659.82 1405.54 3659.82 1405.54 3659.82 1406 3660.27 1406C3660.73 1406 3661.18 1406 3661.64 1406 3662.55 1406 3663 1405.08 3663 1404.17 3663 1404.17 3663 1404.17 3663 1404.17L3663 1403.25 3646.64 1320.37 3646.18 1319C3646.18 1319.92 3645.73 1320.83 3644.82 1320.83 3643.91 1320.83 3643 1320.37 3643 1319.46 3643 1319.46 3643 1319.46 3643 1319.46L3659.82 1405.54Z" fill="#000000" fill-rule="evenodd" fill-opacity="1"/><path d="M3556.84 875.456 3556.38 875.456C3555.46 875.912 3555 876.368 3555 877.28L3555.46 879.104 3643.78 1319.63C3643.78 1320.54 3644.7 1321 3645.62 1321 3645.62 1321 3645.62 1321 3645.62 1321 3646.54 1321 3647 1320.09 3647 1319.18L3646.54 1316.9 3558.22 876.368C3558.22 876.368 3558.22 876.368 3558.22 875.912L3558.22 875.456 3558.22 875 3557.76 875 3557.3 875 3556.84 875.456Z" fill="#000000" fill-rule="evenodd" fill-opacity="1"/><path d="M4211.72 1124.29C4211.27 1123.37 4211.72 1122.46 4212.63 1122L4211.27 1122.46 4173.46 1139.37 4173 1139.83 4173 1140.29C4173 1140.29 4173 1140.29 4173 1140.74 4173 1140.74 4173 1141.2 4173 1141.2 4173 1141.2 4173 1141.66 4173.46 1141.66L4173.91 1141.66C4174.37 1142.11 4174.82 1142.11 4175.28 1141.66L4178.92 1140.29 4214 1124.74C4214 1124.29 4213.09 1124.74 4211.72 1124.29 4212.18 1124.29 4212.18 1124.29 4211.72 1124.29Z" fill="#000000" fill-rule="evenodd" fill-opacity="1"/><path d="M4315 1198.83 4315 1198.83C4315 1198.83 4315 1198.83 4315 1198.83L4315 1197.92 4314.54 1197.92C4314.09 1197.46 4313.63 1197 4313.18 1197L4309.53 1198.83 4191.82 1252.88 4190 1253.79C4190.91 1253.34 4191.82 1253.79 4192.28 1254.71 4192.28 1254.71 4192.28 1254.71 4192.28 1254.71 4192.74 1255.63 4192.28 1256.54 4191.37 1257L4314.09 1200.21C4314.09 1200.21 4314.09 1200.21 4314.54 1199.75 4314.54 1199.75 4314.54 1199.75 4314.54 1199.29 4314.54 1199.29 4314.54 1199.29 4314.54 1198.83" fill="#000000" fill-rule="evenodd" fill-opacity="1"/><path d="M4118 1289 4118 1289C4118 1287.67 4120.25 1287.67 4118 1289Z" fill="#000000" fill-rule="evenodd" fill-opacity="1"/><path d="M4193 1255.08C4192.55 1254.18 4191.64 1253.72 4190.73 1254.18 4190.73 1254.18 4190.73 1254.18 4190.73 1254.18L4189.82 1254.63 4119 1287.28C4119 1287.28 4119.45 1287.28 4119.45 1287.28 4120.36 1287.28 4121.27 1287.73 4121.27 1288.64L4121.27 1290 4123.54 1289.09 4192.09 1257.35C4192.55 1256.9 4193 1255.99 4193 1255.08Z" fill="#000000" fill-rule="evenodd" fill-opacity="1"/><path d="M4315.95 505 4315.49 505C4315.03 505 4314.58 505.455 4314.12 506.364 4313.67 507.273 4314.58 508.182 4315.49 508.182L4315.95 508.182 4410 535 4410 531.818 4315.95 505Z" fill="#000000" fill-rule="evenodd" fill-opacity="1"/><path d="M4206 695.364C4205 695.364 4204 694.909 4204 694 4204 694 4204 694 4204 694L4204.5 696.273 4205.5 702.636C4205.5 703.546 4206.5 704 4207.5 704 4208 704 4209 703.546 4209 703.091 4209 702.636 4209 702.636 4209 702.182L4208 694C4207.5 694.454 4207 695.364 4206 695.364Z" fill="#000000" fill-rule="evenodd" fill-opacity="1"/><path d="M4206.6 695C4207.53 695 4208 694.089 4208 693.177 4208 693.177 4208 693.177 4208 693.177L4208 693.177 4189.28 555.101 4188.81 552.367C4188.81 551.911 4188.34 551 4187.4 551L4186.94 551 4186.47 551C4186.47 551 4186 551 4186 551.456L4186 551.911C4186 551.911 4186 551.911 4186 552.367L4205.19 691.355 4205.19 692.722C4205.19 693.633 4205.66 694.545 4206.6 695 4206.6 695 4206.6 695 4206.6 695Z" fill="#000000" fill-rule="evenodd" fill-opacity="1"/><path d="M4075.52 1984.9 4075.52 1984.9 4076 1984.46 4076 1984.03 4076 1983.59C4076 1983.59 4076 1983.16 4076 1983.16 4076 1983.16 4076 1982.72 4076 1982.72 4075.52 1981.85 4074.55 1981.85 4073.59 1982.29 4073.59 1982.29 4073.59 1982.29 4073.59 1982.29L4072.62 1982.72 4063.93 1987.08 4062 1988.39C4062.97 1987.95 4063.93 1988.39 4064.41 1988.82 4064.9 1989.69 4064.41 1990.56 4063.93 1991L4075.03 1985.77 4075.52 1984.9Z" fill="#000000" fill-rule="evenodd" fill-opacity="1"/><path d="M4063.73 1988.91C4063.27 1988 4062.36 1988 4061.45 1988 4061.45 1988 4061.45 1988 4061.45 1988L4060.54 1988.46 3827.91 2116.5 3827.46 2116.96 3827 2116.96 3827 2117.41C3827 2117.41 3827 2117.41 3827 2117.87 3827 2117.87 3827 2117.87 3827 2118.33L3827 2118.79C3827 2118.79 3827 2119.24 3827 2119.24 3827.46 2120.16 3828.37 2120.16 3829.28 2119.7L3830.19 2119.24 3831.55 2118.33 4062.82 1990.74C4064.18 1990.29 4064.18 1989.37 4063.73 1988.91Z" fill="#000000" fill-rule="evenodd" fill-opacity="1"/><path d="M3527.15 1789.66C3528.08 1789.66 3529 1790.12 3529 1791.06L3526.23 1778.41C3526.23 1777.47 3525.31 1777 3524.38 1777 3524.38 1777 3524.38 1777 3524.38 1777 3523.46 1777 3523 1777.94 3523 1778.87L3523.46 1781.22 3525.31 1790.59 3525.77 1792C3525.77 1790.59 3526.23 1789.66 3527.15 1789.66Z" fill="#000000" fill-rule="evenodd" fill-opacity="1"/><path d="M3545.6 1872C3546.53 1872 3547 1871.09 3547 1870.19 3547 1870.19 3547 1870.19 3547 1870.19L3547 1869.74 3529.27 1791.36C3529.27 1790.45 3528.33 1790 3527.4 1790 3526.47 1790 3526 1790.91 3526 1791.81L3526.47 1794.08 3544.2 1871.09C3543.73 1871.55 3544.67 1872 3545.6 1872Z" fill="#000000" fill-rule="evenodd" fill-opacity="1"/><path d="M3791.7 1789.1C3791.24 1788.18 3790.33 1787.72 3789.41 1788.18L3786.67 1789.56 3736.83 1814.86 3735 1815.78C3735.91 1815.32 3736.83 1815.78 3737.29 1816.7 3737.74 1817.62 3737.29 1818.54 3736.37 1819L3791.24 1791.4C3792.16 1790.94 3792.16 1790.02 3791.7 1789.1 3791.7 1789.1 3791.7 1789.1 3791.7 1789.1Z" fill="#000000" fill-rule="evenodd" fill-opacity="1"/><path d="M3736.83 1817.07C3736.37 1816.17 3735.45 1815.73 3734.54 1816.17 3734.54 1816.17 3734.54 1816.17 3734.54 1816.17L3733.16 1816.62 3685.93 1839.81 3684.1 1840.7C3683.18 1841.15 3682.72 1842.04 3683.18 1842.93 3683.64 1843.83 3684.56 1844.27 3685.47 1843.83L3735.45 1819.3C3736.83 1819.3 3737.29 1817.96 3736.83 1817.07 3736.83 1817.51 3736.83 1817.51 3736.83 1817.07Z" fill="#000000" fill-rule="evenodd" fill-opacity="1"/><path d="M3583.83 1894.09C3583.38 1893.18 3582.48 1892.72 3581.59 1893.18 3581.59 1893.18 3581.59 1893.18 3581.59 1893.18L3578.91 1894.55 3554.79 1906.89 3553 1907.8C3553.89 1907.34 3554.79 1907.8 3555.23 1908.72 3555.23 1908.72 3555.23 1908.72 3555.23 1908.72 3555.68 1909.63 3555.23 1910.54 3554.34 1911 3554.34 1911 3554.34 1911 3554.34 1911L3582.93 1896.38C3583.83 1895.92 3584.27 1895.01 3583.83 1894.09 3583.83 1894.09 3583.83 1894.09 3583.83 1894.09Z" fill="#000000" fill-rule="evenodd" fill-opacity="1"/><path d="M3517 1928.18 3517 1928.18 3517.45 1928.65C3517.89 1929.12 3518.78 1929.12 3519.22 1928.65L3521.9 1927.25 3553.94 1910.45C3554.83 1909.98 3555.27 1909.05 3554.83 1908.12 3554.83 1908.12 3554.83 1908.12 3554.83 1908.12 3554.38 1907.18 3553.49 1906.72 3552.6 1907.18 3552.6 1907.18 3552.6 1907.18 3552.6 1907.18L3551.27 1907.65 3517.89 1925.38 3517.89 1925.85 3517.89 1926.32C3517.89 1926.32 3517.89 1926.32 3517.89 1926.78 3517.89 1926.78 3517.89 1927.25 3517.89 1927.25 3517.89 1927.25 3517.89 1927.25 3517.89 1927.72 3517.89 1928.18 3517 1928.18 3517 1928.18Z" fill="#000000" fill-rule="evenodd" fill-opacity="1"/><path d="M4156.92 713.826C4155.96 713.826 4155 713.37 4155 712.456 4155 712.456 4155 712.456 4155 712.456L4163.64 773.631C4163.64 774.544 4164.6 775 4165.56 775 4166.52 775 4167 774.087 4167 773.174L4167 772.261 4158.36 713.37 4158.36 712C4158.36 712.913 4157.88 713.826 4156.92 713.826Z" fill="#000000" fill-rule="evenodd" fill-opacity="1"/><path d="M4070.82 87 4070.82 87C4069.45 87 4069 87.9126 4069 88.8252L4069.45 90.6505 4154.82 712.631C4154.82 713.543 4155.73 714 4156.64 714 4156.64 714 4156.64 714 4156.64 714 4157.55 714 4158 713.087 4158 712.175L4157.55 709.893 4072.63 88.3691 4072.63 87.9126 4072.18 87.4565 4071.72 87.4565 4071.27 87.4565 4070.82 87Z" fill="#000000" fill-rule="evenodd" fill-opacity="1"/><path d="M4193.83 1786.28C4192.91 1786.28 4192 1785.83 4192 1784.91 4192 1784.91 4192 1784.91 4192 1784.91L4192 1785.83 4210.26 1907.26 4210.26 1908.63C4210.26 1909.54 4211.17 1910 4212.09 1910 4212.09 1910 4212.09 1910 4212.09 1910 4212.09 1910 4212.54 1910 4212.54 1910L4213 1909.54C4213 1909.54 4213 1909.54 4213 1909.09 4213 1909.09 4213 1909.09 4213 1908.63 4213 1908.63 4213 1908.63 4213 1908.17 4213 1908.17 4213 1907.72 4213 1907.72L4213 1906.8 4194.74 1784C4194.74 1785.37 4194.28 1786.28 4193.83 1786.28Z" fill="#000000" fill-rule="evenodd" fill-opacity="1"/><path d="M4193 1783.78C4192 1783.78 4191 1783.33 4191 1782.44 4191 1782.44 4191 1782.44 4191 1782.44L4191.5 1784.67C4191.5 1785.56 4192.5 1786 4193.5 1786 4193.5 1786 4193.5 1786 4193.5 1786 4194.5 1786 4195 1785.11 4195 1784.22L4194.5 1782C4195 1782.89 4194 1783.78 4193 1783.78Z" fill="#000000" fill-rule="evenodd" fill-opacity="1"/><path d="M4192 1776.8C4191 1776.8 4190 1776.35 4190 1775.45 4190 1775.45 4190 1775.45 4190 1775.45L4190 1775.45 4190.5 1777.7 4191 1779.5 4191.5 1781.75 4191.5 1782.65C4191.5 1783.55 4192.5 1784 4193.5 1784 4193.5 1784 4193.5 1784 4193.5 1784 4194.5 1784 4195 1783.1 4195 1782.2L4194 1775C4193.5 1775.9 4193 1776.8 4192 1776.8Z" fill="#000000" fill-rule="evenodd" fill-opacity="1"/><path d="M4235.46 1113 4235.46 1113C4235.91 1113 4236.37 1113.45 4236.37 1113.91 4236.83 1114.81 4236.37 1115.72 4235.46 1116.17 4235.46 1116.17 4235.46 1116.17 4235.46 1116.17L4235 1116.62 4392.09 1180C4391.17 1179.55 4390.72 1178.64 4391.17 1177.74 4391.17 1177.74 4391.17 1177.74 4391.17 1177.74 4391.63 1176.83 4392.54 1176.38 4393 1176.83 4393 1176.83 4393 1176.83 4393 1176.83L4390.26 1175.93 4235.46 1113Z" fill="#000000" fill-rule="evenodd" fill-opacity="1"/><path d="M4392.48 1177.18C4391.56 1176.71 4390.64 1177.18 4390.18 1178.12 4390.18 1178.12 4390.18 1178.12 4390.18 1178.12 4389.72 1179.07 4390.18 1180.01 4391.1 1180.48 4391.1 1180.48 4391.1 1180.48 4391.1 1180.48L4409 1188 4409 1184.24 4393.39 1177.65 4392.48 1177.18Z" fill="#000000" fill-rule="evenodd" fill-opacity="1"/><path d="M4189.67 1761.73C4188.83 1761.73 4188 1761.3 4188 1760.43L4188.42 1762.59 4190.08 1773.41 4190.08 1774.7C4190.08 1775.57 4190.92 1776 4191.75 1776 4191.75 1776 4191.75 1776 4191.75 1776 4192.58 1776 4193 1775.14 4193 1774.27L4190.92 1760C4190.92 1760.86 4190.5 1761.73 4189.67 1761.73Z" fill="#000000" fill-rule="evenodd" fill-opacity="1"/><path d="M4171.87 1643.83C4170.93 1643.83 4170 1643.37 4170 1642.46L4170 1643.37 4187.73 1759.26 4187.73 1760.63C4187.73 1761.54 4188.67 1762 4189.6 1762 4190.53 1762 4191 1761.09 4191 1760.18 4191 1760.18 4191 1760.18 4191 1760.18L4172.8 1642C4173.27 1642.46 4172.8 1643.37 4171.87 1643.83Z" fill="#000000" fill-rule="evenodd" fill-opacity="1"/><path d="M4169.33 1638.32 4169.77 1641.51C4169.77 1642.42 4170.66 1643.33 4171.55 1642.88 4172.44 1642.88 4173.33 1641.97 4172.88 1641.06 4172.88 1641.06 4172.88 1641.06 4172.88 1640.6L4151.11 1493C4151.11 1493.91 4150.67 1494.82 4149.78 1494.82 4149.78 1494.82 4149.78 1494.82 4149.78 1494.82 4148.89 1494.82 4148 1494.37 4148 1493.46L4148.44 1495.73 4169.33 1638.32Z" fill="#000000" fill-rule="evenodd" fill-opacity="1"/><path d="M4118.45 1287.46C4118 1287.46 4118 1287.46 4118.45 1287.46L4118.45 1287.46 4118 1287.91C4118 1287.91 4118 1287.91 4118 1288.37L4118 1288.82 4147.88 1492.26 4147.88 1493.63C4147.88 1494.54 4148.77 1495 4149.66 1495 4150.55 1495 4151 1494.09 4151 1493.18 4151 1493.18 4151 1493.18 4151 1493.18L4121.57 1291.56 4121.12 1289.74 4121.12 1288.37C4121.12 1287.46 4120.23 1287 4119.34 1287 4119.34 1287 4118.89 1287 4118.89 1287L4118.45 1287 4118.45 1287.46Z" fill="#000000" fill-rule="evenodd" fill-opacity="1"/><path d="M3327 892.897C3327.46 893.819 3328.37 894.281 3329.28 893.819 3329.28 893.819 3329.28 893.819 3329.28 893.819L3330.65 893.358 3332.93 892.435 3468.45 841.69 3468.91 841.229C3469.82 840.768 3470.28 839.845 3469.82 838.923 3469.82 838.462 3469.36 838 3468.45 838L3468 838 3327.91 890.129 3327.46 890.129 3327.46 890.59C3327.46 890.59 3327.46 890.59 3327.46 891.051 3327.46 891.513 3327.46 891.051 3327.46 891.051 3327 891.513 3327 891.974 3327 892.897Z" fill="#000000" fill-rule="evenodd" fill-opacity="1"/><path d="M4236 1113.88C4236 1113.44 4235.54 1113 4235.08 1113L4234.63 1113 4234.17 1113 4233.71 1113 4214.93 1120.89 4213.1 1121.76C4212.18 1122.2 4211.72 1123.08 4212.18 1123.95 4212.64 1124.83 4213.55 1125.27 4214.47 1124.83L4234.63 1116.07 4235.08 1115.63C4236 1115.63 4236 1114.75 4236 1113.88Z" fill="#000000" fill-rule="evenodd" fill-opacity="1"/></g></g></svg>